G04 GENERATED BY PULSONIX 7.6 GERBER.DLL 5220*
%INSTM100_V2*%
%LNTOP*%
%FSLAX35Y35*%
%IPPOS*%
%LPD*%
%OFA0B0*%
%MOMM*%
%ADD10C,0.30480*%
%ADD20C,0.30000*%
%ADD21C,0.26000*%
%ADD24R,1.60000X1.60000*%
%ADD25R,1.50000X1.20000*%
%ADD26R,1.20000X1.50000*%
%ADD27R,1.50114X0.29972*%
%ADD28R,0.29972X1.50114*%
%ADD29R,2.70000X2.20000*%
%ADD72R,0.99060X1.32080*%
%ADD74R,1.60000X3.50000*%
%ADD75R,8.00000X7.00000*%
%ADD76R,2.20000X2.70000*%
%ADD81R,1.77800X1.27000*%
%ADD134R,0.60000X2.20000*%
%ADD149C,1.52400X0.90000*%
%ADD150O,1.60000X1.60000X1.00000*%
%ADD151O,1.60000X1.60000X1.00000*%
%ADD174C,1.00000X0.50000*%
%ADD253R,2.40000X1.90000*%
X0Y0D02*
D02*
D10*
X229480Y334367D02*
Y278364D01*
X279124Y228720*
X1171000*
Y299497*
G75*
G02X973240Y368263I-70760J115251*
G01*
G75*
G02X719240I-127000J46485*
G01*
G75*
G02X465240I-127000J46485*
G01*
G75*
G02X229480Y334367I-127000J46485*
G01*
G36*
Y278364*
X279124Y228720*
X1171000*
Y299497*
G75*
G02X973240Y368263I-70760J115251*
G01*
G75*
G02X719240I-127000J46485*
G01*
G75*
G02X465240I-127000J46485*
G01*
G75*
G02X229480Y334367I-127000J46485*
G01*
G37*
Y749621D02*
G75*
G02X465240Y715725I108760J-80381D01*
G01*
G75*
G02X719240I127000J-46485*
G01*
G75*
G02X756577Y770485I127001J-46484*
G01*
X664302Y862760*
X532926*
G75*
G02X513554I-9686J58240*
G01*
X273364*
X229480Y818876*
Y749621*
G36*
G75*
G02X465240Y715725I108760J-80381*
G01*
G75*
G02X719240I127000J-46485*
G01*
G75*
G02X756577Y770485I127001J-46484*
G01*
X664302Y862760*
X532926*
G75*
G02X513554I-9686J58240*
G01*
X273364*
X229480Y818876*
Y749621*
G37*
Y2139480D02*
X316771D01*
Y2291121*
G75*
G02X362011Y2336361I45240*
G01*
X522011*
G75*
G02X567251Y2291121J-45240*
G01*
Y2139480*
X606240*
G75*
G02X628240Y2135165J-58240*
G01*
Y2292361*
G75*
G02X683480Y2347601I55240*
G01*
X843480*
G75*
G02X898720Y2292361J-55240*
G01*
Y2243605*
X922159*
G75*
G02X1071286Y2241605I73769J-60240*
G01*
X1083758*
X1207000Y2364847*
Y2518968*
G75*
G02X1084480Y2529750I-54885J77835*
G01*
Y2469919*
G75*
G02X1029240Y2414679I-55240*
G01*
X869240*
G75*
G02X814000Y2469919J55240*
G01*
Y2630960*
X584480*
G75*
G02X574480Y2631781I-3J61280*
G01*
Y2469919*
G75*
G02X529240Y2424679I-45240*
G01*
X369240*
G75*
G02X324000Y2469919J45240*
G01*
Y2809842*
G75*
G02X304354Y2820306I18506J58419*
G01*
G75*
G02X240761Y2805960I-51489J80122*
G01*
X229480Y2794679*
Y2139480*
G36*
X316771*
Y2291121*
G75*
G02X362011Y2336361I45240*
G01*
X522011*
G75*
G02X567251Y2291121J-45240*
G01*
Y2139480*
X606240*
G75*
G02X628240Y2135165J-58240*
G01*
Y2292361*
G75*
G02X683480Y2347601I55240*
G01*
X843480*
G75*
G02X898720Y2292361J-55240*
G01*
Y2243605*
X922159*
G75*
G02X1071286Y2241605I73769J-60240*
G01*
X1083758*
X1207000Y2364847*
Y2518968*
G75*
G02X1084480Y2529750I-54885J77835*
G01*
Y2469919*
G75*
G02X1029240Y2414679I-55240*
G01*
X869240*
G75*
G02X814000Y2469919J55240*
G01*
Y2630960*
X584480*
G75*
G02X574480Y2631781I-3J61280*
G01*
Y2469919*
G75*
G02X529240Y2424679I-45240*
G01*
X369240*
G75*
G02X324000Y2469919J45240*
G01*
Y2809842*
G75*
G02X304354Y2820306I18506J58419*
G01*
G75*
G02X240761Y2805960I-51489J80122*
G01*
X229480Y2794679*
Y2139480*
G37*
X466240Y860240D02*
G75*
G03Y810240J-25000D01*
G01*
G75*
G03Y860240J25000*
G01*
G36*
G75*
G03Y810240J-25000*
G01*
G75*
G03Y860240J25000*
G01*
G37*
X737480Y1341233D02*
Y1278364D01*
X785672Y1230172*
G75*
G02X802711Y1190480I-41182J-41182*
G01*
X804490*
G75*
G02X859730Y1135240J-55240*
G01*
Y985240*
G75*
G02X825841Y934293I-55240*
G01*
X897820*
G75*
G02X903360Y940831I75359J-58239*
G01*
G75*
G02X866750Y985240I8630J44409*
G01*
Y1135240*
G75*
G02X911990Y1180480I45240*
G01*
X1031990*
G75*
G02X1077230Y1135240J-45240*
G01*
Y985240*
G75*
G02X1042594Y941260I-45240*
G01*
G75*
G02X1068418Y876053I-69416J-65208*
G01*
G75*
G02X897820Y817813I-95240*
G01*
X873977*
X887422Y804368*
G75*
G02X894691Y795503I-41183J-41181*
G01*
G75*
G02X978368Y698087I-48451J-126263*
G01*
G75*
G02X1171000Y772575I121872J-28847*
G01*
Y777812*
X1145058Y803754*
G75*
G02X1128000Y844936I41182J41182*
G01*
Y1569678*
G75*
G02X1145058Y1610860I58240*
G01*
X1227000Y1692802*
Y1735188*
X1039058Y1923130*
G75*
G02X1023785Y1950005I41182J41181*
G01*
G75*
G02X961736Y1941327I-43482J84735*
G01*
Y1877371*
G75*
G02X944678Y1836189I-58240*
G01*
X941150Y1832661*
G75*
G02X988480Y1777990I-7910J-54671*
G01*
Y1763779*
G75*
G02X993672Y1759172I-35990J-45789*
G01*
X1039422Y1713422*
G75*
G02X1056480Y1672240I-41182J-41182*
G01*
Y1368178*
G75*
G02X1039422Y1326996I-58240*
G01*
X1014208Y1301782*
G75*
G02X1014980Y1289678I-94468J-12102*
G01*
G75*
G02X824500I-95240*
G01*
G75*
G02X877930Y1375250I95240*
G01*
X783240*
G75*
G02X737480Y1399547J55240*
G01*
Y1355247*
G75*
G02Y1341233I-58240J-7007*
G01*
G36*
Y1278364*
X785672Y1230172*
G75*
G02X802711Y1190480I-41182J-41182*
G01*
X804490*
G75*
G02X859730Y1135240J-55240*
G01*
Y985240*
G75*
G02X825841Y934293I-55240*
G01*
X897820*
G75*
G02X903360Y940831I75359J-58239*
G01*
G75*
G02X866750Y985240I8630J44409*
G01*
Y1135240*
G75*
G02X911990Y1180480I45240*
G01*
X1031990*
G75*
G02X1077230Y1135240J-45240*
G01*
Y985240*
G75*
G02X1042594Y941260I-45240*
G01*
G75*
G02X1068418Y876053I-69416J-65208*
G01*
G75*
G02X897820Y817813I-95240*
G01*
X873977*
X887422Y804368*
G75*
G02X894691Y795503I-41183J-41181*
G01*
G75*
G02X978368Y698087I-48451J-126263*
G01*
G75*
G02X1171000Y772575I121872J-28847*
G01*
Y777812*
X1145058Y803754*
G75*
G02X1128000Y844936I41182J41182*
G01*
Y1569678*
G75*
G02X1145058Y1610860I58240*
G01*
X1227000Y1692802*
Y1735188*
X1039058Y1923130*
G75*
G02X1023785Y1950005I41182J41181*
G01*
G75*
G02X961736Y1941327I-43482J84735*
G01*
Y1877371*
G75*
G02X944678Y1836189I-58240*
G01*
X941150Y1832661*
G75*
G02X988480Y1777990I-7910J-54671*
G01*
Y1763779*
G75*
G02X993672Y1759172I-35990J-45789*
G01*
X1039422Y1713422*
G75*
G02X1056480Y1672240I-41182J-41182*
G01*
Y1368178*
G75*
G02X1039422Y1326996I-58240*
G01*
X1014208Y1301782*
G75*
G02X1014980Y1289678I-94468J-12102*
G01*
G75*
G02X824500I-95240*
G01*
G75*
G02X877930Y1375250I95240*
G01*
X783240*
G75*
G02X737480Y1399547J55240*
G01*
Y1355247*
G75*
G02Y1341233I-58240J-7007*
G01*
G37*
X1136894Y3134517D02*
G75*
G02X1140520Y3113751I-57654J-20767D01*
G01*
Y3083880*
X1297950*
X1347546Y3133476*
G75*
G02X1337500Y3165240I45194J31764*
G01*
Y3435240*
G75*
G02X1392740Y3490480I55240*
G01*
X1444500*
Y3622740*
G75*
G02X1461558Y3663922I58240*
G01*
X1489760Y3692124*
Y3732119*
G75*
G02X1545000Y3787359I55240*
G01*
X1705000*
G75*
G02X1760240Y3732119J-55240*
G01*
Y3572119*
G75*
G02X1705000Y3516879I-55240*
G01*
X1560980*
Y3490480*
X1612740*
G75*
G02X1667980Y3435240J-55240*
G01*
Y3165240*
G75*
G02X1666283Y3151652I-55240J-1*
G01*
X1695818*
G75*
G02X1737000Y3134594J-58240*
G01*
X1781172Y3090422*
G75*
G02X1790358Y3078480I-41182J-41182*
G01*
X1799990*
G75*
G02X1855230Y3023240J-55240*
G01*
Y2962843*
G75*
G02X1928652Y2980136I56760J-76478*
G01*
G75*
G02X2119105Y2977865I95213J-2271*
G01*
G75*
G02X2118396Y2966264I-95240J-2*
G01*
X2252705Y2831955*
G75*
G02X2269880Y2790490I-41465J-41465*
G01*
Y2490880*
X2608804*
X2646924Y2529000*
X2565990*
G75*
G02X2520750Y2574240J45240*
G01*
Y2724240*
G75*
G02X2565990Y2769480I45240*
G01*
X2685990*
G75*
G02X2731230Y2724240J-45240*
G01*
Y2613306*
X2740598Y2622674*
G75*
G02X2782063Y2639849I41465J-41465*
G01*
X2874184*
X2671504Y2842528*
G75*
G02X2502183Y2911000I-47264J126712*
G01*
X2469364*
X2456730Y2898366*
Y2779480*
X2458490*
G75*
G02X2513730Y2724240J-55240*
G01*
Y2574240*
G75*
G02X2458490Y2519000I-55240*
G01*
X2338490*
G75*
G02X2283250Y2574240J55240*
G01*
Y2724240*
G75*
G02X2338490Y2779480I55240*
G01*
X2340250*
Y2922490*
G75*
G02X2357308Y2963672I58240*
G01*
X2404058Y3010422*
G75*
G02X2445240Y3027480I41182J-41182*
G01*
X2502183*
G75*
G02X2577755Y3096240I122057J-58240*
G01*
G75*
G02X2624240Y3358480I46485J127000*
G01*
G75*
G02X2751240Y3269725J-135240*
G01*
G75*
G02X2905316Y3355743I127001J-46485*
G01*
X3002995Y3453422*
G75*
G02X3044177Y3470480I41182J-41182*
G01*
X3508974*
G75*
G02X3767240Y3511114I131266J6760*
G01*
G75*
G02X4025680Y3477240I127000J-33874*
G01*
G75*
G02X3934862Y3352235I-131440*
G01*
G75*
G02X3940725Y3096240I-40622J-128995*
G01*
G75*
G02X3973959Y2859993I-46485J-127000*
G01*
X4057760Y2776192*
Y3857760*
X2440225*
X2639867Y3658118*
G75*
G02X2656925Y3616936I-41182J-41182*
G01*
Y3540325*
G75*
G02X2639867Y3499143I-58240*
G01*
X2582407Y3441683*
G75*
G02X2541225Y3424625I-41182J41182*
G01*
X2478661*
G75*
G02X2308063Y3482865I-75358J58240*
G01*
G75*
G02X2410192Y3577856I95240*
G01*
G75*
G02X2467303Y3665955I95236J823*
G01*
X2332257Y3801000*
X1148972*
Y3395515*
G75*
G02X1298105Y3316990I53893J-78525*
G01*
G75*
G02X1148972Y3238465I-95240*
G01*
Y3168991*
G75*
G02X1136894Y3134517I-55240J1*
G01*
X2026469Y3778599D02*
G75*
G02X2071709Y3733359J-45240D01*
G01*
Y3573359*
G75*
G02X2026469Y3528119I-45240*
G01*
X1866469*
G75*
G02X1821229Y3573359J45240*
G01*
Y3733359*
G75*
G02X1866469Y3778599I45240*
G01*
X2026469*
X2229480Y3165240D02*
G75*
G02X2184240Y3120000I-45240D01*
G01*
X1964240*
G75*
G02X1919000Y3165240J45240*
G01*
Y3435240*
G75*
G02X1964240Y3480480I45240*
G01*
X2184240*
G75*
G02X2229480Y3435240J-45240*
G01*
Y3165240*
X1760240Y3653359D02*
G36*
Y3572119D01*
G75*
G02X1705000Y3516879I-55240*
G01*
X1560980*
Y3490480*
X1612740*
G75*
G02X1667980Y3435240J-55240*
G01*
Y3300240*
X1919000*
Y3435240*
G75*
G02X1964240Y3480480I45240*
G01*
X2184240*
G75*
G02X2229480Y3435240J-45240*
G01*
Y3300240*
X2513061*
G75*
G02X2751240Y3269725I111179J-77000*
G01*
G75*
G02X2905316Y3355743I127001J-46485*
G01*
X3002995Y3453422*
G75*
G02X3044177Y3470480I41182J-41182*
G01*
X3508974*
G75*
G02X3767240Y3511114I131266J6760*
G01*
G75*
G02X4025680Y3477240I127000J-33874*
G01*
G75*
G02X3934862Y3352235I-131440*
G01*
G75*
G02X3940725Y3096240I-40622J-128995*
G01*
G75*
G02X3973959Y2859993I-46485J-127000*
G01*
X4057760Y2776192*
Y3857760*
X2440225*
X2639867Y3658118*
G75*
G02X2656925Y3616936I-41182J-41182*
G01*
Y3540325*
G75*
G02X2639867Y3499143I-58240*
G01*
X2582407Y3441683*
G75*
G02X2541225Y3424625I-41182J41182*
G01*
X2478661*
G75*
G02X2308063Y3482865I-75358J58240*
G01*
G75*
G02X2410192Y3577856I95240*
G01*
G75*
G02X2446322Y3653359I95236J823*
G01*
X2071709*
Y3573359*
G75*
G02X2026469Y3528119I-45240*
G01*
X1866469*
G75*
G02X1821229Y3573359J45240*
G01*
Y3653359*
X1760240*
G37*
G36*
Y3572119*
G75*
G02X1705000Y3516879I-55240*
G01*
X1560980*
Y3490480*
X1612740*
G75*
G02X1667980Y3435240J-55240*
G01*
Y3300240*
X1919000*
Y3435240*
G75*
G02X1964240Y3480480I45240*
G01*
X2184240*
G75*
G02X2229480Y3435240J-45240*
G01*
Y3300240*
X2513061*
G75*
G02X2751240Y3269725I111179J-77000*
G01*
G75*
G02X2905316Y3355743I127001J-46485*
G01*
X3002995Y3453422*
G75*
G02X3044177Y3470480I41182J-41182*
G01*
X3508974*
G75*
G02X3767240Y3511114I131266J6760*
G01*
G75*
G02X4025680Y3477240I127000J-33874*
G01*
G75*
G02X3934862Y3352235I-131440*
G01*
G75*
G02X3940725Y3096240I-40622J-128995*
G01*
G75*
G02X3973959Y2859993I-46485J-127000*
G01*
X4057760Y2776192*
Y3857760*
X2440225*
X2639867Y3658118*
G75*
G02X2656925Y3616936I-41182J-41182*
G01*
Y3540325*
G75*
G02X2639867Y3499143I-58240*
G01*
X2582407Y3441683*
G75*
G02X2541225Y3424625I-41182J41182*
G01*
X2478661*
G75*
G02X2308063Y3482865I-75358J58240*
G01*
G75*
G02X2410192Y3577856I95240*
G01*
G75*
G02X2446322Y3653359I95236J823*
G01*
X2071709*
Y3573359*
G75*
G02X2026469Y3528119I-45240*
G01*
X1866469*
G75*
G02X1821229Y3573359J45240*
G01*
Y3653359*
X1760240*
G37*
X1821229D02*
G36*
Y3733359D01*
G75*
G02X1866469Y3778599I45240*
G01*
X2026469*
G75*
G02X2071709Y3733359J-45240*
G01*
Y3653359*
X2446322*
G75*
G02X2467303Y3665955I59106J-74680*
G01*
X2332257Y3801000*
X1148972*
Y3395515*
G75*
G02X1298105Y3316990I53893J-78525*
G01*
G75*
G02X1148972Y3238465I-95240*
G01*
Y3168991*
G75*
G02X1136894Y3134517I-55240J1*
G01*
G75*
G02X1140520Y3113751I-57654J-20767*
G01*
Y3083880*
X1297950*
X1347546Y3133476*
G75*
G02X1337500Y3165240I45194J31764*
G01*
Y3435240*
G75*
G02X1392740Y3490480I55240*
G01*
X1444500*
Y3622740*
G75*
G02X1461558Y3663922I58240*
G01*
X1489760Y3692124*
Y3732119*
G75*
G02X1545000Y3787359I55240*
G01*
X1705000*
G75*
G02X1760240Y3732119J-55240*
G01*
Y3653359*
X1821229*
G37*
G36*
Y3733359*
G75*
G02X1866469Y3778599I45240*
G01*
X2026469*
G75*
G02X2071709Y3733359J-45240*
G01*
Y3653359*
X2446322*
G75*
G02X2467303Y3665955I59106J-74680*
G01*
X2332257Y3801000*
X1148972*
Y3395515*
G75*
G02X1298105Y3316990I53893J-78525*
G01*
G75*
G02X1148972Y3238465I-95240*
G01*
Y3168991*
G75*
G02X1136894Y3134517I-55240J1*
G01*
G75*
G02X1140520Y3113751I-57654J-20767*
G01*
Y3083880*
X1297950*
X1347546Y3133476*
G75*
G02X1337500Y3165240I45194J31764*
G01*
Y3435240*
G75*
G02X1392740Y3490480I55240*
G01*
X1444500*
Y3622740*
G75*
G02X1461558Y3663922I58240*
G01*
X1489760Y3692124*
Y3732119*
G75*
G02X1545000Y3787359I55240*
G01*
X1705000*
G75*
G02X1760240Y3732119J-55240*
G01*
Y3653359*
X1821229*
G37*
X1667980Y3300240D02*
G36*
Y3165240D01*
G75*
G02X1666283Y3151652I-55240J-1*
G01*
X1695818*
G75*
G02X1737000Y3134594J-58240*
G01*
X1781172Y3090422*
G75*
G02X1790358Y3078480I-41182J-41182*
G01*
X1799990*
G75*
G02X1855230Y3023240J-55240*
G01*
Y2962843*
G75*
G02X1928652Y2980136I56760J-76478*
G01*
G75*
G02X2119105Y2977865I95213J-2271*
G01*
G75*
G02X2118396Y2966264I-95240J-2*
G01*
X2252705Y2831955*
G75*
G02X2269880Y2790490I-41465J-41465*
G01*
Y2490880*
X2608804*
X2646924Y2529000*
X2565990*
G75*
G02X2520750Y2574240J45240*
G01*
Y2724240*
G75*
G02X2565990Y2769480I45240*
G01*
X2685990*
G75*
G02X2731230Y2724240J-45240*
G01*
Y2613306*
X2740598Y2622674*
G75*
G02X2782063Y2639849I41465J-41465*
G01*
X2874184*
X2671504Y2842528*
G75*
G02X2502183Y2911000I-47264J126712*
G01*
X2469364*
X2456730Y2898366*
Y2779480*
X2458490*
G75*
G02X2513730Y2724240J-55240*
G01*
Y2574240*
G75*
G02X2458490Y2519000I-55240*
G01*
X2338490*
G75*
G02X2283250Y2574240J55240*
G01*
Y2724240*
G75*
G02X2338490Y2779480I55240*
G01*
X2340250*
Y2922490*
G75*
G02X2357308Y2963672I58240*
G01*
X2404058Y3010422*
G75*
G02X2445240Y3027480I41182J-41182*
G01*
X2502183*
G75*
G02X2577755Y3096240I122057J-58240*
G01*
G75*
G02X2513061Y3300240I46485J127000*
G01*
X2229480*
Y3165240*
G75*
G02X2184240Y3120000I-45240*
G01*
X1964240*
G75*
G02X1919000Y3165240J45240*
G01*
Y3300240*
X1667980*
G37*
G36*
Y3165240*
G75*
G02X1666283Y3151652I-55240J-1*
G01*
X1695818*
G75*
G02X1737000Y3134594J-58240*
G01*
X1781172Y3090422*
G75*
G02X1790358Y3078480I-41182J-41182*
G01*
X1799990*
G75*
G02X1855230Y3023240J-55240*
G01*
Y2962843*
G75*
G02X1928652Y2980136I56760J-76478*
G01*
G75*
G02X2119105Y2977865I95213J-2271*
G01*
G75*
G02X2118396Y2966264I-95240J-2*
G01*
X2252705Y2831955*
G75*
G02X2269880Y2790490I-41465J-41465*
G01*
Y2490880*
X2608804*
X2646924Y2529000*
X2565990*
G75*
G02X2520750Y2574240J45240*
G01*
Y2724240*
G75*
G02X2565990Y2769480I45240*
G01*
X2685990*
G75*
G02X2731230Y2724240J-45240*
G01*
Y2613306*
X2740598Y2622674*
G75*
G02X2782063Y2639849I41465J-41465*
G01*
X2874184*
X2671504Y2842528*
G75*
G02X2502183Y2911000I-47264J126712*
G01*
X2469364*
X2456730Y2898366*
Y2779480*
X2458490*
G75*
G02X2513730Y2724240J-55240*
G01*
Y2574240*
G75*
G02X2458490Y2519000I-55240*
G01*
X2338490*
G75*
G02X2283250Y2574240J55240*
G01*
Y2724240*
G75*
G02X2338490Y2779480I55240*
G01*
X2340250*
Y2922490*
G75*
G02X2357308Y2963672I58240*
G01*
X2404058Y3010422*
G75*
G02X2445240Y3027480I41182J-41182*
G01*
X2502183*
G75*
G02X2577755Y3096240I122057J-58240*
G01*
G75*
G02X2513061Y3300240I46485J127000*
G01*
X2229480*
Y3165240*
G75*
G02X2184240Y3120000I-45240*
G01*
X1964240*
G75*
G02X1919000Y3165240J45240*
G01*
Y3300240*
X1667980*
G37*
X1144668Y2856695D02*
Y2807176D01*
X1157646Y2794198*
X1209576*
G75*
G02X1250758Y2777140J-58240*
G01*
X1291668Y2736230*
X1348233*
G75*
G02X1362247I7007J-58240*
G01*
X1368000*
Y2737990*
G75*
G02X1423240Y2793230I55240*
G01*
X1573240*
G75*
G02X1626240Y2753561J-55240*
G01*
G75*
G02X1679240Y2793230I53000J-15571*
G01*
X1829240*
G75*
G02X1882240Y2753561J-55240*
G01*
G75*
G02X1922237Y2791678I53000J-15571*
G01*
G75*
G02X1834904Y2830433I-10247J94687*
G01*
G75*
G02X1799990Y2818000I-34914J42807*
G01*
X1679990*
G75*
G02X1624750Y2873240J55240*
G01*
Y3023240*
G75*
G02X1626054Y3035172I55240*
G01*
X1616128*
G75*
G02X1617730Y3023240I-43638J-11932*
G01*
Y2873240*
G75*
G02X1572490Y2828000I-45240*
G01*
X1452490*
G75*
G02X1407250Y2873240J45240*
G01*
Y3023240*
G75*
G02X1407453Y3027523I45240J2*
G01*
X1363705Y2983775*
G75*
G02X1322240Y2966600I-41465J41465*
G01*
X1175181*
G75*
G02X1144668Y2856695I-88753J-34548*
G01*
G36*
Y2807176*
X1157646Y2794198*
X1209576*
G75*
G02X1250758Y2777140J-58240*
G01*
X1291668Y2736230*
X1348233*
G75*
G02X1362247I7007J-58240*
G01*
X1368000*
Y2737990*
G75*
G02X1423240Y2793230I55240*
G01*
X1573240*
G75*
G02X1626240Y2753561J-55240*
G01*
G75*
G02X1679240Y2793230I53000J-15571*
G01*
X1829240*
G75*
G02X1882240Y2753561J-55240*
G01*
G75*
G02X1922237Y2791678I53000J-15571*
G01*
G75*
G02X1834904Y2830433I-10247J94687*
G01*
G75*
G02X1799990Y2818000I-34914J42807*
G01*
X1679990*
G75*
G02X1624750Y2873240J55240*
G01*
Y3023240*
G75*
G02X1626054Y3035172I55240*
G01*
X1616128*
G75*
G02X1617730Y3023240I-43638J-11932*
G01*
Y2873240*
G75*
G02X1572490Y2828000I-45240*
G01*
X1452490*
G75*
G02X1407250Y2873240J45240*
G01*
Y3023240*
G75*
G02X1407453Y3027523I45240J2*
G01*
X1363705Y2983775*
G75*
G02X1322240Y2966600I-41465J41465*
G01*
X1175181*
G75*
G02X1144668Y2856695I-88753J-34548*
G01*
G37*
X1287480Y228720D02*
X3977356D01*
X4001000Y252364*
Y331729*
G75*
G02X3767240Y368263I-106760J83019*
G01*
G75*
G02X3513240I-127000J46485*
G01*
G75*
G02X3259240I-127000J46485*
G01*
G75*
G02X3005240I-127000J46485*
G01*
G75*
G02X2751240I-127000J46485*
G01*
G75*
G02X2497240I-127000J46485*
G01*
G75*
G02X2243240I-127000J46485*
G01*
G75*
G02X1989240I-127000J46485*
G01*
G75*
G02X1735240I-127000J46485*
G01*
G75*
G02X1481240I-127000J46485*
G01*
G75*
G02X1287480Y297134I-127000J46485*
G01*
Y228720*
G36*
X3977356*
X4001000Y252364*
Y331729*
G75*
G02X3767240Y368263I-106760J83019*
G01*
G75*
G02X3513240I-127000J46485*
G01*
G75*
G02X3259240I-127000J46485*
G01*
G75*
G02X3005240I-127000J46485*
G01*
G75*
G02X2751240I-127000J46485*
G01*
G75*
G02X2497240I-127000J46485*
G01*
G75*
G02X2243240I-127000J46485*
G01*
G75*
G02X1989240I-127000J46485*
G01*
G75*
G02X1735240I-127000J46485*
G01*
G75*
G02X1481240I-127000J46485*
G01*
G75*
G02X1287480Y297134I-127000J46485*
G01*
Y228720*
G37*
X1614594Y1848480D02*
X1973740D01*
G75*
G02X2014922Y1831422J-58240*
G01*
X2049922Y1796422*
G75*
G02X2066926Y1757754I-41182J-41182*
G01*
G75*
G02X2087600Y1736017I-28186J-47508*
G01*
Y2345312*
G75*
G02X2085240Y2345250I-2368J45178*
G01*
X1935240*
G75*
G02X1890000Y2390490J45240*
G01*
Y2510490*
G75*
G02X1935240Y2555730I45240*
G01*
X2085240*
G75*
G02X2130480Y2510490J-45240*
G01*
Y2468410*
X2152600Y2490530*
Y2766200*
X2035466Y2883334*
G75*
G02X2007203Y2884094I-11600J94531*
G01*
G75*
G02X1931197Y2793082I-95213J2271*
G01*
G75*
G02X1935240Y2793230I4041J-55092*
G01*
X2085240*
G75*
G02X2140480Y2737990J-55240*
G01*
Y2617990*
G75*
G02X2085240Y2562750I-55240*
G01*
X1935240*
G75*
G02X1882240Y2602419J55240*
G01*
G75*
G02X1841983Y2564240I-53000J15571*
G01*
G75*
G02X1884480Y2510490I-12743J-53750*
G01*
Y2390490*
G75*
G02X1877760Y2364084I-55240*
G01*
X1922922Y2318922*
G75*
G02X1939980Y2277740I-41182J-41182*
G01*
Y2277710*
G75*
G02X1952739Y2267255I-28240J-47476*
G01*
G75*
G02X1978740Y2275474I26002J-37021*
G01*
X2038740*
G75*
G02X2083980Y2230234J-45240*
G01*
Y2010234*
G75*
G02X2038740Y1964994I-45240*
G01*
X1978740*
G75*
G02X1952739Y1973213I1J45240*
G01*
G75*
G02X1911740Y1954994I-40999J37021*
G01*
X1851740*
G75*
G02X1818240Y1966311J55240*
G01*
G75*
G02X1784740Y1954994I-33500J43923*
G01*
X1724740*
G75*
G02X1691240Y1966311J55240*
G01*
G75*
G02X1685980Y1962758I-33499J43924*
G01*
Y1943740*
G75*
G02X1668922Y1902558I-58240*
G01*
X1617922Y1851558*
G75*
G02X1614594Y1848480I-41179J41185*
G01*
G36*
X1973740*
G75*
G02X2014922Y1831422J-58240*
G01*
X2049922Y1796422*
G75*
G02X2066926Y1757754I-41182J-41182*
G01*
G75*
G02X2087600Y1736017I-28186J-47508*
G01*
Y2345312*
G75*
G02X2085240Y2345250I-2368J45178*
G01*
X1935240*
G75*
G02X1890000Y2390490J45240*
G01*
Y2510490*
G75*
G02X1935240Y2555730I45240*
G01*
X2085240*
G75*
G02X2130480Y2510490J-45240*
G01*
Y2468410*
X2152600Y2490530*
Y2766200*
X2035466Y2883334*
G75*
G02X2007203Y2884094I-11600J94531*
G01*
G75*
G02X1931197Y2793082I-95213J2271*
G01*
G75*
G02X1935240Y2793230I4041J-55092*
G01*
X2085240*
G75*
G02X2140480Y2737990J-55240*
G01*
Y2617990*
G75*
G02X2085240Y2562750I-55240*
G01*
X1935240*
G75*
G02X1882240Y2602419J55240*
G01*
G75*
G02X1841983Y2564240I-53000J15571*
G01*
G75*
G02X1884480Y2510490I-12743J-53750*
G01*
Y2390490*
G75*
G02X1877760Y2364084I-55240*
G01*
X1922922Y2318922*
G75*
G02X1939980Y2277740I-41182J-41182*
G01*
Y2277710*
G75*
G02X1952739Y2267255I-28240J-47476*
G01*
G75*
G02X1978740Y2275474I26002J-37021*
G01*
X2038740*
G75*
G02X2083980Y2230234J-45240*
G01*
Y2010234*
G75*
G02X2038740Y1964994I-45240*
G01*
X1978740*
G75*
G02X1952739Y1973213I1J45240*
G01*
G75*
G02X1911740Y1954994I-40999J37021*
G01*
X1851740*
G75*
G02X1818240Y1966311J55240*
G01*
G75*
G02X1784740Y1954994I-33500J43923*
G01*
X1724740*
G75*
G02X1691240Y1966311J55240*
G01*
G75*
G02X1685980Y1962758I-33499J43924*
G01*
Y1943740*
G75*
G02X1668922Y1902558I-58240*
G01*
X1617922Y1851558*
G75*
G02X1614594Y1848480I-41179J41185*
G01*
G37*
X2250880Y1504741D02*
Y1156367D01*
X2374593Y1032654*
G75*
G02X2436599Y1097250I91647J-25914*
G01*
X2351240*
G75*
G02X2306000Y1142490J45240*
G01*
Y1262490*
G75*
G02X2351240Y1307730I45240*
G01*
X2501240*
G75*
G02X2503600Y1307668I-8J-45240*
G01*
Y1314800*
G75*
G02X2501240Y1314750I-2350J55190*
G01*
X2351240*
G75*
G02X2296000Y1369990J55240*
G01*
Y1489990*
G75*
G02X2298006Y1504741I55240*
G01*
X2250880*
G36*
Y1156367*
X2374593Y1032654*
G75*
G02X2436599Y1097250I91647J-25914*
G01*
X2351240*
G75*
G02X2306000Y1142490J45240*
G01*
Y1262490*
G75*
G02X2351240Y1307730I45240*
G01*
X2501240*
G75*
G02X2503600Y1307668I-8J-45240*
G01*
Y1314800*
G75*
G02X2501240Y1314750I-2350J55190*
G01*
X2351240*
G75*
G02X2296000Y1369990J55240*
G01*
Y1489990*
G75*
G02X2298006Y1504741I55240*
G01*
X2250880*
G37*
X2527857Y2190974D02*
G75*
G02X2537356Y2160003I-45741J-30971D01*
G01*
Y2038488*
X2698434Y1877410*
X2748827*
Y1884194*
G75*
G02X2749746Y1894227I55240J-1*
G01*
G75*
G02X2748827Y1904260I54321J10034*
G01*
Y1934232*
G75*
G02X2749746Y1944265I55240J-1*
G01*
G75*
G02X2748827Y1954298I54321J10034*
G01*
Y1984270*
G75*
G02X2749746Y1994303I55240J-1*
G01*
G75*
G02X2748827Y2004336I54321J10034*
G01*
Y2029698*
G75*
G02X2646380Y2188000I-39899J86480*
G01*
X2543990*
G75*
G02X2527857Y2190974I-1J45240*
G01*
G36*
G75*
G02X2537356Y2160003I-45741J-30971*
G01*
Y2038488*
X2698434Y1877410*
X2748827*
Y1884194*
G75*
G02X2749746Y1894227I55240J-1*
G01*
G75*
G02X2748827Y1904260I54321J10034*
G01*
Y1934232*
G75*
G02X2749746Y1944265I55240J-1*
G01*
G75*
G02X2748827Y1954298I54321J10034*
G01*
Y1984270*
G75*
G02X2749746Y1994303I55240J-1*
G01*
G75*
G02X2748827Y2004336I54321J10034*
G01*
Y2029698*
G75*
G02X2646380Y2188000I-39899J86480*
G01*
X2543990*
G75*
G02X2527857Y2190974I-1J45240*
G01*
G37*
X2697461Y2413677D02*
G75*
G02X2709230Y2383240I-33471J-30436D01*
G01*
Y2233240*
G75*
G02X2703534Y2211265I-45240J1*
G01*
G75*
G02X2800332Y2089422I5394J-95087*
G01*
G75*
G02X2804067Y2089548I3729J-55114*
G01*
X2953932*
Y2106116*
X2913124*
G75*
G02X2871942Y2123174J58240*
G01*
X2779308Y2215808*
G75*
G02X2762250Y2256990I41182J41182*
G01*
Y2412695*
G75*
G02X2733366Y2449582I58241J75357*
G01*
X2697461Y2413677*
G36*
G75*
G02X2709230Y2383240I-33471J-30436*
G01*
Y2233240*
G75*
G02X2703534Y2211265I-45240J1*
G01*
G75*
G02X2800332Y2089422I5394J-95087*
G01*
G75*
G02X2804067Y2089548I3729J-55114*
G01*
X2953932*
Y2106116*
X2913124*
G75*
G02X2871942Y2123174J58240*
G01*
X2779308Y2215808*
G75*
G02X2762250Y2256990I41182J41182*
G01*
Y2412695*
G75*
G02X2733366Y2449582I58241J75357*
G01*
X2697461Y2413677*
G37*
X2840528Y2839364D02*
X3117077Y2562817D01*
G75*
G02X3275265Y2554980I76476J-56764*
G01*
X3448096*
X3480474Y2587358*
Y2645932*
G75*
G02X3451140Y2637500I-29334J46808*
G01*
X3273340*
G75*
G02X3218100Y2692740J55240*
G01*
Y2698000*
X3217240*
G75*
G02X3176058Y2715058J58240*
G01*
X3091058Y2800058*
G75*
G02X3074000Y2841240I41182J41182*
G01*
Y2847183*
G75*
G02X3005240Y2922755I58240J122057*
G01*
G75*
G02X2840528Y2839364I-127000J46485*
G01*
G36*
X3117077Y2562817*
G75*
G02X3275265Y2554980I76476J-56764*
G01*
X3448096*
X3480474Y2587358*
Y2645932*
G75*
G02X3451140Y2637500I-29334J46808*
G01*
X3273340*
G75*
G02X3218100Y2692740J55240*
G01*
Y2698000*
X3217240*
G75*
G02X3176058Y2715058J58240*
G01*
X3091058Y2800058*
G75*
G02X3074000Y2841240I41182J41182*
G01*
Y2847183*
G75*
G02X3005240Y2922755I58240J122057*
G01*
G75*
G02X2840528Y2839364I-127000J46485*
G01*
G37*
X2936480Y536805D02*
G75*
G02X3005240Y461233I-58240J-122057D01*
G01*
G75*
G02X3074000Y536805I127000J-46485*
G01*
Y717089*
X2936480Y579569*
Y536805*
G36*
G75*
G02X3005240Y461233I-58240J-122057*
G01*
G75*
G02X3074000Y536805I127000J-46485*
G01*
Y717089*
X2936480Y579569*
Y536805*
G37*
X3002457Y1677512D02*
X3081817D01*
G75*
G02X3204920Y1736020I90110J-30835*
G01*
G75*
G02X3210584Y1775670I95007J6658*
G01*
G75*
G02X3109459Y1882781I-6657J95007*
G01*
X3009421Y1982819*
Y1954298*
G75*
G02X3008502Y1944265I-55240J1*
G01*
G75*
G02X3009421Y1934232I-54321J-10034*
G01*
Y1904260*
G75*
G02X3008502Y1894227I-55240J1*
G01*
G75*
G02X3009421Y1884194I-54321J-10034*
G01*
Y1854222*
G75*
G02X3008502Y1844189I-55240J1*
G01*
G75*
G02X3009421Y1834156I-54321J-10034*
G01*
Y1804184*
G75*
G02X3008502Y1794151I-55240J1*
G01*
G75*
G02X3009421Y1784118I-54321J-10034*
G01*
Y1754146*
G75*
G02X3008526Y1744240I-55240J-3*
G01*
G75*
G02X3009421Y1734334I-54345J-9903*
G01*
Y1704362*
G75*
G02X3002457Y1677512I-55240J-1*
G01*
G36*
X3081817*
G75*
G02X3204920Y1736020I90110J-30835*
G01*
G75*
G02X3210584Y1775670I95007J6658*
G01*
G75*
G02X3109459Y1882781I-6657J95007*
G01*
X3009421Y1982819*
Y1954298*
G75*
G02X3008502Y1944265I-55240J1*
G01*
G75*
G02X3009421Y1934232I-54321J-10034*
G01*
Y1904260*
G75*
G02X3008502Y1894227I-55240J1*
G01*
G75*
G02X3009421Y1884194I-54321J-10034*
G01*
Y1854222*
G75*
G02X3008502Y1844189I-55240J1*
G01*
G75*
G02X3009421Y1834156I-54321J-10034*
G01*
Y1804184*
G75*
G02X3008502Y1794151I-55240J1*
G01*
G75*
G02X3009421Y1784118I-54321J-10034*
G01*
Y1754146*
G75*
G02X3008526Y1744240I-55240J-3*
G01*
G75*
G02X3009421Y1734334I-54345J-9903*
G01*
Y1704362*
G75*
G02X3002457Y1677512I-55240J-1*
G01*
G37*
X3008502Y1494177D02*
G75*
G02X3009421Y1484144I-54321J-10034D01*
G01*
Y1454421*
X3039144*
G75*
G02X3049177Y1453502I-1J-55240*
G01*
G75*
G02X3059210Y1454421I10034J-54321*
G01*
X3089182*
G75*
G02X3099215Y1453502I-1J-55240*
G01*
G75*
G02X3109248Y1454421I10034J-54321*
G01*
X3139220*
G75*
G02X3149253Y1453502I-1J-55240*
G01*
G75*
G02X3159286Y1454421I10034J-54321*
G01*
X3189258*
G75*
G02X3199291Y1453502I-1J-55240*
G01*
G75*
G02X3209324Y1454421I10034J-54321*
G01*
X3239296*
G75*
G02X3249329Y1453502I-1J-55240*
G01*
G75*
G02X3259362Y1454421I10034J-54321*
G01*
X3289334*
G75*
G02X3299240Y1453526I3J-55240*
G01*
G75*
G02X3309146Y1454421I9903J-54345*
G01*
X3339118*
G75*
G02X3370817Y1444421J-55240*
G01*
X3377523*
G75*
G02X3406643Y1454361I31699J-45240*
G01*
G75*
G02X3402409Y1458201I37230J45305*
G01*
X3354463Y1506146*
G75*
G02X3337900Y1539155I41464J41465*
G01*
G75*
G02X3306584Y1647670I58027J75522*
G01*
G75*
G02X3266934Y1653334I-6658J95007*
G01*
G75*
G02X3130267Y1561032I-95007J-6657*
G01*
X3009421*
Y1554248*
G75*
G02X3008502Y1544215I-55240J1*
G01*
G75*
G02X3009421Y1534182I-54321J-10034*
G01*
Y1504210*
G75*
G02X3008502Y1494177I-55240J1*
G01*
G36*
G75*
G02X3009421Y1484144I-54321J-10034*
G01*
Y1454421*
X3039144*
G75*
G02X3049177Y1453502I-1J-55240*
G01*
G75*
G02X3059210Y1454421I10034J-54321*
G01*
X3089182*
G75*
G02X3099215Y1453502I-1J-55240*
G01*
G75*
G02X3109248Y1454421I10034J-54321*
G01*
X3139220*
G75*
G02X3149253Y1453502I-1J-55240*
G01*
G75*
G02X3159286Y1454421I10034J-54321*
G01*
X3189258*
G75*
G02X3199291Y1453502I-1J-55240*
G01*
G75*
G02X3209324Y1454421I10034J-54321*
G01*
X3239296*
G75*
G02X3249329Y1453502I-1J-55240*
G01*
G75*
G02X3259362Y1454421I10034J-54321*
G01*
X3289334*
G75*
G02X3299240Y1453526I3J-55240*
G01*
G75*
G02X3309146Y1454421I9903J-54345*
G01*
X3339118*
G75*
G02X3370817Y1444421J-55240*
G01*
X3377523*
G75*
G02X3406643Y1454361I31699J-45240*
G01*
G75*
G02X3402409Y1458201I37230J45305*
G01*
X3354463Y1506146*
G75*
G02X3337900Y1539155I41464J41465*
G01*
G75*
G02X3306584Y1647670I58027J75522*
G01*
G75*
G02X3266934Y1653334I-6658J95007*
G01*
G75*
G02X3130267Y1561032I-95007J-6657*
G01*
X3009421*
Y1554248*
G75*
G02X3008502Y1544215I-55240J1*
G01*
G75*
G02X3009421Y1534182I-54321J-10034*
G01*
Y1504210*
G75*
G02X3008502Y1494177I-55240J1*
G01*
G37*
X3048240Y662240D02*
G75*
G03Y612240J-25000D01*
G01*
G75*
G03Y662240J25000*
G01*
G36*
G75*
G03Y612240J-25000*
G01*
G75*
G03Y662240J25000*
G01*
G37*
X3122909Y2034059D02*
X3191823Y1965145D01*
G75*
G02X3293270Y1837684I12104J-94468*
G01*
G75*
G02X3332920Y1832020I6658J-95007*
G01*
G75*
G02X3440031Y1933145I95007J6657*
G01*
X3540972Y2034086*
G75*
G02X3539270Y2034059I-1727J55213*
G01*
X3509298*
G75*
G02X3499265Y2034978I1J55240*
G01*
G75*
G02X3489232Y2034059I-10034J54321*
G01*
X3459260*
G75*
G02X3449227Y2034978I1J55240*
G01*
G75*
G02X3439194Y2034059I-10034J54321*
G01*
X3409222*
G75*
G02X3399189Y2034978I1J55240*
G01*
G75*
G02X3389156Y2034059I-10034J54321*
G01*
X3359184*
G75*
G02X3349151Y2034978I1J55240*
G01*
G75*
G02X3339118Y2034059I-10034J54321*
G01*
X3309146*
G75*
G02X3299240Y2034954I-3J55240*
G01*
G75*
G02X3289334Y2034059I-9903J54345*
G01*
X3259362*
G75*
G02X3249329Y2034978I1J55240*
G01*
G75*
G02X3239296Y2034059I-10034J54321*
G01*
X3209324*
G75*
G02X3199291Y2034978I1J55240*
G01*
G75*
G02X3189258Y2034059I-10034J54321*
G01*
X3159286*
G75*
G02X3149253Y2034978I1J55240*
G01*
G75*
G02X3139220Y2034059I-10034J54321*
G01*
X3122909*
G36*
X3191823Y1965145*
G75*
G02X3293270Y1837684I12104J-94468*
G01*
G75*
G02X3332920Y1832020I6658J-95007*
G01*
G75*
G02X3440031Y1933145I95007J6657*
G01*
X3540972Y2034086*
G75*
G02X3539270Y2034059I-1727J55213*
G01*
X3509298*
G75*
G02X3499265Y2034978I1J55240*
G01*
G75*
G02X3489232Y2034059I-10034J54321*
G01*
X3459260*
G75*
G02X3449227Y2034978I1J55240*
G01*
G75*
G02X3439194Y2034059I-10034J54321*
G01*
X3409222*
G75*
G02X3399189Y2034978I1J55240*
G01*
G75*
G02X3389156Y2034059I-10034J54321*
G01*
X3359184*
G75*
G02X3349151Y2034978I1J55240*
G01*
G75*
G02X3339118Y2034059I-10034J54321*
G01*
X3309146*
G75*
G02X3299240Y2034954I-3J55240*
G01*
G75*
G02X3289334Y2034059I-9903J54345*
G01*
X3259362*
G75*
G02X3249329Y2034978I1J55240*
G01*
G75*
G02X3239296Y2034059I-10034J54321*
G01*
X3209324*
G75*
G02X3199291Y2034978I1J55240*
G01*
G75*
G02X3189258Y2034059I-10034J54321*
G01*
X3159286*
G75*
G02X3149253Y2034978I1J55240*
G01*
G75*
G02X3139220Y2034059I-10034J54321*
G01*
X3122909*
G37*
X3190480Y536805D02*
G75*
G02X3259240Y461233I-58240J-122057D01*
G01*
G75*
G02X3365968Y548460I127000J-46485*
G01*
Y943615*
G75*
G02X3365314Y942950I-41850J40503*
G01*
X3190480Y768116*
Y536805*
G36*
G75*
G02X3259240Y461233I-58240J-122057*
G01*
G75*
G02X3365968Y548460I127000J-46485*
G01*
Y943615*
G75*
G02X3365314Y942950I-41850J40503*
G01*
X3190480Y768116*
Y536805*
G37*
X3389270Y1709684D02*
G75*
G02X3472693Y1558306I6657J-95007D01*
G01*
X3522925*
G75*
G02X3564390Y1541131J-58640*
G01*
X3589059Y1516462*
Y1534182*
G75*
G02X3589978Y1544215I55240J-1*
G01*
G75*
G02X3589059Y1554248I54321J10034*
G01*
Y1584220*
G75*
G02X3589978Y1594253I55240J-1*
G01*
G75*
G02X3589059Y1604286I54321J10034*
G01*
Y1634258*
G75*
G02X3589978Y1644291I55240J-1*
G01*
G75*
G02X3589059Y1654324I54321J10034*
G01*
Y1684296*
G75*
G02X3589978Y1694329I55240J-1*
G01*
G75*
G02X3589059Y1704362I54321J10034*
G01*
Y1734334*
G75*
G02X3589954Y1744240I55240J3*
G01*
G75*
G02X3589059Y1754146I54345J9903*
G01*
Y1784118*
G75*
G02X3589978Y1794151I55240J-1*
G01*
G75*
G02X3589059Y1804184I54321J10034*
G01*
Y1834156*
G75*
G02X3589978Y1844189I55240J-1*
G01*
G75*
G02X3589059Y1854222I54321J10034*
G01*
Y1884194*
G75*
G02X3589978Y1894227I55240J-1*
G01*
G75*
G02X3589059Y1904260I54321J10034*
G01*
Y1917445*
X3522395Y1850781*
G75*
G02X3394934Y1749334I-94468J-12104*
G01*
G75*
G02X3389270Y1709684I-95007J-6658*
G01*
G36*
G75*
G02X3472693Y1558306I6657J-95007*
G01*
X3522925*
G75*
G02X3564390Y1541131J-58640*
G01*
X3589059Y1516462*
Y1534182*
G75*
G02X3589978Y1544215I55240J-1*
G01*
G75*
G02X3589059Y1554248I54321J10034*
G01*
Y1584220*
G75*
G02X3589978Y1594253I55240J-1*
G01*
G75*
G02X3589059Y1604286I54321J10034*
G01*
Y1634258*
G75*
G02X3589978Y1644291I55240J-1*
G01*
G75*
G02X3589059Y1654324I54321J10034*
G01*
Y1684296*
G75*
G02X3589978Y1694329I55240J-1*
G01*
G75*
G02X3589059Y1704362I54321J10034*
G01*
Y1734334*
G75*
G02X3589954Y1744240I55240J3*
G01*
G75*
G02X3589059Y1754146I54345J9903*
G01*
Y1784118*
G75*
G02X3589978Y1794151I55240J-1*
G01*
G75*
G02X3589059Y1804184I54321J10034*
G01*
Y1834156*
G75*
G02X3589978Y1844189I55240J-1*
G01*
G75*
G02X3589059Y1854222I54321J10034*
G01*
Y1884194*
G75*
G02X3589978Y1894227I55240J-1*
G01*
G75*
G02X3589059Y1904260I54321J10034*
G01*
Y1917445*
X3522395Y1850781*
G75*
G02X3394934Y1749334I-94468J-12104*
G01*
G75*
G02X3389270Y1709684I-95007J-6658*
G01*
G37*
X3466236Y2872877D02*
G75*
G02X3506380Y2819740I-15096J-53137D01*
G01*
Y2722612*
G75*
G02X3535714Y2731044I29334J-46808*
G01*
X3634774*
G75*
G02X3685765Y2697050J-55240*
G01*
G75*
G02X3725706Y2721044I39941J-21246*
G01*
X3752452*
X3511283Y2962213*
G75*
G02X3466236Y2872877I-125043J7027*
G01*
G36*
G75*
G02X3506380Y2819740I-15096J-53137*
G01*
Y2722612*
G75*
G02X3535714Y2731044I29334J-46808*
G01*
X3634774*
G75*
G02X3685765Y2697050J-55240*
G01*
G75*
G02X3725706Y2721044I39941J-21246*
G01*
X3752452*
X3511283Y2962213*
G75*
G02X3466236Y2872877I-125043J7027*
G01*
G37*
X3532486Y1200791D02*
Y604866D01*
X3595115Y542237*
G75*
G02X3767240Y461233I45125J-127489*
G01*
G75*
G02X4001000Y497767I127000J-46485*
G01*
Y857131*
G75*
G02X3870594Y885361I-50822J80547*
G01*
G75*
G02X3691688Y930865I-83666J45504*
G01*
G75*
G02X3741767Y1014717I95240*
G01*
Y1028782*
X3706405Y1064143*
G75*
G02X3689229Y1105609I41464J41466*
G01*
Y1195307*
G75*
G02X3693124Y1216323I58640J1*
G01*
G75*
G02X3643271Y1237256I10429J94667*
G01*
G75*
G02X3589308Y1193827I-53963J11811*
G01*
X3559336*
G75*
G02X3532486Y1200791I-1J55240*
G01*
X3804375Y673365D02*
G75*
G02X3994855I95240D01*
G01*
G75*
G02X3804375I-95240*
G01*
X3532486D02*
G36*
Y604866D01*
X3595115Y542237*
G75*
G02X3767240Y461233I45125J-127489*
G01*
G75*
G02X4001000Y497767I127000J-46485*
G01*
Y673365*
X3994855*
G75*
G02X3804375I-95240*
G01*
X3532486*
G37*
G36*
Y604866*
X3595115Y542237*
G75*
G02X3767240Y461233I45125J-127489*
G01*
G75*
G02X4001000Y497767I127000J-46485*
G01*
Y673365*
X3994855*
G75*
G02X3804375I-95240*
G01*
X3532486*
G37*
X3804375D02*
G36*
G75*
G02X3994855I95240D01*
G01*
X4001000*
Y857131*
G75*
G02X3870594Y885361I-50822J80547*
G01*
G75*
G02X3691688Y930865I-83666J45504*
G01*
G75*
G02X3741767Y1014717I95240*
G01*
Y1028782*
X3706405Y1064143*
G75*
G02X3689229Y1105609I41464J41466*
G01*
Y1195307*
G75*
G02X3693124Y1216323I58640J1*
G01*
G75*
G02X3643271Y1237256I10429J94667*
G01*
G75*
G02X3589308Y1193827I-53963J11811*
G01*
X3559336*
G75*
G02X3532486Y1200791I-1J55240*
G01*
Y673365*
X3804375*
G37*
G36*
G75*
G02X3994855I95240*
G01*
X4001000*
Y857131*
G75*
G02X3870594Y885361I-50822J80547*
G01*
G75*
G02X3691688Y930865I-83666J45504*
G01*
G75*
G02X3741767Y1014717I95240*
G01*
Y1028782*
X3706405Y1064143*
G75*
G02X3689229Y1105609I41464J41466*
G01*
Y1195307*
G75*
G02X3693124Y1216323I58640J1*
G01*
G75*
G02X3643271Y1237256I10429J94667*
G01*
G75*
G02X3589308Y1193827I-53963J11811*
G01*
X3559336*
G75*
G02X3532486Y1200791I-1J55240*
G01*
Y673365*
X3804375*
G37*
X3730240Y3122240D02*
G75*
G03Y3072240J-25000D01*
G01*
G75*
G03Y3122240J25000*
G01*
G36*
G75*
G03Y3072240J-25000*
G01*
G75*
G03Y3122240J25000*
G01*
G37*
X3738480Y2266443D02*
G75*
G02X3782764Y2221198I-42052J-85453D01*
G01*
G75*
G02X3861600Y2221308I39539J-86645*
G01*
Y2517458*
G75*
G02X3824766Y2498484I-36834J26266*
G01*
X3778653*
G75*
G02X3785010Y2472756I-48883J-25728*
G01*
Y2340676*
G75*
G02X3738480Y2286127I-55240*
G01*
Y2266443*
G36*
G75*
G02X3782764Y2221198I-42052J-85453*
G01*
G75*
G02X3861600Y2221308I39539J-86645*
G01*
Y2517458*
G75*
G02X3824766Y2498484I-36834J26266*
G01*
X3778653*
G75*
G02X3785010Y2472756I-48883J-25728*
G01*
Y2340676*
G75*
G02X3738480Y2286127I-55240*
G01*
Y2266443*
G37*
X3763832Y3005066D02*
G75*
G02X3847755Y3096240I130408J-35826D01*
G01*
G75*
G02X3766230Y3266866I46485J127000*
G01*
X3702480Y3203116*
Y3066418*
X3763832Y3005066*
G36*
G75*
G02X3847755Y3096240I130408J-35826*
G01*
G75*
G02X3766230Y3266866I46485J127000*
G01*
X3702480Y3203116*
Y3066418*
X3763832Y3005066*
G37*
X3824240Y2282240D02*
G75*
G03Y2232240J-25000D01*
G01*
G75*
G03Y2282240J25000*
G01*
G36*
G75*
G03Y2232240J-25000*
G01*
G75*
G03Y2282240J25000*
G01*
G37*
D02*
D20*
X377011Y2211121D02*
X316771D01*
X384240Y2644919D02*
X324000D01*
X442011Y2276121D02*
Y2336361D01*
X449240Y2484919D02*
Y2424679D01*
X507011Y2211121D02*
X567251D01*
X926990Y1060240D02*
X866750D01*
X955928Y2183365D02*
X792476D01*
X763480Y2212361*
X971990Y1120240D02*
Y1180480D01*
X1016990Y1060240D02*
X1077230D01*
X1467490Y2948240D02*
X1407250D01*
X1512490Y2888240D02*
Y2828000D01*
X1557490Y2948240D02*
X1617730D01*
X1881469Y3653359D02*
X1821229D01*
X1911990Y2838668D02*
Y2791125D01*
Y2934062D02*
Y2981605D01*
X1946469Y3588359D02*
Y3528119D01*
Y3718359D02*
Y3778599D01*
X1950240Y2450490D02*
X1890000D01*
X1979240Y3300240D02*
X1919000D01*
X2008740Y2025234D02*
Y1964994D01*
Y2215234D02*
Y2275474D01*
X2010240Y2405490D02*
Y2345250D01*
Y2495490D02*
Y2555730D01*
X2011469Y3653359D02*
X2071709D01*
X2023740Y2120234D02*
X2083980D01*
X2074240Y3180240D02*
Y3120000D01*
Y3420240D02*
Y3480480D01*
X2169240Y3300240D02*
X2229480D01*
X2366240Y1202490D02*
X2306000D01*
X2426240Y1157490D02*
Y1097250D01*
Y1247490D02*
Y1307730D01*
X2580990Y2649240D02*
X2520750D01*
X2603990Y2248240D02*
Y2188000D01*
X2625990Y2589240D02*
Y2529000D01*
Y2709240D02*
Y2769480D01*
X2648990Y2308240D02*
X2709230D01*
X2661231Y2116178D02*
X2613688D01*
X2670990Y2649240D02*
X2731230D01*
X2708928Y2068481D02*
Y2020938D01*
Y2163875D02*
Y2211418D01*
X2756625Y2116178D02*
X2804168D01*
X3252230Y1742677D02*
X3204687D01*
X3299927Y1694980D02*
Y1647437D01*
Y1790374D02*
Y1837917D01*
X3347624Y1742677D02*
X3395167D01*
X3851918Y673365D02*
X3804375D01*
X3899615Y625668D02*
Y578125D01*
Y721062D02*
Y768605D01*
X3947312Y673365D02*
X3994855D01*
D02*
D21*
X171240Y1914990D02*
X175990Y1919740D01*
X474240*
X171240Y1914990D02*
Y1136240D01*
X247240Y1060240*
X296490*
X171240Y2081240D02*
Y1914990D01*
Y2081240D02*
Y2818803D01*
X225995Y2873558*
X171240Y2081240D02*
X606240D01*
X663095Y2024385*
X833658*
X903496Y1954547*
Y1877371*
X866221Y1840096*
Y1725971*
X858240Y1717990*
X442011Y2211121D02*
Y2637690D01*
X449240Y2644919*
X442011Y2211121D02*
X607359D01*
X608240Y2210240*
Y2142480*
X610054*
X682149Y2070385*
X944658*
X953433Y2061610*
X474240Y1348240D02*
X679240D01*
X523240Y921000D02*
X688426D01*
X846240Y763186*
Y732240*
X523240Y921000D02*
X523990Y921750D01*
Y1060240*
X592240Y477748D02*
Y606240D01*
X679240Y1348240D02*
Y1254240D01*
X744490Y1188990*
Y1060240*
X679240Y1484240D02*
Y1348240D01*
Y1484240D02*
Y1784740D01*
X783620Y1889120*
X679240Y1484240D02*
X685490Y1490490D01*
X858240*
X693732Y3518991D02*
X1033981Y3859240D01*
X2356381*
X2598685Y3616936*
Y3540325*
X2541225Y3482865*
X2441303*
X693732Y3518991D02*
X895733Y3316990D01*
X1164865*
X858240Y1717990D02*
X952490D01*
X998240Y1672240*
Y1540240*
Y1368178*
X946610Y1316548*
X935178Y876053D02*
X798427D01*
X744490Y929990*
Y1060240*
X972240D02*
X971990D01*
X980776Y1996743D02*
Y1755427D01*
X1045240Y1691240*
Y1281490*
X972240Y1208490*
Y1060240*
X993428Y2689107D02*
X949240Y2644919D01*
X1033928Y2183365D02*
X1107882D01*
X1265240Y2340723*
Y2550186*
X1218623Y2596803*
X1190115*
X1096360Y606360D02*
X972240Y482240D01*
Y314240*
X910465Y252465*
X507015*
X465240Y294240*
Y829240*
X1100240Y732240D02*
Y1019240D01*
X1059240Y1060240*
X972240*
X1228480Y170480D02*
X255000D01*
X171240Y254240*
Y843000*
X249240Y921000*
X523240*
X1228480Y170480D02*
X1229240Y171240D01*
Y801936*
X1186240Y844936*
Y1569678*
X1285240Y1668678*
Y1759312*
X1080240Y1964312*
Y2090669*
X1311240Y2321669*
Y2569240*
X1190522Y2689958*
X994279*
X993428Y2689107*
X1228480Y170480D02*
X4001480D01*
X4059240Y228240*
Y2692348*
X3894240Y2857348*
Y2906240*
X1235178Y2065615D02*
Y2083178D01*
X1498240Y2346240*
Y2450490*
X1262048Y2000745D02*
X1324053Y1938740D01*
X1456147*
X1519303Y2001896*
Y2236249*
X1579294Y2296240*
X1703240*
X1754740Y2244740*
Y2120234*
X1281240Y1042490D02*
Y948240D01*
X1298620Y930860*
X1329240Y1892740D02*
X1576740D01*
X1627740Y1943740*
Y2120234*
X1329240Y1892740D02*
X1217115D01*
X1127178Y1982677*
Y2072553*
X1357240Y2302615*
Y2675990*
X1355240Y2677990*
X1354240Y732240D02*
Y742240D01*
X1232490Y863990*
Y1550874*
X1331454Y1649838*
X1331240Y1650052*
Y1890740*
X1329240Y1892740*
X1355240Y2677990D02*
X1267544D01*
X1209576Y2735958*
X1133522*
X1086428Y2783052*
Y2894053*
X1355240Y2677990D02*
X1498240D01*
X1417048Y1462433D02*
X1476240Y1403240D01*
X1497240*
X1451298Y1774485D02*
X1467053Y1790240D01*
X1973740*
X2008740Y1755240*
Y1600246*
X1498240Y1042490D02*
X1281240D01*
X1498240D02*
Y842052D01*
X1585297Y754995*
X1674964*
X1754240Y834271*
Y1042490*
X1498240Y1269990D02*
Y1402240D01*
X1497240Y1403240*
X1498240Y2677990D02*
X1754240D01*
X1498240Y3093412D02*
X1390412D01*
X1322240Y3025240*
X1048052*
X993428Y2970615*
Y2689107*
X1498240Y3093412D02*
X1695818D01*
X1739990Y3049240*
Y2948240*
X1498240Y3093412D02*
Y3295740D01*
X1502740Y3300240*
Y3622740*
X1532119Y3652119*
X1625000*
X1627740Y1600246D02*
X1348336D01*
X1329330Y1581240*
X1327910*
X1281240Y1534570*
Y1042490*
X1630053Y900990D02*
Y1056240D01*
Y1244053*
X1655990Y1269990*
X1754240*
X1754740Y1600246D02*
Y1462740D01*
X1695240Y1403240*
X1497240*
X1759240Y2342240D02*
X1817240D01*
X1881740Y2277740*
Y2120234*
X1759240Y2342240D02*
X1560240D01*
X1383365Y2165365*
Y2069865*
X1759240Y2342240D02*
X1754240Y2347240D01*
Y2450490*
X1875240Y1042490D02*
X1861990Y1029240D01*
Y889803*
X1875240Y1042490D02*
X1754240D01*
X1875240D02*
X2010240D01*
X1881740Y1600246D02*
Y1439740D01*
X1826240Y1384240*
X1782240*
X1754240Y1356240*
Y1269990*
X1911990Y2924365D02*
Y3299240D01*
X1912990Y3300240*
X2074240*
X1915240Y2802927D02*
X1911990Y2806177D01*
Y2848365*
X1915240Y2802927D02*
X2118240D01*
X2164740Y2756427*
Y2492240*
X2122990Y2450490*
X2010240*
X1915240Y2802927D02*
X1512490D01*
Y2948240*
X2008740Y1600246D02*
Y1271490D01*
X2010240Y1269990*
Y2450490D02*
X2008740Y2448990D01*
Y2120234*
X2010240Y2677990D02*
X1754240D01*
X2050735Y2950995D02*
X2211240Y2790490D01*
Y2466240*
X2146240Y2401240*
Y1113021*
X2295240Y964024*
Y871052*
X2362052Y804240*
X2552567*
X2849360Y1101033*
Y1220012*
X2703240Y1366132*
Y1540240*
X2732234Y1569234*
X2879124*
X2074240Y3300240D02*
X2257240D01*
X2202240Y758240D02*
X1826302D01*
X1764110Y696048*
X2202240Y887428D02*
Y758240D01*
X2256240Y3653359D02*
X1946469D01*
X2257240Y3389240D02*
Y3300240D01*
Y3389240D02*
X2257865Y3389865D01*
X2484240*
X2257240Y3389240D02*
Y3652359D01*
X2256240Y3653359*
X2362116Y1654981D02*
X2426240Y1590857D01*
Y1429990*
X2376490Y2308240D02*
Y2079377D01*
X2362116Y2065003*
X2439370Y1033610D02*
X2426240Y1046740D01*
Y1202490*
X2478558Y3605548D02*
X2430748Y3653359D01*
X2256240*
X2561240Y2969240D02*
X2445240D01*
X2398490Y2922490*
Y2649240*
X2603990Y2308240D02*
X2709240D01*
X2708928Y2307928*
Y2154178*
X2625990Y2649240D02*
X2882243Y2649239D01*
X3050140Y2481341*
Y2414304*
X3074196Y2390248*
Y2164356*
X2625990Y2649240D02*
Y2527240D01*
X2576990Y2478240*
X2334240*
X2257240Y2555240*
Y3300240*
X2668788Y459296D02*
X3224310Y1014817D01*
Y1324124*
X2668788Y3178692D02*
X2750241Y3097239D01*
X2932240Y3097240*
X3007240Y3172240*
Y3310240*
X3063240Y3366240*
X3501186*
X3545186Y3322240*
Y3011240*
X3920240Y2636186*
Y1805867*
X3883505Y1769132*
X3719356*
X2670495Y2926467D02*
X3096140Y2500823D01*
Y2433472*
X3224310Y2305302*
Y2164356*
X2710365Y1196678D02*
Y1228899D01*
X2611177Y1328087*
Y1578490*
X2701997Y1669310*
X2702197*
X2879124*
Y1469158D02*
Y1320356D01*
X2942723Y1256757*
Y1063639*
X2591324Y712240*
X1912731*
X1766731Y566240*
X1505732*
X1398788Y459296*
X2879124Y1519196D02*
X2783240D01*
X2749240Y1485196*
Y1385186*
X2895360Y1239066*
Y1081359*
X2736240Y922240*
X2735790*
X2571790Y758240*
X2202240*
X2879124Y1619272D02*
X2717213D01*
X2657240Y1559299*
Y1347078*
X2803360Y1200958*
Y1120144*
X2721769Y1038553*
X2693365*
X2879124Y1619272D02*
X3144522D01*
X3145057Y1619807*
X2879124Y1669310D02*
X3022310D01*
X3109740Y1756740*
X3264625*
X2879124Y1719348D02*
X2686981D01*
X2562240Y1594607*
Y902240*
X2510240Y850240*
X2381240*
X2341240Y890240*
Y983078*
X2192240Y1132077*
Y2381240*
X2243240Y2432240*
X2633094*
X2782063Y2581209*
X2885219*
X2950240Y2516188*
Y2439990*
X2879124Y1769132D02*
X2671711D01*
X2557560Y1654981*
X2362116*
X2879124Y1819170D02*
X2674310D01*
X2428477Y2065003*
X2362116*
X3024158Y1324124D02*
Y1074882D01*
X2615267Y666240*
X1931785*
X1785785Y520240*
X1713732*
X1652788Y459296*
X3024158Y2164356D02*
X2913124D01*
X2820490Y2256990*
Y2450053*
X3024158Y2164356D02*
Y2050446D01*
X3177057Y1897547*
X3074196Y1324124D02*
Y1059867D01*
X2634321Y619990*
X1950589*
X1862240Y531641*
Y477748*
X3074196Y2164356D02*
Y2065462D01*
X3160576Y1979082*
X3248257*
X3317677Y1909662*
Y1776277*
X3124234Y1324124D02*
Y1044851D01*
X2653375Y573990*
X2151490*
X2116240Y538740*
Y477748*
X3174272Y1324124D02*
Y1029833D01*
X2672429Y527990*
X2399490*
X2370240Y498740*
Y477748*
X3274348Y1324124D02*
X3273910D01*
Y999363*
X2878240Y603693*
Y477748*
X3283677Y1708327D02*
Y1541927D01*
X3373802Y1451802*
X3324132Y1324124D02*
Y984132D01*
X3132240Y792240*
Y477748*
X3335898Y1730427D02*
X3472412D01*
X3539677Y1797692*
Y1885373*
X3623588Y1969284*
X3719356*
X3362240Y2436240D02*
X3411720D01*
X3585244Y2609764*
X3362240Y2756240D02*
X3217240D01*
X3132240Y2841240*
Y2906240*
X3374170Y1324124D02*
X3375240D01*
Y908240*
X3258240Y791240*
Y302240*
X3215240Y259240*
X3057240*
X3006240Y310240*
Y595240*
X3034240Y623240*
X3374170Y1324124D02*
Y1451434D01*
X3373802Y1451802*
X3383990Y3032200D02*
Y3093240D01*
X3051240*
X3006240Y3048240*
Y2871240*
X2970240Y2835240*
X2827096*
X2751240Y2911096*
Y3008240*
X2659240Y3100240*
X2484240*
X2483240Y3101240*
Y3388865*
X2484240Y3389865*
X3386240Y3032240D02*
Y3160240D01*
X3395927Y1576677D02*
Y1547611D01*
X3443873Y1499666*
X3522925*
X3574322Y1448269*
Y1324124*
X3424208D02*
Y465022D01*
X3454797Y1865547D02*
X3608572Y2019322D01*
X3719356*
X3474246Y1324124D02*
Y580742D01*
X3595692Y459296*
X3524284Y1324124D02*
Y1433253D01*
X3503871Y1453666*
X3375666*
X3373802Y1451802*
X3680240Y2406716D02*
Y2215369D01*
X3703553Y1348990D02*
Y1453355D01*
X3719356Y1469158*
Y1669310D02*
X3914837D01*
X4013240Y1767713*
Y2673294*
X3644240Y3042294*
Y3227240*
X3853228Y3436228*
X3719356Y1719348D02*
X3899775D01*
X3967240Y1786813*
Y2654240*
X3591186Y3030294*
Y3341294*
X3520240Y3412240*
X3044177*
X2909738Y3277801*
X3731240Y3099240D02*
Y3098240D01*
X3732240Y3097240*
X3991240*
X4025293Y3131293*
Y3859813*
X4025480Y3860000*
X3173000*
X2702865Y3389865*
X2484240*
X3775236Y2609764D02*
X3835716D01*
X3874240Y2571240*
Y2308240*
X3825240Y2259240*
X3775236Y2609764D02*
Y2699244D01*
X3505240Y2969240*
X3449240*
X3800407Y966394D02*
Y1053073D01*
X3747869Y1105609*
Y1195307*
X3811360Y1258798*
X3862240*
X3921240Y1317798*
Y1469240*
X3871284Y1519196*
X3719356*
X3882735Y1177360D02*
X3967240Y1261865D01*
Y1488294*
X3886300Y1569234*
X3719356*
X3977048Y964548D02*
X4013240Y1000740D01*
Y1507348*
X3901316Y1619272*
X3719356*
D02*
D24*
X442011Y2211121D03*
X763480Y2212361D03*
X1625000Y3652119D03*
X1946469Y3653359D03*
D02*
D25*
X858240Y1490490D03*
Y1717990D03*
X1498240Y1042490D03*
Y1269990D03*
Y2450490D03*
Y2677990D03*
X1754240Y1042490D03*
Y1269990D03*
Y2450490D03*
Y2677990D03*
X2010240Y1042490D03*
Y1269990D03*
Y2450490D03*
Y2677990D03*
X2426240Y1202490D03*
Y1429990D03*
D02*
D26*
X296490Y1060240D03*
X523990D03*
X744490D03*
X971990D03*
X1512490Y2948240D03*
X1739990D03*
X2376490Y2308240D03*
X2398490Y2649240D03*
X2603990Y2308240D03*
X2625990Y2649240D03*
D02*
D27*
X2879124Y1469158D03*
Y1519196D03*
Y1569234D03*
Y1619272D03*
Y1669310D03*
Y1719348D03*
Y1769132D03*
Y1819170D03*
Y1869208D03*
Y1919246D03*
Y1969284D03*
Y2019322D03*
X3719356Y1469158D03*
Y1519196D03*
Y1569234D03*
Y1619272D03*
Y1669310D03*
Y1719348D03*
Y1769132D03*
Y1819170D03*
Y1869208D03*
Y1919246D03*
Y1969284D03*
Y2019322D03*
D02*
D28*
X3024158Y1324124D03*
Y2164356D03*
X3074196Y1324124D03*
Y2164356D03*
X3124234Y1324124D03*
Y2164356D03*
X3174272Y1324124D03*
Y2164356D03*
X3224310Y1324124D03*
Y2164356D03*
X3274348Y1324124D03*
Y2164356D03*
X3324132Y1324124D03*
Y2164356D03*
X3374170Y1324124D03*
Y2164356D03*
X3424208Y1324124D03*
Y2164356D03*
X3474246Y1324124D03*
Y2164356D03*
X3524284Y1324124D03*
Y2164356D03*
X3574322Y1324124D03*
Y2164356D03*
D02*
D29*
X474240Y1348240D03*
Y1919740D03*
D02*
D72*
X3585244Y2609764D03*
X3680240Y2406716D03*
X3775236Y2609764D03*
D02*
D74*
X449240Y2644919D03*
X949240D03*
D02*
D75*
X693732Y3518991D03*
D02*
D76*
X1502740Y3300240D03*
X2074240D03*
D02*
D81*
X3362240Y2436240D03*
Y2756240D03*
D02*
D134*
X1627740Y1600246D03*
Y2120234D03*
X1754740Y1600246D03*
Y2120234D03*
X1881740Y1600246D03*
Y2120234D03*
X2008740Y1600246D03*
Y2120234D03*
D02*
D149*
X3640240Y3477240D03*
X3894240D03*
D02*
D150*
X338240Y669240D03*
X592240D03*
X846240D03*
X1100240D03*
X2624240Y2969240D03*
Y3223240D03*
X2878240Y2969240D03*
Y3223240D03*
X3132240Y2969240D03*
Y3223240D03*
X3386240Y2969240D03*
Y3223240D03*
D02*
D151*
X338240Y414748D03*
X592240D03*
X846240D03*
X1100240D03*
X1354240D03*
Y669240D03*
X1608240Y414748D03*
X1862240D03*
X2116240D03*
X2370240D03*
X2624240D03*
X2878240D03*
X3132240D03*
X3386240D03*
X3640240D03*
X3894240D03*
Y2969240D03*
Y3223240D03*
D02*
D174*
X252865Y2900428D03*
X810490Y1915990D03*
X919740Y1289678D03*
X973178Y876053D03*
X980303Y2034740D03*
X995928Y2183365D03*
X1086428Y2932053D03*
X1152115Y2596803D03*
X1202865Y3316990D03*
X1235178Y2027615D03*
X1325490Y903990D03*
X1383365Y2031865D03*
X1390178Y1489303D03*
X1424428Y1747615D03*
X1630053Y862990D03*
X1737240Y669178D03*
X1861990Y851803D03*
X1911990Y2886365D03*
X2023865Y2977865D03*
X2202240Y925428D03*
X2403303Y3482865D03*
X2466240Y1006740D03*
X2505428Y3578678D03*
X2655365Y1038553D03*
X2708928Y2116178D03*
X2710365Y1158678D03*
X2820490Y2488053D03*
X2950240Y2401990D03*
X3171927Y1646677D03*
X3193553Y2506053D03*
X3203927Y1870677D03*
X3299927Y1742677D03*
X3395927Y1614677D03*
X3427927Y1838677D03*
X3696428Y2180990D03*
X3703553Y1310990D03*
X3786928Y930865D03*
X3822303Y2134553D03*
X3855865Y1150490D03*
X3899615Y673365D03*
X3950178Y937678D03*
D02*
D253*
X2362116Y1654981D03*
Y2065003D03*
X0Y0D02*
M02*
