G04 GENERATED BY PULSONIX 7.6 GERBER.DLL 5220*
%INSTM100_V2*%
%LNBOTTOM*%
%FSLAX35Y35*%
%IPPOS*%
%LPD*%
%OFA0B0*%
%MOMM*%
%ADD10C,0.30480*%
%ADD20C,0.30000*%
%ADD21C,0.26000*%
%ADD25R,1.50000X1.20000*%
%ADD26R,1.20000X1.50000*%
%ADD79R,1.98000X0.56000*%
%ADD134R,0.60000X2.20000*%
%ADD149C,1.52400X0.90000*%
%ADD150O,1.60000X1.60000X1.00000*%
%ADD151O,1.60000X1.60000X1.00000*%
%ADD162R,2.20000X0.60000*%
%ADD174C,1.00000X0.50000*%
%ADD254R,1.90000X2.40000*%
%ADD285C,0.15000*%
X0Y0D02*
D02*
D10*
X172720Y3625172D02*
G75*
G02X175240Y3625230I2531J-55182D01*
G01*
X325240*
G75*
G02X380480Y3569990J-55240*
G01*
Y3525647*
X440705Y3465423*
G75*
G02X457880Y3423958I-41465J-41465*
G01*
Y2970530*
X470404Y2958006*
G75*
G02X469250Y2969240I54086J11232*
G01*
Y3119240*
G75*
G02X508919Y3172240I55240*
G01*
G75*
G02X469250Y3225240I15571J53000*
G01*
Y3375240*
G75*
G02X524490Y3430480I55240*
G01*
X582116*
X639058Y3487422*
G75*
G02X680240Y3504480I41182J-41182*
G01*
X929240*
G75*
G02X970422Y3487422J-58240*
G01*
X1021422Y3436422*
G75*
G02X1038480Y3395240I-41182J-41182*
G01*
Y3375230*
X1127507*
G75*
G02X1291186Y3281352I75358J-58240*
G01*
G75*
G02X1330932Y3304984I39746J-21608*
G01*
X1528932*
G75*
G02X1574172Y3259744J-45240*
G01*
Y3203744*
G75*
G02X1564332Y3175575I-45240*
G01*
G75*
G02X1575348Y3163252I-35212J-42563*
G01*
X1623888*
X1642000Y3181364*
Y3276116*
X1475799Y3442317*
G75*
G02X1459119Y3476876I41182J41182*
G01*
X1421981*
G75*
G02X1372411Y3507738J55240*
G01*
G75*
G02X1317240Y3455250I-55171J2752*
G01*
X1167240*
G75*
G02X1112000Y3510490J55240*
G01*
Y3630490*
G75*
G02X1167240Y3685730I55240*
G01*
X1317240*
G75*
G02X1366741Y3655008J-55240*
G01*
Y3772116*
G75*
G02X1421981Y3827356I55240*
G01*
X1611981*
G75*
G02X1667221Y3772116J-55240*
G01*
Y3532116*
G75*
G02X1611981Y3476876I-55240*
G01*
X1605968*
X1722621Y3360223*
X1839274Y3476876*
X1832003*
G75*
G02X1776763Y3532116J55240*
G01*
Y3772116*
G75*
G02X1832003Y3827356I55240*
G01*
X2022003*
G75*
G02X2077243Y3772116J-55240*
G01*
Y3653980*
G75*
G02X2127240Y3685730I49997J-23490*
G01*
X2277240*
G75*
G02X2332480Y3630490J-55240*
G01*
Y3546542*
G75*
G02X2410192Y3577856I70824J-63677*
G01*
G75*
G02X2410188Y3578678I95235J874*
G01*
G75*
G02X2559250Y3657252I95240*
G01*
Y3663240*
G75*
G02X2604490Y3708480I45240*
G01*
X2724490*
G75*
G02X2769730Y3663240J-45240*
G01*
Y3513240*
G75*
G02X2724490Y3468000I-45240*
G01*
X2604490*
G75*
G02X2560871Y3501239J45240*
G01*
G75*
G02X2498539Y3483687I-55443J77439*
G01*
G75*
G02X2498543Y3482865I-95235J-874*
G01*
G75*
G02X2497771Y3470761I-95240J-2*
G01*
X2548422Y3420110*
G75*
G02X2565480Y3378928I-41182J-41182*
G01*
Y3345048*
G75*
G02X2751240Y3269725I58760J-121808*
G01*
G75*
G02X2920838Y3351596I127000J-46485*
G01*
X3005765Y3436523*
X2977857Y3464431*
G75*
G02X2951990Y3458000I-25868J48809*
G01*
X2831990*
G75*
G02X2776750Y3513240J55240*
G01*
Y3663240*
G75*
G02X2831990Y3718480I55240*
G01*
X2951990*
G75*
G02X3007230Y3663240J-55240*
G01*
Y3605442*
X3099192Y3513480*
X3513895*
G75*
G02X3767240Y3511114I126345J-36240*
G01*
G75*
G02X4025680Y3477240I127000J-33874*
G01*
G75*
G02X3991322Y3388631I-131440*
G01*
X4056183Y3309315*
G75*
G02X4057760Y3307301I-46946J-38384*
G01*
Y3857760*
X2322480*
Y3737990*
G75*
G02X2277240Y3692750I-45240*
G01*
X2127240*
G75*
G02X2082000Y3737990J45240*
G01*
Y3857760*
X1362480*
Y3737990*
G75*
G02X1317240Y3692750I-45240*
G01*
X1167240*
G75*
G02X1122000Y3737990J45240*
G01*
Y3857760*
X964537*
Y3749125*
G75*
G02X923897Y3708485I-40640*
G01*
X172720*
Y3625172*
G36*
G75*
G02X175240Y3625230I2531J-55182*
G01*
X325240*
G75*
G02X380480Y3569990J-55240*
G01*
Y3525647*
X440705Y3465423*
G75*
G02X457880Y3423958I-41465J-41465*
G01*
Y2970530*
X470404Y2958006*
G75*
G02X469250Y2969240I54086J11232*
G01*
Y3119240*
G75*
G02X508919Y3172240I55240*
G01*
G75*
G02X469250Y3225240I15571J53000*
G01*
Y3375240*
G75*
G02X524490Y3430480I55240*
G01*
X582116*
X639058Y3487422*
G75*
G02X680240Y3504480I41182J-41182*
G01*
X929240*
G75*
G02X970422Y3487422J-58240*
G01*
X1021422Y3436422*
G75*
G02X1038480Y3395240I-41182J-41182*
G01*
Y3375230*
X1127507*
G75*
G02X1291186Y3281352I75358J-58240*
G01*
G75*
G02X1330932Y3304984I39746J-21608*
G01*
X1528932*
G75*
G02X1574172Y3259744J-45240*
G01*
Y3203744*
G75*
G02X1564332Y3175575I-45240*
G01*
G75*
G02X1575348Y3163252I-35212J-42563*
G01*
X1623888*
X1642000Y3181364*
Y3276116*
X1475799Y3442317*
G75*
G02X1459119Y3476876I41182J41182*
G01*
X1421981*
G75*
G02X1372411Y3507738J55240*
G01*
G75*
G02X1317240Y3455250I-55171J2752*
G01*
X1167240*
G75*
G02X1112000Y3510490J55240*
G01*
Y3630490*
G75*
G02X1167240Y3685730I55240*
G01*
X1317240*
G75*
G02X1366741Y3655008J-55240*
G01*
Y3772116*
G75*
G02X1421981Y3827356I55240*
G01*
X1611981*
G75*
G02X1667221Y3772116J-55240*
G01*
Y3532116*
G75*
G02X1611981Y3476876I-55240*
G01*
X1605968*
X1722621Y3360223*
X1839274Y3476876*
X1832003*
G75*
G02X1776763Y3532116J55240*
G01*
Y3772116*
G75*
G02X1832003Y3827356I55240*
G01*
X2022003*
G75*
G02X2077243Y3772116J-55240*
G01*
Y3653980*
G75*
G02X2127240Y3685730I49997J-23490*
G01*
X2277240*
G75*
G02X2332480Y3630490J-55240*
G01*
Y3546542*
G75*
G02X2410192Y3577856I70824J-63677*
G01*
G75*
G02X2410188Y3578678I95235J874*
G01*
G75*
G02X2559250Y3657252I95240*
G01*
Y3663240*
G75*
G02X2604490Y3708480I45240*
G01*
X2724490*
G75*
G02X2769730Y3663240J-45240*
G01*
Y3513240*
G75*
G02X2724490Y3468000I-45240*
G01*
X2604490*
G75*
G02X2560871Y3501239J45240*
G01*
G75*
G02X2498539Y3483687I-55443J77439*
G01*
G75*
G02X2498543Y3482865I-95235J-874*
G01*
G75*
G02X2497771Y3470761I-95240J-2*
G01*
X2548422Y3420110*
G75*
G02X2565480Y3378928I-41182J-41182*
G01*
Y3345048*
G75*
G02X2751240Y3269725I58760J-121808*
G01*
G75*
G02X2920838Y3351596I127000J-46485*
G01*
X3005765Y3436523*
X2977857Y3464431*
G75*
G02X2951990Y3458000I-25868J48809*
G01*
X2831990*
G75*
G02X2776750Y3513240J55240*
G01*
Y3663240*
G75*
G02X2831990Y3718480I55240*
G01*
X2951990*
G75*
G02X3007230Y3663240J-55240*
G01*
Y3605442*
X3099192Y3513480*
X3513895*
G75*
G02X3767240Y3511114I126345J-36240*
G01*
G75*
G02X4025680Y3477240I127000J-33874*
G01*
G75*
G02X3991322Y3388631I-131440*
G01*
X4056183Y3309315*
G75*
G02X4057760Y3307301I-46946J-38384*
G01*
Y3857760*
X2322480*
Y3737990*
G75*
G02X2277240Y3692750I-45240*
G01*
X2127240*
G75*
G02X2082000Y3737990J45240*
G01*
Y3857760*
X1362480*
Y3737990*
G75*
G02X1317240Y3692750I-45240*
G01*
X1167240*
G75*
G02X1122000Y3737990J45240*
G01*
Y3857760*
X964537*
Y3749125*
G75*
G02X923897Y3708485I-40640*
G01*
X172720*
Y3625172*
G37*
X280848Y292290D02*
X298418Y274720D01*
X1666356*
X1679000Y287364*
Y299497*
G75*
G02X1481240Y368263I-70760J115251*
G01*
G75*
G02X1227240I-127000J46485*
G01*
G75*
G02X973240I-127000J46485*
G01*
G75*
G02X719240I-127000J46485*
G01*
G75*
G02X465240I-127000J46485*
G01*
G75*
G02X280848Y292290I-127000J46485*
G01*
G36*
X298418Y274720*
X1666356*
X1679000Y287364*
Y299497*
G75*
G02X1481240Y368263I-70760J115251*
G01*
G75*
G02X1227240I-127000J46485*
G01*
G75*
G02X973240I-127000J46485*
G01*
G75*
G02X719240I-127000J46485*
G01*
G75*
G02X465240I-127000J46485*
G01*
G75*
G02X280848Y292290I-127000J46485*
G01*
G37*
X435224Y1952360D02*
X681740D01*
G75*
G02X718205Y1939531I-1J-58240*
G01*
G75*
G02X903037Y1938480I92285J-23541*
G01*
X1045998*
G75*
G02X1037836Y1958842I49389J31614*
G01*
G75*
G02X885063Y2034740I-57533J75898*
G01*
G75*
G02X929386Y2115227I95240*
G01*
G75*
G02X920570Y2125125I66539J68141*
G01*
X839865*
G75*
G02X798683Y2142183J58240*
G01*
X717058Y2223808*
G75*
G02X707980Y2235565I41182J41182*
G01*
Y2034246*
G75*
G02X662740Y1989006I-45240*
G01*
X602740*
G75*
G02X576739Y1997225I1J45240*
G01*
G75*
G02X535740Y1979006I-40999J37021*
G01*
X475740*
G75*
G02X442240Y1990323J55240*
G01*
G75*
G02X436980Y1986770I-33499J43924*
G01*
Y1966554*
G75*
G02X435224Y1952360I-58240*
G01*
G36*
X681740*
G75*
G02X718205Y1939531I-1J-58240*
G01*
G75*
G02X903037Y1938480I92285J-23541*
G01*
X1045998*
G75*
G02X1037836Y1958842I49389J31614*
G01*
G75*
G02X885063Y2034740I-57533J75898*
G01*
G75*
G02X929386Y2115227I95240*
G01*
G75*
G02X920570Y2125125I66539J68141*
G01*
X839865*
G75*
G02X798683Y2142183J58240*
G01*
X717058Y2223808*
G75*
G02X707980Y2235565I41182J41182*
G01*
Y2034246*
G75*
G02X662740Y1989006I-45240*
G01*
X602740*
G75*
G02X576739Y1997225I1J45240*
G01*
G75*
G02X535740Y1979006I-40999J37021*
G01*
X475740*
G75*
G02X442240Y1990323J55240*
G01*
G75*
G02X436980Y1986770I-33499J43924*
G01*
Y1966554*
G75*
G02X435224Y1952360I-58240*
G01*
G37*
X816480Y2459730D02*
X965240D01*
G75*
G02X1010480Y2414490J-45240*
G01*
Y2294490*
G75*
G02X1007336Y2277919I-45240*
G01*
G75*
G02X1084538Y2218278I-11408J-94554*
G01*
Y2446513*
X1019487Y2511563*
G75*
G02X965240Y2466750I-54247J10427*
G01*
X816480*
Y2459730*
G36*
X965240*
G75*
G02X1010480Y2414490J-45240*
G01*
Y2294490*
G75*
G02X1007336Y2277919I-45240*
G01*
G75*
G02X1084538Y2218278I-11408J-94554*
G01*
Y2446513*
X1019487Y2511563*
G75*
G02X965240Y2466750I-54247J10427*
G01*
X816480*
Y2459730*
G37*
X966480Y971057D02*
G75*
G02X1031418Y800695I6698J-95004D01*
G01*
Y773876*
G75*
G02X1222112Y698087I68821J-104636*
G01*
G75*
G02X1249629Y754951I132128J-28848*
G01*
G75*
G02X1224308Y769808I15861J56039*
G01*
X1109052Y885064*
G75*
G02X1091994Y926246I41182J41182*
G01*
Y1008500*
X1040234*
G75*
G02X984994Y1063740J55240*
G01*
Y1123740*
G75*
G02X996311Y1157240I55240*
G01*
G75*
G02X992758Y1162500I43924J33499*
G01*
X966480*
Y971057*
G36*
G75*
G02X1031418Y800695I6698J-95004*
G01*
Y773876*
G75*
G02X1222112Y698087I68821J-104636*
G01*
G75*
G02X1249629Y754951I132128J-28848*
G01*
G75*
G02X1224308Y769808I15861J56039*
G01*
X1109052Y885064*
G75*
G02X1091994Y926246I41182J41182*
G01*
Y1008500*
X1040234*
G75*
G02X984994Y1063740J55240*
G01*
Y1123740*
G75*
G02X996311Y1157240I55240*
G01*
G75*
G02X992758Y1162500I43924J33499*
G01*
X966480*
Y971057*
G37*
X1039276Y3258750D02*
X1269705Y3028320D01*
G75*
G02X1277390Y3018839I-41465J-41465*
G01*
G75*
G02X1288797Y3041512I53730J-12826*
G01*
G75*
G02X1275880Y3077012I42323J35500*
G01*
Y3133012*
G75*
G02X1295682Y3175387I55240*
G01*
G75*
G02X1285692Y3203744I35250J28357*
G01*
Y3259744*
G75*
G02X1288323Y3274948I45240J1*
G01*
G75*
G02X1127507Y3258750I-85458J42042*
G01*
X1039276*
G36*
X1269705Y3028320*
G75*
G02X1277390Y3018839I-41465J-41465*
G01*
G75*
G02X1288797Y3041512I53730J-12826*
G01*
G75*
G02X1275880Y3077012I42323J35500*
G01*
Y3133012*
G75*
G02X1295682Y3175387I55240*
G01*
G75*
G02X1285692Y3203744I35250J28357*
G01*
Y3259744*
G75*
G02X1288323Y3274948I45240J1*
G01*
G75*
G02X1127507Y3258750I-85458J42042*
G01*
X1039276*
G37*
X1093240Y888240D02*
G75*
G03Y838240J-25000D01*
G01*
G75*
G03Y888240J25000*
G01*
G36*
G75*
G03Y838240J-25000*
G01*
G75*
G03Y888240J25000*
G01*
G37*
X1308388Y1875600D02*
G75*
G02X1315117Y1862480I-48399J-33108D01*
G01*
X1319990*
G75*
G02X1371622Y1826875J-55240*
G01*
G75*
G02X1483628Y1673009I52806J-79260*
G01*
Y1611912*
X1525270Y1570270*
G75*
G02X1542680Y1528240I-42030J-42031*
G01*
Y1417230*
X1573240*
G75*
G02X1628480Y1361990J-55240*
G01*
Y1241990*
G75*
G02X1585983Y1188240I-55240*
G01*
G75*
G02X1628480Y1134490I-12743J-53750*
G01*
Y1014490*
G75*
G02X1573240Y959250I-55240*
G01*
X1425480*
Y945740*
G75*
G02X1420072Y921230I-58240J-1*
G01*
X1554695*
G75*
G02X1725293Y862990I75358J-58240*
G01*
G75*
G02X1554695Y804750I-95240*
G01*
X1440197*
X1421828Y786381*
G75*
G02X1400047Y541994I-67588J-117140*
G01*
G75*
G02X1481240Y461233I-45807J-127246*
G01*
G75*
G02X1679000Y529999I127000J-46485*
G01*
Y593820*
G75*
G02X1642000Y669178I58240J75358*
G01*
G75*
G02X1832480I95240*
G01*
G75*
G02X1795480Y593820I-95240*
G01*
Y532362*
G75*
G02X1989240Y461233I66760J-117614*
G01*
G75*
G02X2243240I127000J-46485*
G01*
G75*
G02X2497240I127000J-46485*
G01*
G75*
G02X2751240I127000J-46485*
G01*
G75*
G02X3005240I127000J-46485*
G01*
G75*
G02X3259240I127000J-46485*
G01*
G75*
G02X3513240I127000J-46485*
G01*
G75*
G02X3683866Y542758I127000J-46485*
G01*
X3522808Y703816*
G75*
G02X3505750Y744998I41182J41182*
G01*
Y770000*
X3503990*
G75*
G02X3450240Y812497J55240*
G01*
G75*
G02X3396490Y770000I-53750J12743*
G01*
X3276490*
G75*
G02X3267372Y770758I2J55240*
G01*
X3224672Y728058*
G75*
G02X3183490Y711000I-41182J41182*
G01*
X1966553*
G75*
G02X1925371Y728058J58240*
G01*
X1892011Y761418*
G75*
G02X1766750Y851803I-30021J90385*
G01*
G75*
G02X1956744Y861413I95240*
G01*
X1990677Y827480*
X3159366*
X3221250Y889364*
Y975240*
G75*
G02X3276490Y1030480I55240*
G01*
X3396490*
G75*
G02X3450240Y987983J-55240*
G01*
G75*
G02X3503990Y1030480I53750J-12743*
G01*
X3623990*
G75*
G02X3679230Y975240J-55240*
G01*
Y825240*
G75*
G02X3623990Y770000I-55240*
G01*
X3622230*
Y769122*
X3849115Y542237*
G75*
G02X3952480Y292691I45125J-127489*
G01*
Y230240*
G75*
G02X3935422Y189058I-58240*
G01*
X3919084Y172720*
X4057760*
Y809330*
X4036643Y788213*
G75*
G02X3995178Y771038I-41465J41465*
G01*
X3888115*
G75*
G02X3846650Y788213J58640*
G01*
X3798529Y836334*
G75*
G02X3691688Y930865I-11601J94531*
G01*
G75*
G02X3866512Y983182I95240*
G01*
G75*
G02X3955760Y1032754I83666J-45504*
G01*
Y1480833*
X3798021Y1323094*
G75*
G02X3798793Y1310990I-94468J-12102*
G01*
G75*
G02X3608313I-95240*
G01*
G75*
G02X3715657Y1405458I95240*
G01*
X3741199Y1431000*
X3598364*
X3534922Y1367558*
G75*
G02X3510042Y1352828I-41182J41182*
G01*
Y1333740*
G75*
G02X3454802Y1278500I-55240*
G01*
X3334802*
G75*
G02X3279562Y1333740J55240*
G01*
Y1483740*
G75*
G02X3334802Y1538980I55240*
G01*
X3337687*
Y1539319*
G75*
G02X3306584Y1647670I58240J75358*
G01*
G75*
G02X3266934Y1653334I-6658J95007*
G01*
G75*
G02X3096569Y1588437I-95007J-6657*
G01*
X3094351*
G75*
G02X3039115Y1533875I-55236J678*
G01*
X3012377*
X3046110Y1500142*
G75*
G02X3062062Y1470256I-41182J-41182*
G01*
Y1483740*
G75*
G02X3107302Y1528980I45240*
G01*
X3227302*
G75*
G02X3272542Y1483740J-45240*
G01*
Y1333740*
G75*
G02X3227302Y1288500I-45240*
G01*
X3107302*
G75*
G02X3063168Y1323798J45240*
G01*
Y1187853*
X3066987Y1191672*
G75*
G02X3108169Y1208730I41182J-41182*
G01*
X3780507*
G75*
G02X3951105Y1150490I75358J-58240*
G01*
G75*
G02X3780507Y1092250I-95240*
G01*
X3132293*
X2944101Y904058*
G75*
G02X2902919Y887000I-41182J41182*
G01*
X2616708*
G75*
G02X2575526Y904058J58240*
G01*
X2536806Y942778*
G75*
G02X2371000Y1006740I-70566J63962*
G01*
G75*
G02X2504000Y1094175I95240*
G01*
Y1132000*
G75*
G02X2503990I-5J45257*
G01*
X2383990*
G75*
G02X2338750Y1177240J45240*
G01*
Y1320000*
X2331730*
Y1177240*
G75*
G02X2276490Y1122000I-55240*
G01*
X2156490*
G75*
G02X2101250Y1177240J55240*
G01*
Y1194000*
X2073240*
G75*
G02X2032058Y1211058J58240*
G01*
X2012480Y1230636*
Y1142490*
G75*
G02X1979054Y1091740I-55240*
G01*
X2087126Y983668*
X2126882*
G75*
G02X2297480Y925428I75358J-58240*
G01*
G75*
G02X2126882Y867188I-95240*
G01*
X2063002*
G75*
G02X2021820Y884246J58240*
G01*
X1841058Y1065008*
G75*
G02X1827166Y1087250I41182J41181*
G01*
X1807240*
G75*
G02X1752000Y1142490J55240*
G01*
Y1262490*
G75*
G02X1794497Y1316240I55240*
G01*
G75*
G02X1752000Y1369990I12743J53750*
G01*
Y1489990*
G75*
G02X1784297Y1540240I55240*
G01*
G75*
G02X1752000Y1590490I22943J50250*
G01*
Y1594072*
G75*
G02X1726525Y1609025I15990J56418*
G01*
X1698775Y1636775*
G75*
G02X1681600Y1678240I41465J41465*
G01*
Y1861950*
X1667950Y1875600*
X1308388*
X3804375Y673365D02*
G75*
G02X3994855I95240D01*
G01*
G75*
G02X3804375I-95240*
G01*
X3717987D02*
G36*
X3849115Y542237D01*
G75*
G02X3952480Y292691I45125J-127489*
G01*
Y230240*
G75*
G02X3935422Y189058I-58240*
G01*
X3919084Y172720*
X4057760*
Y673365*
X3994855*
G75*
G02X3804375I-95240*
G01*
X3717987*
G37*
G36*
X3849115Y542237*
G75*
G02X3952480Y292691I45125J-127489*
G01*
Y230240*
G75*
G02X3935422Y189058I-58240*
G01*
X3919084Y172720*
X4057760*
Y673365*
X3994855*
G75*
G02X3804375I-95240*
G01*
X3717987*
G37*
X3804375D02*
G36*
G75*
G02X3994855I95240D01*
G01*
X4057760*
Y809330*
X4036643Y788213*
G75*
G02X3995178Y771038I-41465J41465*
G01*
X3888115*
G75*
G02X3846650Y788213J58640*
G01*
X3798529Y836334*
G75*
G02X3691688Y930865I-11601J94531*
G01*
G75*
G02X3866512Y983182I95240*
G01*
G75*
G02X3955760Y1032754I83666J-45504*
G01*
Y1480833*
X3798021Y1323094*
G75*
G02X3798793Y1310990I-94468J-12102*
G01*
G75*
G02X3608313I-95240*
G01*
G75*
G02X3715657Y1405458I95240*
G01*
X3741199Y1431000*
X3598364*
X3534922Y1367558*
G75*
G02X3510042Y1352828I-41182J41182*
G01*
Y1333740*
G75*
G02X3454802Y1278500I-55240*
G01*
X3334802*
G75*
G02X3279562Y1333740J55240*
G01*
Y1483740*
G75*
G02X3334802Y1538980I55240*
G01*
X3337687*
Y1539319*
G75*
G02X3306584Y1647670I58240J75358*
G01*
G75*
G02X3266934Y1653334I-6658J95007*
G01*
G75*
G02X3096569Y1588437I-95007J-6657*
G01*
X3094351*
G75*
G02X3039115Y1533875I-55236J678*
G01*
X3012377*
X3046110Y1500142*
G75*
G02X3062062Y1470256I-41182J-41182*
G01*
Y1483740*
G75*
G02X3107302Y1528980I45240*
G01*
X3227302*
G75*
G02X3272542Y1483740J-45240*
G01*
Y1333740*
G75*
G02X3227302Y1288500I-45240*
G01*
X3107302*
G75*
G02X3063168Y1323798J45240*
G01*
Y1187853*
X3066987Y1191672*
G75*
G02X3108169Y1208730I41182J-41182*
G01*
X3780507*
G75*
G02X3951105Y1150490I75358J-58240*
G01*
G75*
G02X3780507Y1092250I-95240*
G01*
X3132293*
X2944101Y904058*
G75*
G02X2902919Y887000I-41182J41182*
G01*
X2616708*
G75*
G02X2575526Y904058J58240*
G01*
X2536806Y942778*
G75*
G02X2371000Y1006740I-70566J63962*
G01*
G75*
G02X2504000Y1094175I95240*
G01*
Y1132000*
X2383990*
G75*
G02X2338750Y1177240J45240*
G01*
Y1320000*
X2331730*
Y1177240*
G75*
G02X2276490Y1122000I-55240*
G01*
X2156490*
G75*
G02X2101250Y1177240J55240*
G01*
Y1194000*
X2073240*
G75*
G02X2032058Y1211058J58240*
G01*
X2012480Y1230636*
Y1142490*
G75*
G02X1979054Y1091740I-55240*
G01*
X2087126Y983668*
X2126882*
G75*
G02X2297480Y925428I75358J-58240*
G01*
G75*
G02X2126882Y867188I-95240*
G01*
X2063002*
G75*
G02X2021820Y884246J58240*
G01*
X1841058Y1065008*
G75*
G02X1827166Y1087250I41182J41181*
G01*
X1807240*
G75*
G02X1752000Y1142490J55240*
G01*
Y1262490*
G75*
G02X1794497Y1316240I55240*
G01*
G75*
G02X1752000Y1369990I12743J53750*
G01*
Y1489990*
G75*
G02X1784297Y1540240I55240*
G01*
G75*
G02X1752000Y1590490I22943J50250*
G01*
Y1594072*
G75*
G02X1726525Y1609025I15990J56418*
G01*
X1698775Y1636775*
G75*
G02X1681600Y1678240I41465J41465*
G01*
Y1861950*
X1667950Y1875600*
X1308388*
G75*
G02X1315117Y1862480I-48399J-33108*
G01*
X1319990*
G75*
G02X1371622Y1826875J-55240*
G01*
G75*
G02X1483628Y1673009I52806J-79260*
G01*
Y1611912*
X1525270Y1570270*
G75*
G02X1542680Y1528240I-42030J-42031*
G01*
Y1417230*
X1573240*
G75*
G02X1628480Y1361990J-55240*
G01*
Y1241990*
G75*
G02X1585983Y1188240I-55240*
G01*
G75*
G02X1628480Y1134490I-12743J-53750*
G01*
Y1014490*
G75*
G02X1573240Y959250I-55240*
G01*
X1425480*
Y945740*
G75*
G02X1420072Y921230I-58240J-1*
G01*
X1554695*
G75*
G02X1725293Y862990I75358J-58240*
G01*
G75*
G02X1554695Y804750I-95240*
G01*
X1440197*
X1421828Y786381*
G75*
G02X1400047Y541994I-67588J-117140*
G01*
G75*
G02X1481240Y461233I-45807J-127246*
G01*
G75*
G02X1679000Y529999I127000J-46485*
G01*
Y593820*
G75*
G02X1642000Y669178I58240J75358*
G01*
G75*
G02X1832480I95240*
G01*
G75*
G02X1795480Y593820I-95240*
G01*
Y532362*
G75*
G02X1989240Y461233I66760J-117614*
G01*
G75*
G02X2243240I127000J-46485*
G01*
G75*
G02X2497240I127000J-46485*
G01*
G75*
G02X2751240I127000J-46485*
G01*
G75*
G02X3005240I127000J-46485*
G01*
G75*
G02X3259240I127000J-46485*
G01*
G75*
G02X3513240I127000J-46485*
G01*
G75*
G02X3683866Y542758I127000J-46485*
G01*
X3522808Y703816*
G75*
G02X3505750Y744998I41182J41182*
G01*
Y770000*
X3503990*
G75*
G02X3450240Y812497J55240*
G01*
G75*
G02X3396490Y770000I-53750J12743*
G01*
X3276490*
G75*
G02X3267372Y770758I2J55240*
G01*
X3224672Y728058*
G75*
G02X3183490Y711000I-41182J41182*
G01*
X1966553*
G75*
G02X1925371Y728058J58240*
G01*
X1892011Y761418*
G75*
G02X1766750Y851803I-30021J90385*
G01*
G75*
G02X1956744Y861413I95240*
G01*
X1990677Y827480*
X3159366*
X3221250Y889364*
Y975240*
G75*
G02X3276490Y1030480I55240*
G01*
X3396490*
G75*
G02X3450240Y987983J-55240*
G01*
G75*
G02X3503990Y1030480I53750J-12743*
G01*
X3623990*
G75*
G02X3679230Y975240J-55240*
G01*
Y825240*
G75*
G02X3623990Y770000I-55240*
G01*
X3622230*
Y769122*
X3717987Y673365*
X3804375*
G37*
G36*
G75*
G02X3994855I95240*
G01*
X4057760*
Y809330*
X4036643Y788213*
G75*
G02X3995178Y771038I-41465J41465*
G01*
X3888115*
G75*
G02X3846650Y788213J58640*
G01*
X3798529Y836334*
G75*
G02X3691688Y930865I-11601J94531*
G01*
G75*
G02X3866512Y983182I95240*
G01*
G75*
G02X3955760Y1032754I83666J-45504*
G01*
Y1480833*
X3798021Y1323094*
G75*
G02X3798793Y1310990I-94468J-12102*
G01*
G75*
G02X3608313I-95240*
G01*
G75*
G02X3715657Y1405458I95240*
G01*
X3741199Y1431000*
X3598364*
X3534922Y1367558*
G75*
G02X3510042Y1352828I-41182J41182*
G01*
Y1333740*
G75*
G02X3454802Y1278500I-55240*
G01*
X3334802*
G75*
G02X3279562Y1333740J55240*
G01*
Y1483740*
G75*
G02X3334802Y1538980I55240*
G01*
X3337687*
Y1539319*
G75*
G02X3306584Y1647670I58240J75358*
G01*
G75*
G02X3266934Y1653334I-6658J95007*
G01*
G75*
G02X3096569Y1588437I-95007J-6657*
G01*
X3094351*
G75*
G02X3039115Y1533875I-55236J678*
G01*
X3012377*
X3046110Y1500142*
G75*
G02X3062062Y1470256I-41182J-41182*
G01*
Y1483740*
G75*
G02X3107302Y1528980I45240*
G01*
X3227302*
G75*
G02X3272542Y1483740J-45240*
G01*
Y1333740*
G75*
G02X3227302Y1288500I-45240*
G01*
X3107302*
G75*
G02X3063168Y1323798J45240*
G01*
Y1187853*
X3066987Y1191672*
G75*
G02X3108169Y1208730I41182J-41182*
G01*
X3780507*
G75*
G02X3951105Y1150490I75358J-58240*
G01*
G75*
G02X3780507Y1092250I-95240*
G01*
X3132293*
X2944101Y904058*
G75*
G02X2902919Y887000I-41182J41182*
G01*
X2616708*
G75*
G02X2575526Y904058J58240*
G01*
X2536806Y942778*
G75*
G02X2371000Y1006740I-70566J63962*
G01*
G75*
G02X2504000Y1094175I95240*
G01*
Y1132000*
X2383990*
G75*
G02X2338750Y1177240J45240*
G01*
Y1320000*
X2331730*
Y1177240*
G75*
G02X2276490Y1122000I-55240*
G01*
X2156490*
G75*
G02X2101250Y1177240J55240*
G01*
Y1194000*
X2073240*
G75*
G02X2032058Y1211058J58240*
G01*
X2012480Y1230636*
Y1142490*
G75*
G02X1979054Y1091740I-55240*
G01*
X2087126Y983668*
X2126882*
G75*
G02X2297480Y925428I75358J-58240*
G01*
G75*
G02X2126882Y867188I-95240*
G01*
X2063002*
G75*
G02X2021820Y884246J58240*
G01*
X1841058Y1065008*
G75*
G02X1827166Y1087250I41182J41181*
G01*
X1807240*
G75*
G02X1752000Y1142490J55240*
G01*
Y1262490*
G75*
G02X1794497Y1316240I55240*
G01*
G75*
G02X1752000Y1369990I12743J53750*
G01*
Y1489990*
G75*
G02X1784297Y1540240I55240*
G01*
G75*
G02X1752000Y1590490I22943J50250*
G01*
Y1594072*
G75*
G02X1726525Y1609025I15990J56418*
G01*
X1698775Y1636775*
G75*
G02X1681600Y1678240I41465J41465*
G01*
Y1861950*
X1667950Y1875600*
X1308388*
G75*
G02X1315117Y1862480I-48399J-33108*
G01*
X1319990*
G75*
G02X1371622Y1826875J-55240*
G01*
G75*
G02X1483628Y1673009I52806J-79260*
G01*
Y1611912*
X1525270Y1570270*
G75*
G02X1542680Y1528240I-42030J-42031*
G01*
Y1417230*
X1573240*
G75*
G02X1628480Y1361990J-55240*
G01*
Y1241990*
G75*
G02X1585983Y1188240I-55240*
G01*
G75*
G02X1628480Y1134490I-12743J-53750*
G01*
Y1014490*
G75*
G02X1573240Y959250I-55240*
G01*
X1425480*
Y945740*
G75*
G02X1420072Y921230I-58240J-1*
G01*
X1554695*
G75*
G02X1725293Y862990I75358J-58240*
G01*
G75*
G02X1554695Y804750I-95240*
G01*
X1440197*
X1421828Y786381*
G75*
G02X1400047Y541994I-67588J-117140*
G01*
G75*
G02X1481240Y461233I-45807J-127246*
G01*
G75*
G02X1679000Y529999I127000J-46485*
G01*
Y593820*
G75*
G02X1642000Y669178I58240J75358*
G01*
G75*
G02X1832480I95240*
G01*
G75*
G02X1795480Y593820I-95240*
G01*
Y532362*
G75*
G02X1989240Y461233I66760J-117614*
G01*
G75*
G02X2243240I127000J-46485*
G01*
G75*
G02X2497240I127000J-46485*
G01*
G75*
G02X2751240I127000J-46485*
G01*
G75*
G02X3005240I127000J-46485*
G01*
G75*
G02X3259240I127000J-46485*
G01*
G75*
G02X3513240I127000J-46485*
G01*
G75*
G02X3683866Y542758I127000J-46485*
G01*
X3522808Y703816*
G75*
G02X3505750Y744998I41182J41182*
G01*
Y770000*
X3503990*
G75*
G02X3450240Y812497J55240*
G01*
G75*
G02X3396490Y770000I-53750J12743*
G01*
X3276490*
G75*
G02X3267372Y770758I2J55240*
G01*
X3224672Y728058*
G75*
G02X3183490Y711000I-41182J41182*
G01*
X1966553*
G75*
G02X1925371Y728058J58240*
G01*
X1892011Y761418*
G75*
G02X1766750Y851803I-30021J90385*
G01*
G75*
G02X1956744Y861413I95240*
G01*
X1990677Y827480*
X3159366*
X3221250Y889364*
Y975240*
G75*
G02X3276490Y1030480I55240*
G01*
X3396490*
G75*
G02X3450240Y987983J-55240*
G01*
G75*
G02X3503990Y1030480I53750J-12743*
G01*
X3623990*
G75*
G02X3679230Y975240J-55240*
G01*
Y825240*
G75*
G02X3623990Y770000I-55240*
G01*
X3622230*
Y769122*
X3717987Y673365*
X3804375*
G37*
X1571443Y2914512D02*
G75*
G02X1578378Y2904015I-42323J-35500D01*
G01*
G75*
G02X1595422Y2892194I-24139J-53002*
G01*
X1708422Y2779194*
G75*
G02X1725480Y2738012I-41182J-41182*
G01*
Y2120364*
X1777364Y2068480*
X1852240*
G75*
G02X1893422Y2051422J-58240*
G01*
X1923422Y2021422*
G75*
G02X1939013Y1993230I-41182J-41182*
G01*
X1957240*
G75*
G02X1974000Y1990626J-55240*
G01*
Y2302294*
G75*
G02X1991058Y2343476I58240*
G01*
X2079000Y2431418*
Y2556240*
G75*
G02X2096058Y2597422I58240*
G01*
X2136830Y2638194*
G75*
G02X2178012Y2655252I41182J-41182*
G01*
X2189132*
G75*
G02X2193037Y2660512I46228J-30240*
G01*
G75*
G02X2180120Y2696012I42323J35500*
G01*
Y2752012*
G75*
G02X2193037Y2787512I55240*
G01*
G75*
G02X2180120Y2823012I42323J35500*
G01*
Y2879012*
G75*
G02X2193037Y2914512I55240*
G01*
G75*
G02X2189132Y2919772I42323J35500*
G01*
X2099336*
G75*
G02X2007203Y2884094I-75471J58093*
G01*
G75*
G02X1816750Y2886365I-95213J2271*
G01*
G75*
G02X1928652Y2980136I95240*
G01*
G75*
G02X2099109Y3036252I95213J-2271*
G01*
X2189132*
G75*
G02X2193037Y3041512I46228J-30240*
G01*
G75*
G02X2180120Y3077012I42323J35500*
G01*
Y3133012*
G75*
G02X2192655Y3168051I55240*
G01*
G75*
G02X2179575Y3203744I42160J35693*
G01*
Y3259744*
G75*
G02X2234815Y3314984I55240*
G01*
X2432815*
G75*
G02X2449000Y3312560I1J-55240*
G01*
Y3354804*
X2415407Y3388397*
G75*
G02X2309617Y3465733I-12104J94468*
G01*
G75*
G02X2277240Y3455250I-32377J44757*
G01*
X2127240*
G75*
G02X2072029Y3508689J55240*
G01*
G75*
G02X2022003Y3476876I-50026J23427*
G01*
X1984995*
G75*
G02X1968185Y3441059I-57992J5364*
G01*
X1804480Y3277354*
Y3138115*
G75*
G02X1787422Y3096933I-58240*
G01*
X1627319Y2936830*
G75*
G02X1586137Y2919772I-41182J41182*
G01*
X1575348*
G75*
G02X1571443Y2914512I-46228J30240*
G01*
G36*
G75*
G02X1578378Y2904015I-42323J-35500*
G01*
G75*
G02X1595422Y2892194I-24139J-53002*
G01*
X1708422Y2779194*
G75*
G02X1725480Y2738012I-41182J-41182*
G01*
Y2120364*
X1777364Y2068480*
X1852240*
G75*
G02X1893422Y2051422J-58240*
G01*
X1923422Y2021422*
G75*
G02X1939013Y1993230I-41182J-41182*
G01*
X1957240*
G75*
G02X1974000Y1990626J-55240*
G01*
Y2302294*
G75*
G02X1991058Y2343476I58240*
G01*
X2079000Y2431418*
Y2556240*
G75*
G02X2096058Y2597422I58240*
G01*
X2136830Y2638194*
G75*
G02X2178012Y2655252I41182J-41182*
G01*
X2189132*
G75*
G02X2193037Y2660512I46228J-30240*
G01*
G75*
G02X2180120Y2696012I42323J35500*
G01*
Y2752012*
G75*
G02X2193037Y2787512I55240*
G01*
G75*
G02X2180120Y2823012I42323J35500*
G01*
Y2879012*
G75*
G02X2193037Y2914512I55240*
G01*
G75*
G02X2189132Y2919772I42323J35500*
G01*
X2099336*
G75*
G02X2007203Y2884094I-75471J58093*
G01*
G75*
G02X1816750Y2886365I-95213J2271*
G01*
G75*
G02X1928652Y2980136I95240*
G01*
G75*
G02X2099109Y3036252I95213J-2271*
G01*
X2189132*
G75*
G02X2193037Y3041512I46228J-30240*
G01*
G75*
G02X2180120Y3077012I42323J35500*
G01*
Y3133012*
G75*
G02X2192655Y3168051I55240*
G01*
G75*
G02X2179575Y3203744I42160J35693*
G01*
Y3259744*
G75*
G02X2234815Y3314984I55240*
G01*
X2432815*
G75*
G02X2449000Y3312560I1J-55240*
G01*
Y3354804*
X2415407Y3388397*
G75*
G02X2309617Y3465733I-12104J94468*
G01*
G75*
G02X2277240Y3455250I-32377J44757*
G01*
X2127240*
G75*
G02X2072029Y3508689J55240*
G01*
G75*
G02X2022003Y3476876I-50026J23427*
G01*
X1984995*
G75*
G02X1968185Y3441059I-57992J5364*
G01*
X1804480Y3277354*
Y3138115*
G75*
G02X1787422Y3096933I-58240*
G01*
X1627319Y2936830*
G75*
G02X1586137Y2919772I-41182J41182*
G01*
X1575348*
G75*
G02X1571443Y2914512I-46228J30240*
G01*
G37*
X1784147Y228720D02*
X3810356D01*
X3836000Y254364*
Y292691*
G75*
G02X3767240Y368263I58240J122057*
G01*
G75*
G02X3513240I-127000J46485*
G01*
G75*
G02X3259240I-127000J46485*
G01*
G75*
G02X3005240I-127000J46485*
G01*
G75*
G02X2751240I-127000J46485*
G01*
G75*
G02X2497240I-127000J46485*
G01*
G75*
G02X2243240I-127000J46485*
G01*
G75*
G02X1989240I-127000J46485*
G01*
G75*
G02X1795480Y297134I-127000J46485*
G01*
Y263240*
G75*
G02X1784147Y228720I-58240*
G01*
G36*
X3810356*
X3836000Y254364*
Y292691*
G75*
G02X3767240Y368263I58240J122057*
G01*
G75*
G02X3513240I-127000J46485*
G01*
G75*
G02X3259240I-127000J46485*
G01*
G75*
G02X3005240I-127000J46485*
G01*
G75*
G02X2751240I-127000J46485*
G01*
G75*
G02X2497240I-127000J46485*
G01*
G75*
G02X2243240I-127000J46485*
G01*
G75*
G02X1989240I-127000J46485*
G01*
G75*
G02X1795480Y297134I-127000J46485*
G01*
Y263240*
G75*
G02X1784147Y228720I-58240*
G01*
G37*
X2136480Y1634728D02*
G75*
G02X2156490Y1638480I20011J-51488D01*
G01*
X2276490*
G75*
G02X2330240Y1595983J-55240*
G01*
G75*
G02X2383990Y1638480I53750J-12743*
G01*
X2503990*
G75*
G02X2559230Y1583240J-55240*
G01*
Y1561310*
G75*
G02X2576422Y1549422I-23991J-53070*
G01*
X2653422Y1472422*
G75*
G02X2670480Y1431240I-41182J-41182*
G01*
Y1245164*
G75*
G02X2805605Y1158678I39885J-86486*
G01*
G75*
G02X2745244Y1070055I-95240*
G01*
G75*
G02X2749921Y1049949I-89878J-31504*
G01*
X2859585*
X2946688Y1137052*
Y1434836*
X2939804Y1441720*
X2848240*
G75*
G02X2807058Y1458778J58240*
G01*
X2782058Y1483778*
G75*
G02X2765000Y1524960I41182J41182*
G01*
Y1932116*
X2732224Y1964892*
X2651256*
X2601422Y1915058*
G75*
G02X2560240Y1898000I-41182J41182*
G01*
X2559230*
Y1881240*
G75*
G02X2503990Y1826000I-55240*
G01*
X2383990*
G75*
G02X2328750Y1881240J55240*
G01*
Y2031240*
G75*
G02X2334119Y2054997I55240J1*
G01*
X2293178Y2095938*
G75*
G02X2276282Y2132772I41182J41183*
G01*
X2235360*
G75*
G02X2180120Y2188012J55240*
G01*
Y2244012*
G75*
G02X2193037Y2279512I55240*
G01*
G75*
G02X2189132Y2284772I42323J35500*
G01*
X2162136*
X2136480Y2259116*
Y2071814*
G75*
G02X2156490Y2076480I20010J-40574*
G01*
X2276490*
G75*
G02X2321730Y2031240J-45240*
G01*
Y1881240*
G75*
G02X2276490Y1836000I-45240*
G01*
X2156490*
G75*
G02X2136480Y1840666J45240*
G01*
Y1634728*
G36*
G75*
G02X2156490Y1638480I20011J-51488*
G01*
X2276490*
G75*
G02X2330240Y1595983J-55240*
G01*
G75*
G02X2383990Y1638480I53750J-12743*
G01*
X2503990*
G75*
G02X2559230Y1583240J-55240*
G01*
Y1561310*
G75*
G02X2576422Y1549422I-23991J-53070*
G01*
X2653422Y1472422*
G75*
G02X2670480Y1431240I-41182J-41182*
G01*
Y1245164*
G75*
G02X2805605Y1158678I39885J-86486*
G01*
G75*
G02X2745244Y1070055I-95240*
G01*
G75*
G02X2749921Y1049949I-89878J-31504*
G01*
X2859585*
X2946688Y1137052*
Y1434836*
X2939804Y1441720*
X2848240*
G75*
G02X2807058Y1458778J58240*
G01*
X2782058Y1483778*
G75*
G02X2765000Y1524960I41182J41182*
G01*
Y1932116*
X2732224Y1964892*
X2651256*
X2601422Y1915058*
G75*
G02X2560240Y1898000I-41182J41182*
G01*
X2559230*
Y1881240*
G75*
G02X2503990Y1826000I-55240*
G01*
X2383990*
G75*
G02X2328750Y1881240J55240*
G01*
Y2031240*
G75*
G02X2334119Y2054997I55240J1*
G01*
X2293178Y2095938*
G75*
G02X2276282Y2132772I41182J41183*
G01*
X2235360*
G75*
G02X2180120Y2188012J55240*
G01*
Y2244012*
G75*
G02X2193037Y2279512I55240*
G01*
G75*
G02X2189132Y2284772I42323J35500*
G01*
X2162136*
X2136480Y2259116*
Y2071814*
G75*
G02X2156490Y2076480I20010J-40574*
G01*
X2276490*
G75*
G02X2321730Y2031240J-45240*
G01*
Y1881240*
G75*
G02X2276490Y1836000I-45240*
G01*
X2156490*
G75*
G02X2136480Y1840666J45240*
G01*
Y1634728*
G37*
X2791838Y2069310D02*
G75*
G02X2797530Y2064314I-35492J-46177D01*
G01*
X2864422Y1997422*
G75*
G02X2876399Y1980031I-41182J-41182*
G01*
G75*
G02X2889115Y1981855I12716J-43416*
G01*
X3039115*
G75*
G02X3084355Y1936615J-45240*
G01*
Y1816615*
G75*
G02X3039115Y1771375I-45240*
G01*
X2889115*
G75*
G02X2881480Y1772024J45240*
G01*
Y1763825*
G75*
G02X2889115Y1764355I7634J-54710*
G01*
X3039115*
G75*
G02X3094355Y1709115J-55240*
G01*
Y1704917*
X3096569*
G75*
G02X3204920Y1736020I75358J-58240*
G01*
G75*
G02X3210584Y1775670I95007J6658*
G01*
G75*
G02X3145687Y1946035I-6657J95007*
G01*
Y1953312*
X3142740*
G75*
G02X3087500Y2008552J55240*
G01*
Y2025312*
X3070928*
G75*
G02X3029746Y2042370J58240*
G01*
X3013116Y2059000*
X2839382*
G75*
G02X2798200Y2076058J58240*
G01*
X2796204Y2078054*
G75*
G02X2791838Y2069310I-87279J38118*
G01*
G36*
G75*
G02X2797530Y2064314I-35492J-46177*
G01*
X2864422Y1997422*
G75*
G02X2876399Y1980031I-41182J-41182*
G01*
G75*
G02X2889115Y1981855I12716J-43416*
G01*
X3039115*
G75*
G02X3084355Y1936615J-45240*
G01*
Y1816615*
G75*
G02X3039115Y1771375I-45240*
G01*
X2889115*
G75*
G02X2881480Y1772024J45240*
G01*
Y1763825*
G75*
G02X2889115Y1764355I7634J-54710*
G01*
X3039115*
G75*
G02X3094355Y1709115J-55240*
G01*
Y1704917*
X3096569*
G75*
G02X3204920Y1736020I75358J-58240*
G01*
G75*
G02X3210584Y1775670I95007J6658*
G01*
G75*
G02X3145687Y1946035I-6657J95007*
G01*
Y1953312*
X3142740*
G75*
G02X3087500Y2008552J55240*
G01*
Y2025312*
X3070928*
G75*
G02X3029746Y2042370J58240*
G01*
X3013116Y2059000*
X2839382*
G75*
G02X2798200Y2076058J58240*
G01*
X2796204Y2078054*
G75*
G02X2791838Y2069310I-87279J38118*
G01*
G37*
X3242897Y3145491D02*
G75*
G02X3253836Y3136836I-31657J-51251D01*
G01*
X3301836Y3088836*
G75*
G02X3313930Y3071496I-42596J-42596*
G01*
G75*
G02X3386240Y3094480I72310J-102256*
G01*
G75*
G02Y2844000J-125240*
G01*
G75*
G02X3319480Y2863277J125240*
G01*
Y2861942*
X3356192Y2825230*
X3461240*
G75*
G02X3514240Y2785561J-55240*
G01*
G75*
G02X3567240Y2825230I53000J-15571*
G01*
X3717240*
G75*
G02X3772476Y2770630J-55240*
G01*
X3772622*
X3845198Y2843206*
G75*
G02X3847755Y3096240I49042J126034*
G01*
G75*
G02X3761104Y3247000I46485J127000*
G01*
X3536240*
G75*
G02X3507493Y3254589J58240*
G01*
G75*
G02X3386240Y3098000I-121253J-31349*
G01*
G75*
G02X3264368Y3194393J125240*
G01*
G75*
G02X3242897Y3145491I-132128J28848*
G01*
G36*
G75*
G02X3253836Y3136836I-31657J-51251*
G01*
X3301836Y3088836*
G75*
G02X3313930Y3071496I-42596J-42596*
G01*
G75*
G02X3386240Y3094480I72310J-102256*
G01*
G75*
G02Y2844000J-125240*
G01*
G75*
G02X3319480Y2863277J125240*
G01*
Y2861942*
X3356192Y2825230*
X3461240*
G75*
G02X3514240Y2785561J-55240*
G01*
G75*
G02X3567240Y2825230I53000J-15571*
G01*
X3717240*
G75*
G02X3772476Y2770630J-55240*
G01*
X3772622*
X3845198Y2843206*
G75*
G02X3847755Y3096240I49042J126034*
G01*
G75*
G02X3761104Y3247000I46485J127000*
G01*
X3536240*
G75*
G02X3507493Y3254589J58240*
G01*
G75*
G02X3386240Y3098000I-121253J-31349*
G01*
G75*
G02X3264368Y3194393J125240*
G01*
G75*
G02X3242897Y3145491I-132128J28848*
G01*
G37*
X3262167Y1946035D02*
G75*
G02X3293270Y1837684I-58240J-75358D01*
G01*
G75*
G02X3332920Y1832020I6658J-95007*
G01*
G75*
G02X3502437Y1897997I95007J6657*
G01*
Y1904677*
G75*
G02X3557677Y1959917I55240*
G01*
X3707677*
G75*
G02X3762917Y1904677J-55240*
G01*
Y1902917*
X3863760*
Y2048809*
G75*
G02X3735967Y2094345I-41457J85744*
G01*
G75*
G02X3601824Y2170000I-39539J86645*
G01*
X3534008*
G75*
G02X3535480Y2158552I-43768J-11446*
G01*
Y2008552*
G75*
G02X3490240Y1963312I-45240*
G01*
X3370240*
G75*
G02X3325000Y2008552J45240*
G01*
Y2158552*
G75*
G02X3326472Y2170000I45240J2*
G01*
X3316781*
G75*
G02X3317980Y2158552I-54041J-11447*
G01*
Y2008552*
G75*
G02X3262740Y1953312I-55240*
G01*
X3262167*
Y1946035*
G36*
G75*
G02X3293270Y1837684I-58240J-75358*
G01*
G75*
G02X3332920Y1832020I6658J-95007*
G01*
G75*
G02X3502437Y1897997I95007J6657*
G01*
Y1904677*
G75*
G02X3557677Y1959917I55240*
G01*
X3707677*
G75*
G02X3762917Y1904677J-55240*
G01*
Y1902917*
X3863760*
Y2048809*
G75*
G02X3735967Y2094345I-41457J85744*
G01*
G75*
G02X3601824Y2170000I-39539J86645*
G01*
X3534008*
G75*
G02X3535480Y2158552I-43768J-11446*
G01*
Y2008552*
G75*
G02X3490240Y1963312I-45240*
G01*
X3370240*
G75*
G02X3325000Y2008552J45240*
G01*
Y2158552*
G75*
G02X3326472Y2170000I45240J2*
G01*
X3316781*
G75*
G02X3317980Y2158552I-54041J-11447*
G01*
Y2008552*
G75*
G02X3262740Y1953312I-55240*
G01*
X3262167*
Y1946035*
G37*
X3389270Y1709684D02*
G75*
G02X3454167Y1539319I6657J-95007D01*
G01*
Y1538980*
X3454802*
G75*
G02X3506317Y1503681J-55240*
G01*
X3526773Y1524137*
G75*
G02X3512437Y1557177I30904J33039*
G01*
Y1677177*
G75*
G02X3557677Y1722417I45240*
G01*
X3707677*
G75*
G02X3752917Y1677177J-45240*
G01*
Y1557177*
G75*
G02X3751866Y1547480I-45240J-2*
G01*
X3792625*
X3863760Y1618615*
Y1786437*
X3762917*
Y1784677*
G75*
G02X3707677Y1729437I-55240*
G01*
X3557677*
G75*
G02X3502667Y1779646J55240*
G01*
G75*
G02X3394934Y1749334I-74740J59031*
G01*
G75*
G02X3389270Y1709684I-95007J-6658*
G01*
G36*
G75*
G02X3454167Y1539319I6657J-95007*
G01*
Y1538980*
X3454802*
G75*
G02X3506317Y1503681J-55240*
G01*
X3526773Y1524137*
G75*
G02X3512437Y1557177I30904J33039*
G01*
Y1677177*
G75*
G02X3557677Y1722417I45240*
G01*
X3707677*
G75*
G02X3752917Y1677177J-45240*
G01*
Y1557177*
G75*
G02X3751866Y1547480I-45240J-2*
G01*
X3792625*
X3863760Y1618615*
Y1786437*
X3762917*
Y1784677*
G75*
G02X3707677Y1729437I-55240*
G01*
X3557677*
G75*
G02X3502667Y1779646J55240*
G01*
G75*
G02X3394934Y1749334I-74740J59031*
G01*
G75*
G02X3389270Y1709684I-95007J-6658*
G01*
G37*
X3729983Y2596240D02*
G75*
G02X3772480Y2542490I-12743J-53750D01*
G01*
Y2424880*
X3917310*
G75*
G02X3958775Y2407705J-58640*
G01*
X4057760Y2308720*
Y2885117*
G75*
G02X4052119Y2878611I-48521J36372*
G01*
X3840619Y2667111*
G75*
G02X3797740Y2649350I-42879J42879*
G01*
X3772476*
G75*
G02X3729983Y2596240I-55236J640*
G01*
G36*
G75*
G02X3772480Y2542490I-12743J-53750*
G01*
Y2424880*
X3917310*
G75*
G02X3958775Y2407705J-58640*
G01*
X4057760Y2308720*
Y2885117*
G75*
G02X4052119Y2878611I-48521J36372*
G01*
X3840619Y2667111*
G75*
G02X3797740Y2649350I-42879J42879*
G01*
X3772476*
G75*
G02X3729983Y2596240I-55236J640*
G01*
G37*
X3785240Y281240D02*
G75*
G03Y231240J-25000D01*
G01*
G75*
G03Y281240J25000*
G01*
G36*
G75*
G03Y231240J-25000*
G01*
G75*
G03Y281240J25000*
G01*
G37*
X4031240Y2596240D02*
G75*
G03Y2546240J-25000D01*
G01*
G75*
G03Y2596240J25000*
G01*
G36*
G75*
G03Y2546240J-25000*
G01*
G75*
G03Y2596240J25000*
G01*
G37*
D02*
D20*
X632740Y2049246D02*
Y1989006D01*
X647740Y2144246D02*
X707980D01*
X890240Y2399490D02*
Y2459730D01*
X932606Y2034740D02*
X885063D01*
X950240Y2354490D02*
X1010480D01*
X980303Y1987043D02*
Y1939500D01*
X1182240Y3797990D02*
X1122000D01*
X1242240Y3752990D02*
Y3692750D01*
X1302240Y3797990D02*
X1362480D01*
X1345932Y3231744D02*
X1285692D01*
X1429932Y3244744D02*
Y3304984D01*
X1513932Y3231744D02*
X1574172D01*
X1864293Y2886365D02*
X1816750D01*
X1911990Y2838668D02*
Y2791125D01*
Y2934062D02*
Y2981605D01*
X2142240Y3797990D02*
X2082000D01*
X2202240Y3752990D02*
Y3692750D01*
X2216490Y1896240D02*
Y1836000D01*
Y2016240D02*
Y2076480D01*
X2261490Y1956240D02*
X2321730D01*
X2262240Y3797990D02*
X2322480D01*
X2398990Y1252240D02*
X2338750D01*
X2418543Y1006740D02*
X2371000D01*
X2443990Y1192240D02*
Y1132000D01*
X2457731Y3578678D02*
X2410188D01*
X2466240Y959043D02*
Y911500D01*
Y1054437D02*
Y1101980D01*
X2505428Y3530981D02*
Y3483438D01*
Y3626375D02*
Y3673918D01*
X2664490Y3528240D02*
Y3468000D01*
Y3648240D02*
Y3708480D01*
X2709490Y3588240D02*
X2769730D01*
X2710365Y1206375D02*
Y1253918D01*
X2758062Y1158678D02*
X2805605D01*
X2891990Y3588240D02*
X2939240D01*
X3074240Y3453240*
X3585249*
X2924202Y3269202D02*
X3058241Y3403240D01*
X3506122*
X3556122Y3353240*
X3941928*
X4009240Y3270927*
Y2921490*
X3797740Y2709990*
X3642240*
X2964115Y1831615D02*
Y1771375D01*
Y1921615D02*
Y1981855D01*
X3024115Y1876615D02*
X3084355D01*
X3167302Y1348740D02*
Y1288500D01*
Y1468740D02*
Y1528980D01*
X3212302Y1408740D02*
X3272542D01*
X3252230Y1742677D02*
X3204687D01*
X3299927Y1694980D02*
Y1647437D01*
Y1790374D02*
Y1837917D01*
X3347624Y1742677D02*
X3395167D01*
X3385240Y2083552D02*
X3325000D01*
X3386240Y2482490D02*
X3642240D01*
X3386240Y2709990D02*
X3259240Y2836990D01*
Y3046240*
X3211240Y3094240*
X2753240*
X2670202Y3177278*
X3386240Y2890659D02*
Y2844000D01*
Y3047821D02*
Y3094480D01*
Y3144659D02*
Y3098000D01*
X3430240Y2023552D02*
Y1963312D01*
X3464821Y2969240D02*
X3511480D01*
X3464821Y3223240D02*
X3511480D01*
X3475240Y2083552D02*
X3535480D01*
X3572677Y1617177D02*
X3512437D01*
X3632677Y1662177D02*
Y1722417D01*
X3692677Y1617177D02*
X3752917D01*
X3851918Y673365D02*
X3804375D01*
X3899615Y625668D02*
Y578125D01*
Y721062D02*
Y768605D01*
X3947312Y673365D02*
X3994855D01*
D02*
D21*
X252865Y2862428D02*
Y2665359D01*
X251740Y2664234*
X252865Y2938428D02*
Y3279865D01*
X250240Y3282490*
X308646Y1220646D02*
Y928834D01*
X466240Y771240*
Y535221*
X386391Y455373*
X308646Y1220646D02*
Y1650834D01*
X390052Y1732240*
X520490*
X378740Y2144246D02*
Y1966554D01*
X216480Y1804294*
Y274294*
X274294Y216480*
X1690480*
X1737240Y263240*
Y631178*
X505240Y2414740D02*
X321740D01*
X252240Y2345240*
Y2144246*
X251740*
X505740D02*
Y2414240D01*
X505240Y2414740*
X584490Y3300240D02*
Y3350490D01*
X680240Y3446240*
X929240*
X980240Y3395240*
Y3316990*
X1164865*
X584490Y3300240D02*
Y3044240D01*
X630246Y1220740D02*
X308740D01*
X308646Y1220646*
X630246Y1347740D02*
Y1347240D01*
X775240*
X826740Y1295740*
Y1251115*
X862240Y1215615*
Y983294*
X608934Y729988*
X630246Y1474740D02*
X795740D01*
X805740Y1484740*
X891240Y1570240*
Y1676240*
X947240Y1732240*
X1032490*
X633240Y2853240D02*
X492240D01*
X399240Y2946240*
Y3423958*
X313207Y3509990*
X250240*
X633240Y2853240D02*
X632740Y2852740D01*
Y2664234*
X747990Y1732240D02*
Y1827870D01*
X681740Y1894120*
X372120*
X262646Y1784646*
Y909780*
X338240Y834186*
Y732240*
X758240Y2414740D02*
X505240D01*
X758240D02*
Y2560240D01*
X779990Y2581990*
X890240*
X758240Y2414740D02*
Y2264990D01*
X839865Y2183365*
X957928*
X801692Y459296D02*
X722240Y538748D01*
Y778240*
X908240Y964240*
Y1219240*
X837360Y1889120D02*
X846240Y1880240D01*
X1113240*
X1149240Y1916240*
X908240Y1219240D02*
X909740Y1220740D01*
X1150234*
X908240Y1219240D02*
Y1253460D01*
X942303Y2034740D02*
X842740D01*
X733234Y2144246*
X632740*
X1007173Y2061610D02*
X1096843Y2151280D01*
Y2208240*
Y2336302*
X1078655Y2354490*
X890240*
X1017764Y2860764D02*
X979287Y2899240D01*
X615240*
X584490Y2929990*
Y3044240*
X1017764Y2860764D02*
Y2863389D01*
X1059558Y2905183*
X1055692Y459296D02*
X973178Y541810D01*
Y838053*
X1099240Y862240D02*
X1113664D01*
X1227240Y748664*
Y669240*
X1125245Y2623673D02*
X1086428Y2662490D01*
Y2792099*
X1017764Y2860764*
X1149240Y1916240D02*
X1095387Y1970093D01*
Y2084387*
X1143178Y2132178*
Y2470803*
X1039240Y2574740*
Y2774240*
X960240Y2853240*
X633240*
X1150234Y1093740D02*
Y926246D01*
X1196240Y880240*
X1265490Y810990*
X1364073*
X1416073Y862990*
X1592053*
X1150234Y1220740D02*
X1313740D01*
X1367240Y1167240*
Y1075240*
X1150234Y1474740D02*
X1355079D01*
X1178985Y2569933D02*
X1189178Y2559740D01*
Y2113125*
X1160240Y2084187*
Y2083864*
X1142138Y2065762*
Y1989092*
X1196990Y1934240*
X1692240*
X1740240Y1886240*
Y1678240*
X1767990Y1650490*
X1882240*
X1227240Y669240D02*
X1163240D01*
X1242240Y3570490D02*
X1435355D01*
X1516981Y3652116*
X1242240Y3797990D02*
X1139933D01*
X1083183Y3741240*
X1083240Y3474240*
X1147240Y3410240*
X1360240*
X1429932Y3340548*
Y3231744*
X1242240Y3797990D02*
X1303490Y3859240D01*
X2140990*
X2202240Y3797990*
X1259990Y1732240D02*
X1275365Y1747615D01*
X1424188*
X1259990Y1732240D02*
Y1842490D01*
X1214239Y1888240*
X1177240*
X1149240Y1916240*
X1367240Y1075240D02*
X1367990Y1074490D01*
X1498240*
X1367240Y1075240D02*
Y945740D01*
X1352360Y930860*
X1421365Y2031865D02*
X1556865D01*
X1621240Y2096240*
Y2272240*
X1550468Y2343012*
X1430120*
X1424188Y1747615D02*
Y1587292D01*
X1483240Y1528240*
Y1317052*
X1498240Y1302052*
Y1301990*
X1430120Y2216012D02*
X1289240D01*
X1235178Y2161950*
Y2065615*
X1430120Y2597012D02*
X1285240D01*
X1182240Y2700012*
Y2967803*
X1105803Y3044240*
X811990*
X1430120Y2724012D02*
X1292468D01*
X1228240Y2788240*
Y2986855*
X914856Y3300240*
X811990*
X1498240Y1301990D02*
X1452490Y1347740D01*
X1150234*
X1516981Y3652116D02*
Y3483499D01*
X1700240Y3300240*
Y3157240*
X1648012Y3105012*
X1430120*
X1754240Y763622D02*
X1558622D01*
X1480240Y685240*
Y284240*
X1226115*
X1227240Y285365*
Y669240*
X1754240Y763622D02*
X1826374D01*
X1984756Y605240*
X3624694*
X3767240Y467240*
Y281240*
X3785240*
X1882240Y1650490D02*
Y1429990D01*
Y1877990D02*
Y1980240D01*
X1852240Y2010240*
X1753240*
X1667240Y2096240*
Y2738012*
X1554240Y2851012*
X1430120*
X1897505Y838288D02*
X1966553Y769240D01*
X3183490*
X3314490Y900240*
X3336490*
X1927003Y3652116D02*
Y3482241D01*
X1746240Y3301478*
Y3138115*
X1586137Y2978012*
X1430120*
X2032240Y1369240D02*
X2041240Y1378240D01*
X2535240*
X2562240Y1351240*
Y999708*
X2616708Y945240*
X2902919*
X3108169Y1150490*
X3817865*
X2032240Y1369240D02*
Y2302294D01*
X2137240Y2407294*
Y2556240*
X2178012Y2597012*
X2334360*
X2032240Y1369240D02*
Y1293240D01*
X2073240Y1252240*
X2216490*
X2061865Y2978012D02*
X2334360D01*
X2164240Y925428D02*
X2063002D01*
X1882240Y1106190*
Y1202490*
X2202240Y3570490D02*
X2008629D01*
X1927003Y3652116*
X2216490Y1508240D02*
X2139240D01*
X2078240Y1569240*
Y2283240*
X2138012Y2343012*
X2334360*
X2216490Y1956240D02*
Y1730365D01*
X2549781*
X2710365Y1569781*
Y1196678*
X2334360Y2724012D02*
X2476240D01*
X2547240Y2653012*
Y2539490*
X2876615Y2210115*
X3021061*
X3131186Y2320240*
X3898256*
X4014000Y2204496*
Y1001500*
X3977048Y964548*
X2334360Y2851012D02*
X2459240D01*
X2593240Y2717012*
Y2558756*
X2895882Y2256115*
X3002007*
X3112132Y2366240*
X3917310*
X4060000Y2223550*
Y894500*
X3995178Y829678*
X3888115*
X3813798Y903995*
X2443990Y1956240D02*
Y2027490D01*
X2334360Y2137120*
Y2216012*
X2463240Y832240D02*
X2055688D01*
X1896240Y991688*
X1804688*
X1754240Y941240*
Y763622*
X2463240Y832240D02*
X3028668D01*
X3283668Y1087240*
X3686240*
X2463240Y832240D02*
X2466240Y835240D01*
Y968740*
Y1044740D02*
Y1102240D01*
X2443990Y1124490*
Y1252240*
X2504240Y3797990D02*
X3955010D01*
X4059240Y3693760*
Y2598240*
X4036240Y2575240*
X4033240*
X2504240Y3797990D02*
X2505428Y3796802D01*
Y3616678*
X2504240Y3797990D02*
X2202240D01*
X2543428Y3578678D02*
X2654928D01*
X2664490Y3588240*
X2627132Y2023132D02*
X2756348D01*
X2823240Y1956240*
Y1524960*
X2848240Y1499960*
X2963928*
X3004928Y1458960*
Y1112928*
X2883709Y991709*
X2702209*
X2682235Y1011683*
X2627132Y2023132D02*
X2560240Y1956240D01*
X2443990*
X2628495Y1065423D02*
X2612240Y1081678D01*
Y1431240*
X2535240Y1508240*
X2443990*
X2820490Y2450053D02*
Y2396562D01*
X2914936Y2302115*
X2982953*
X3093078Y2412240*
X3242240*
X3312490Y2482490*
X3386240*
X2878240Y2837240D02*
Y2906240D01*
Y2837240D02*
X2593552D01*
X2507240Y2923552*
Y3378928*
X2430173Y3455995*
X2905490Y2704240D02*
X2820490Y2619240D01*
Y2526053*
X2905490Y2704240D02*
X2878240Y2731490D01*
Y2837240*
X2964115Y1649115D02*
X2966553Y1646677D01*
X3133927*
X2964115Y1876615D02*
Y2011365D01*
X2916240Y2059240*
X2806222*
X2749284Y2116178*
X2746928*
X2964115Y1876615D02*
X3095240D01*
Y1826240*
X3164610Y1756870*
X3264677*
X2977110Y2428860D02*
X3132990Y2584740D01*
Y2704240*
X3132240Y2704990*
Y2906240*
X3167302Y1408740D02*
Y1538490D01*
X3167240Y1538552*
X3216552*
X3283240Y1605240*
Y1643240*
Y1708537*
X3176788Y3267788D02*
X3264240Y3355240D01*
X3486240*
X3536240Y3305240*
X3812240*
X3849692Y3267788*
X3202740Y2083552D02*
X3070928D01*
X3037240Y2117240*
X2839382*
X2747444Y2209178*
X2670178*
X2615890Y2154890*
Y2022240*
X2616782Y2023132*
X2627132*
X3202740Y2083552D02*
X3203927Y2082365D01*
Y1908677*
X3318677Y1775729D02*
Y1882152D01*
X3330003Y1893478*
X3383486Y1946961*
X3429821*
X3430240Y1947381*
Y2083552*
X3332391Y1722927D02*
X3440654D01*
X3504240Y1659342*
Y1617177*
X3632677*
X3394802Y1408740D02*
X3395927Y1409865D01*
Y1576677*
X3632677Y1844677D02*
X3626677Y1838677D01*
X3465927*
X3669558Y2207860D02*
X3649178Y2228240D01*
X3267240*
X3202740Y2163740*
Y2083552*
X3686240Y1087240D02*
X3754240D01*
X3799138Y1042342*
X3885749*
X3949240Y1105833*
Y1195303*
X3886053Y1258490*
X3783789*
X3742539Y1217240*
X3244740*
X3167302Y1294678*
Y1408740*
X3686240Y1087240D02*
Y777240D01*
X3790115Y673365*
X3861615*
X3730423Y1337860D02*
X3968000Y1575437D01*
Y2185449*
X3879209Y2274240*
X3150240*
X3040117Y2164117*
X2857559*
X2551664Y2470012*
X2334360*
X3849692Y459296D02*
X3563990Y744998D01*
Y900240*
X3894240Y351748D02*
Y230240D01*
X3834480Y170480*
X255240*
X170480Y255240*
Y2329534*
X378740Y2537794*
Y2664234*
X3922000Y1844240D02*
Y2166395D01*
X3860155Y2228240*
X3743678*
X3723298Y2207860*
X3922000Y1844240D02*
Y1594491D01*
X3816749Y1489240*
X3574240*
X3493740Y1408740*
X3394802*
X3922000Y1844240D02*
X3921563Y1844677D01*
X3632677*
D02*
D25*
X250240Y3282490D03*
Y3509990D03*
X890240Y2354490D03*
Y2581990D03*
X1242240Y3570490D03*
Y3797990D03*
X1498240Y1074490D03*
Y1301990D03*
X1882240Y1202490D03*
Y1429990D03*
Y1650490D03*
Y1877990D03*
X2202240Y3570490D03*
Y3797990D03*
X2964115Y1649115D03*
Y1876615D03*
X3386240Y2482490D03*
Y2709990D03*
X3632677Y1617177D03*
Y1844677D03*
X3642240Y2482490D03*
Y2709990D03*
D02*
D26*
X520490Y1732240D03*
X584490Y3044240D03*
Y3300240D03*
X747990Y1732240D03*
X811990Y3044240D03*
Y3300240D03*
X1032490Y1732240D03*
X1259990D03*
X2216490Y1252240D03*
Y1508240D03*
Y1956240D03*
X2443990Y1252240D03*
Y1508240D03*
Y1956240D03*
X2664490Y3588240D03*
X2891990D03*
X2905490Y2704240D03*
X3132990D03*
X3167302Y1408740D03*
X3202740Y2083552D03*
X3336490Y900240D03*
X3394802Y1408740D03*
X3430240Y2083552D03*
X3563990Y900240D03*
D02*
D79*
X1429932Y3231744D03*
X1430120Y2216012D03*
Y2343012D03*
Y2470012D03*
Y2597012D03*
Y2724012D03*
Y2851012D03*
Y2978012D03*
Y3105012D03*
X2333815Y3231744D03*
X2334360Y2216012D03*
Y2343012D03*
Y2470012D03*
Y2597012D03*
Y2724012D03*
Y2851012D03*
Y2978012D03*
Y3105012D03*
D02*
D134*
X251740Y2144246D03*
Y2664234D03*
X378740Y2144246D03*
Y2664234D03*
X505740Y2144246D03*
Y2664234D03*
X632740Y2144246D03*
Y2664234D03*
D02*
D149*
X3640240Y3477240D03*
X3894240D03*
D02*
D150*
X338240Y669240D03*
X592240D03*
X846240D03*
X1100240D03*
X2624240Y2969240D03*
Y3223240D03*
X2878240Y2969240D03*
Y3223240D03*
X3132240Y2969240D03*
Y3223240D03*
X3386240Y2969240D03*
Y3223240D03*
D02*
D151*
X338240Y414748D03*
X592240D03*
X846240D03*
X1100240D03*
X1354240D03*
Y669240D03*
X1608240Y414748D03*
X1862240D03*
X2116240D03*
X2370240D03*
X2624240D03*
X2878240D03*
X3132240D03*
X3386240D03*
X3640240D03*
X3894240D03*
Y2969240D03*
Y3223240D03*
D02*
D162*
X630246Y1093740D03*
Y1220740D03*
Y1347740D03*
Y1474740D03*
X1150234Y1093740D03*
Y1220740D03*
Y1347740D03*
Y1474740D03*
D02*
D174*
X252865Y2900428D03*
X810490Y1915990D03*
X919740Y1289678D03*
X973178Y876053D03*
X980303Y2034740D03*
X995928Y2183365D03*
X1086428Y2932053D03*
X1152115Y2596803D03*
X1202865Y3316990D03*
X1235178Y2027615D03*
X1325490Y903990D03*
X1383365Y2031865D03*
X1390178Y1489303D03*
X1424428Y1747615D03*
X1630053Y862990D03*
X1737240Y669178D03*
X1861990Y851803D03*
X1911990Y2886365D03*
X2023865Y2977865D03*
X2202240Y925428D03*
X2403303Y3482865D03*
X2466240Y1006740D03*
X2505428Y3578678D03*
X2655365Y1038553D03*
X2708928Y2116178D03*
X2710365Y1158678D03*
X2820490Y2488053D03*
X2950240Y2401990D03*
X3171927Y1646677D03*
X3193553Y2506053D03*
X3203927Y1870677D03*
X3299927Y1742677D03*
X3395927Y1614677D03*
X3427927Y1838677D03*
X3696428Y2180990D03*
X3703553Y1310990D03*
X3786928Y930865D03*
X3822303Y2134553D03*
X3855865Y1150490D03*
X3899615Y673365D03*
X3950178Y937678D03*
D02*
D254*
X1516981Y3652116D03*
X1927003D03*
D02*
D285*
X916397Y3774272D02*
X916397Y3844860D01*
X857573*
X869338Y3809566D02*
X916397Y3809566D01*
Y3774272D02*
X857573Y3774272D01*
X776573Y3786037D02*
X782456Y3780154D01*
X794221Y3774272*
X811868*
X823632Y3780154*
X829515Y3786037*
X835397Y3797801*
Y3821331*
X829515Y3833096*
X823632Y3838978*
X811868Y3844860*
X794221*
X782456Y3838978*
X776573Y3833096*
X742632Y3774272D02*
X719103Y3774272D01*
X730868D02*
X730868Y3844860D01*
X742632Y3833096*
X674632Y3774272D02*
X651103Y3774272D01*
X662868D02*
X662868Y3844860D01*
X674632Y3833096*
X618397Y3797801D02*
X571338Y3797801D01*
X538632Y3774272D02*
X515103Y3774272D01*
X526868D02*
X526868Y3844860D01*
X538632Y3833096*
X476515Y3780154D02*
X464750Y3774272D01*
X452985*
X441221Y3780154*
X435338Y3791919*
Y3827213*
X441221Y3838978*
X452985Y3844860*
X464750*
X476515Y3838978*
X482397Y3827213*
Y3791919*
X476515Y3780154*
X441221Y3838978*
X408515Y3780154D02*
X396750Y3774272D01*
X384985*
X373221Y3780154*
X367338Y3791919*
Y3827213*
X373221Y3838978*
X384985Y3844860*
X396750*
X408515Y3838978*
X414397Y3827213*
Y3791919*
X408515Y3780154*
X373221Y3838978*
X303397Y3821331D02*
X279868Y3774272D01*
X256338Y3821331*
X188338Y3774272D02*
X235397Y3774272D01*
X194221Y3815449*
X188338Y3827213*
X194221Y3838978*
X205985Y3844860*
X223632*
X235397Y3838978*
X0Y0D02*
M02*
