G04 GENERATED BY PULSONIX 7.6 GERBER.DLL 5220*
%INSTM100_V2*%
%LNSOLDER MASK TOP*%
%FSLAX35Y35*%
%IPPOS*%
%LPD*%
%OFA0B0*%
%MOMM*%
%ADD92R,1.85400X1.85400*%
%ADD93R,1.75400X1.45400*%
%ADD94R,1.45400X1.75400*%
%ADD95R,1.75514X0.55372*%
%ADD96R,0.55372X1.75514*%
%ADD97R,2.95400X2.45400*%
%ADD98R,1.24460X1.57480*%
%ADD99C,1.77800*%
%ADD100R,1.85400X3.75400*%
%ADD101R,8.25400X7.25400*%
%ADD102R,2.45400X2.95400*%
%ADD103O,1.85400X1.85400*%
%ADD104O,1.85400X1.85400*%
%ADD107R,2.03200X1.52400*%
%ADD136R,0.85400X2.45400*%
%ADD255R,2.65400X2.15400*%
X0Y0D02*
D02*
D92*
X442011Y2211121D03*
X763480Y2212361D03*
X1625000Y3652119D03*
X1946469Y3653359D03*
D02*
D93*
X858240Y1490490D03*
Y1717990D03*
X1498240Y1042490D03*
Y1269990D03*
Y2450490D03*
Y2677990D03*
X1754240Y1042490D03*
Y1269990D03*
Y2450490D03*
Y2677990D03*
X2010240Y1042490D03*
Y1269990D03*
Y2450490D03*
Y2677990D03*
X2426240Y1202490D03*
Y1429990D03*
D02*
D94*
X296490Y1060240D03*
X523990D03*
X744490D03*
X971990D03*
X1512490Y2948240D03*
X1739990D03*
X2376490Y2308240D03*
X2398490Y2649240D03*
X2603990Y2308240D03*
X2625990Y2649240D03*
D02*
D95*
X2879124Y1469158D03*
Y1519196D03*
Y1569234D03*
Y1619272D03*
Y1669310D03*
Y1719348D03*
Y1769132D03*
Y1819170D03*
Y1869208D03*
Y1919246D03*
Y1969284D03*
Y2019322D03*
X3719356Y1469158D03*
Y1519196D03*
Y1569234D03*
Y1619272D03*
Y1669310D03*
Y1719348D03*
Y1769132D03*
Y1819170D03*
Y1869208D03*
Y1919246D03*
Y1969284D03*
Y2019322D03*
D02*
D96*
X3024158Y1324124D03*
Y2164356D03*
X3074196Y1324124D03*
Y2164356D03*
X3124234Y1324124D03*
Y2164356D03*
X3174272Y1324124D03*
Y2164356D03*
X3224310Y1324124D03*
Y2164356D03*
X3274348Y1324124D03*
Y2164356D03*
X3324132Y1324124D03*
Y2164356D03*
X3374170Y1324124D03*
Y2164356D03*
X3424208Y1324124D03*
Y2164356D03*
X3474246Y1324124D03*
Y2164356D03*
X3524284Y1324124D03*
Y2164356D03*
X3574322Y1324124D03*
Y2164356D03*
D02*
D97*
X474240Y1348240D03*
Y1919740D03*
D02*
D98*
X3585244Y2609764D03*
X3680240Y2406716D03*
X3775236Y2609764D03*
D02*
D99*
X3640240Y3477240D03*
X3894240D03*
D02*
D100*
X449240Y2644919D03*
X949240D03*
D02*
D101*
X693732Y3518991D03*
D02*
D102*
X1502740Y3300240D03*
X2074240D03*
D02*
D103*
X338240Y669240D03*
X592240D03*
X846240D03*
X1100240D03*
X2624240Y2969240D03*
Y3223240D03*
X2878240Y2969240D03*
Y3223240D03*
X3132240Y2969240D03*
Y3223240D03*
X3386240Y2969240D03*
Y3223240D03*
D02*
D104*
X338240Y414748D03*
X592240D03*
X846240D03*
X1100240D03*
X1354240D03*
Y669240D03*
X1608240Y414748D03*
X1862240D03*
X2116240D03*
X2370240D03*
X2624240D03*
X2878240D03*
X3132240D03*
X3386240D03*
X3640240D03*
X3894240D03*
Y2969240D03*
Y3223240D03*
D02*
D107*
X3362240Y2436240D03*
Y2756240D03*
D02*
D136*
X1627740Y1600246D03*
Y2120234D03*
X1754740Y1600246D03*
Y2120234D03*
X1881740Y1600246D03*
Y2120234D03*
X2008740Y1600246D03*
Y2120234D03*
D02*
D255*
X2362116Y1654981D03*
Y2065003D03*
X0Y0D02*
M02*
