G04 GERBER 5220*
%INB2*%
%LNSOLDER MASK TOP*%
%FSLAX35Y35*%
%IPPOS*%
%LPD*%
%OFA0B0*%
%MOMM*%
%ADD92R,1.85400X1.85400*%
%ADD93R,1.75400X1.45400*%
%ADD94R,1.45400X1.75400*%
%ADD97R,2.95400X2.45400*%
%ADD103O,1.85400X1.85400*%
%ADD104O,1.85400X1.85400*%
%ADD112R,0.75400X2.15400*%
%ADD114C,3.05400*%
%ADD178O,1.75514X1.75514*%
%ADD268R,1.52400X2.79400*%
%ADD270R,3.95400X5.75400*%
X0Y0D02*
D02*
D92*
X335683Y3204469D03*
X336923Y2883000D03*
D02*
D93*
X560802Y2386490D03*
Y2613990D03*
X592802Y2930490D03*
Y3157990D03*
X4640802Y2242490D03*
Y2469990D03*
D02*
D94*
X1183052Y2500240D03*
X1410552D03*
D02*
D97*
X373552Y6090865D03*
Y6634365D03*
Y6955365D03*
Y7498865D03*
Y7823365D03*
Y8394865D03*
D02*
D103*
X702677Y5118240D03*
Y5372240D03*
X956677Y5118240D03*
Y5372240D03*
X1210677Y5118240D03*
Y5372240D03*
X1464677Y5118240D03*
Y5372240D03*
X1718677D03*
X1972677D03*
X2226677D03*
X2480677D03*
X2734802D03*
X2988802D03*
X3242802D03*
X3496802D03*
D02*
D104*
X1718677Y5118240D03*
X2480677Y6931240D03*
Y7185240D03*
D02*
D112*
X947802Y2155240D03*
Y3165240D03*
X1201802Y2155240D03*
Y3165240D03*
X1455802Y2155240D03*
Y3165240D03*
X1709802Y2155240D03*
Y3165240D03*
D02*
D114*
X448677Y1779740D03*
X956677D03*
X1464677D03*
X1972677D03*
X2480677D03*
X2988677D03*
Y6931240D03*
X3496677Y1778417D03*
Y6931240D03*
X4004677Y1778417D03*
Y6931240D03*
X4512677Y1778417D03*
Y6931240D03*
D02*
D178*
X3750802Y5372240D03*
X4004802D03*
X4258802D03*
D02*
D268*
X981552Y6285365D03*
Y6920365D03*
X1781552Y6285365D03*
Y6920365D03*
D02*
D270*
X867552Y7786865D03*
X1927552D03*
X0Y0D02*
M02*
