G04 GENERATED BY PULSONIX 7.6 GERBER.DLL 5220*
%INB2*%
%LNSOLDER MASK BOTTOM*%
%FSLAX35Y35*%
%IPPOS*%
%LPD*%
%OFA0B0*%
%MOMM*%
%ADD93R,1.75400X1.45400*%
%ADD94R,1.45400X1.75400*%
%ADD98R,1.24460X1.57480*%
%ADD103O,1.85400X1.85400*%
%ADD104O,1.85400X1.85400*%
%ADD114C,3.05400*%
%ADD136R,0.85400X2.45400*%
%ADD178O,1.75514X1.75514*%
%ADD269R,0.81400X1.42400*%
%ADD271R,2.05400X1.65400*%
%ADD282R,3.40400X2.03400*%
X0Y0D02*
D02*
D93*
X1392802Y3682490D03*
Y3909990D03*
Y4194490D03*
Y4421990D03*
X2512802Y3682490D03*
Y3909990D03*
Y4194490D03*
Y4421990D03*
X3632802Y3682490D03*
Y3909990D03*
Y4194490D03*
Y4421990D03*
X4149552Y7673115D03*
Y7900615D03*
X4752802Y3602490D03*
Y3829990D03*
Y4194490D03*
Y4421990D03*
D02*
D94*
X607052Y3444240D03*
Y4660240D03*
X834552Y3444240D03*
Y4660240D03*
X899802Y6538865D03*
Y6858865D03*
Y7210865D03*
X1055052Y3444240D03*
Y4660240D03*
X1127302Y6538865D03*
Y6858865D03*
Y7210865D03*
X1282552Y3444240D03*
Y4660240D03*
X1379802Y6858865D03*
X1411802Y6442865D03*
X1607302Y6858865D03*
X1639302Y6442865D03*
X1727052Y3444240D03*
Y4660240D03*
X1954552Y3444240D03*
Y4660240D03*
X2175052Y3444240D03*
Y4660240D03*
X2402552Y3444240D03*
Y4660240D03*
X2847052Y3444240D03*
Y4660240D03*
X3074552Y3444240D03*
Y4660240D03*
X3295052Y3444240D03*
Y4660240D03*
X3522552Y3444240D03*
Y4660240D03*
X3967052Y3444240D03*
Y4660240D03*
X4194552Y3444240D03*
Y4660240D03*
X4255052Y1348240D03*
X4415052Y4660240D03*
X4482552Y1348240D03*
X4511052Y3364240D03*
X4642552Y4660240D03*
X4738552Y3364240D03*
D02*
D98*
X3158556Y7461341D03*
X3253552Y7664389D03*
X3348548Y7461341D03*
D02*
D103*
X702677Y5118240D03*
Y5372240D03*
X956677Y5118240D03*
Y5372240D03*
X1210677Y5118240D03*
Y5372240D03*
X1464677Y5118240D03*
Y5372240D03*
X1718677D03*
X1972677D03*
X2226677D03*
X2480677D03*
X2734802D03*
X2988802D03*
X3242802D03*
X3496802D03*
D02*
D104*
X1718677Y5118240D03*
X2480677Y6931240D03*
Y7185240D03*
D02*
D114*
X448677Y1779740D03*
X956677D03*
X1464677D03*
X1972677D03*
X2480677D03*
X2988677D03*
Y6931240D03*
X3496677Y1778417D03*
Y6931240D03*
X4004677Y1778417D03*
Y6931240D03*
X4512677Y1778417D03*
Y6931240D03*
D02*
D136*
X752364Y3793933D03*
Y4313921D03*
X879364Y3793933D03*
Y4313921D03*
X1006364Y3793933D03*
Y4313921D03*
X1133364Y3793933D03*
Y4313921D03*
X1874302Y3792246D03*
Y4312234D03*
X2001302Y3792246D03*
Y4312234D03*
X2128302Y3792246D03*
Y4312234D03*
X2255302Y3792246D03*
Y4312234D03*
X2994302Y3792246D03*
Y4312234D03*
X3121302Y3792246D03*
Y4312234D03*
X3248302Y3792246D03*
Y4312234D03*
X3375302Y3792246D03*
Y4312234D03*
X4114302Y3792246D03*
Y4312234D03*
X4241302Y3792246D03*
Y4312234D03*
X4368302Y3792246D03*
Y4312234D03*
X4495302Y3792246D03*
Y4312234D03*
D02*
D178*
X3750802Y5372240D03*
X4004802D03*
X4258802D03*
D02*
D269*
X951052Y7516605D03*
Y8121125D03*
X1078052Y7516605D03*
Y8121125D03*
X1205052Y7516605D03*
Y8121125D03*
X1332052Y7516605D03*
Y8121125D03*
D02*
D271*
X1813552Y7709265D03*
Y8056465D03*
D02*
D282*
X4501304Y7526912D03*
X4501552Y8049795D03*
X0Y0D02*
M02*
