G04 GENERATED BY PULSONIX 7.6 GERBER.DLL 5220*
%INB2*%
%LNTOP*%
%FSLAX35Y35*%
%IPPOS*%
%LPD*%
%OFA0B0*%
%MOMM*%
%ADD10C,0.30480*%
%ADD20C,0.30000*%
%ADD24R,1.60000X1.60000*%
%ADD25R,1.50000X1.20000*%
%ADD26R,1.20000X1.50000*%
%ADD29R,2.70000X2.20000*%
%ADD86R,0.50000X1.90000*%
%ADD132C,0.60000*%
%ADD146C,1.30000X0.70000*%
%ADD150O,1.60000X1.60000X1.00000*%
%ADD151O,1.60000X1.60000X1.00000*%
%ADD204O,1.50114X1.50114X0.90000*%
%ADD251C,2.80000X1.50000*%
%ADD263R,1.27000X2.54000*%
%ADD265R,3.70000X5.50000*%
X0Y0D02*
D02*
D10*
X2611552Y6884443D02*
G75*
G02X2622886Y6849271I-48906J-35172D01*
G01*
Y5710584*
G75*
G02X2605242Y5667988I-60240*
G01*
X2543680Y5606426*
G75*
G02X2501084Y5588782I-42596J42596*
G01*
X2395254*
X2287944Y5481472*
G75*
G02X2226677Y5247000I-61267J-109232*
G01*
G75*
G02X2119784Y5437500J125240*
G01*
X2079570*
G75*
G02X1972677Y5247000I-106893J-65260*
G01*
G75*
G02X1865784Y5437500J125240*
G01*
X1825570*
G75*
G02X1718677Y5247000I-106893J-65260*
G01*
G75*
G02X1611784Y5437500J125240*
G01*
X1571570*
G75*
G02X1464677Y5247000I-106893J-65260*
G01*
G75*
G02X1357784Y5437500J125240*
G01*
X1317570*
G75*
G02X1143542Y5266514I-106893J-65260*
G01*
Y5244865*
G75*
G02X1138405Y5220523I-60240*
G01*
G75*
G02X1210677Y5243480I72272J-102283*
G01*
G75*
G02Y4993000J-125240*
G01*
G75*
G02X1176071Y4997876J125240*
G01*
X1111869Y4933674*
G75*
G02X1068990Y4915913I-42879J42879*
G01*
X313005*
X233120Y4836026*
Y3323681*
G75*
G02X255683Y3329709I22563J-39212*
G01*
X415683*
G75*
G02X460923Y3284469J-45240*
G01*
Y3124469*
G75*
G02X415683Y3079229I-45240*
G01*
X255683*
G75*
G02X233120Y3085257J45240*
G01*
Y3001472*
G75*
G02X256923Y3008240I23803J-38472*
G01*
X416923*
G75*
G02X452668Y2990730J-45240*
G01*
X472563*
G75*
G02X517802Y3035730I45239J-240*
G01*
X667802*
G75*
G02X713042Y2990490J-45240*
G01*
Y2870490*
G75*
G02X667802Y2825250I-45240*
G01*
X517802*
G75*
G02X472563Y2870250J45240*
G01*
X462163*
Y2803000*
G75*
G02X416923Y2757760I-45240*
G01*
X256923*
G75*
G02X232720Y2764779I1J45240*
G01*
Y2634074*
G75*
G02X433441Y2674230I108395J-20084*
G01*
X440563*
G75*
G02X485802Y2719230I45239J-240*
G01*
X635802*
G75*
G02X681042Y2673990J-45240*
G01*
Y2553990*
G75*
G02X635802Y2508750I-45240*
G01*
X485802*
G75*
G02X440563Y2553750J45240*
G01*
X433441*
G75*
G02X232720Y2593906I-92326J60240*
G01*
Y2455880*
X473120Y2215480*
X877562*
Y2250240*
G75*
G02X887562Y2278609I45240*
G01*
Y2407552*
G75*
G02X905206Y2450148I60240*
G01*
X997894Y2542836*
G75*
G02X1040490Y2560480I42596J-42596*
G01*
X1077812*
Y2575240*
G75*
G02X1123052Y2620480I45240*
G01*
X1243052*
G75*
G02X1288292Y2575240J-45240*
G01*
Y2425240*
G75*
G02X1243052Y2380000I-45240*
G01*
X1123052*
G75*
G02X1077812Y2425240J45240*
G01*
Y2440000*
X1065442*
X1008042Y2382600*
Y2278609*
G75*
G02X1018042Y2250240I-35240J-28369*
G01*
Y2060240*
G75*
G02X972802Y2015000I-45240*
G01*
X922802*
G75*
G02X877562Y2060240J45240*
G01*
Y2095000*
X448168*
G75*
G02X405572Y2112644J60240*
G01*
X172720Y2345496*
Y172720*
X4848312*
X4848314Y1626746*
X4689367Y1467798*
G75*
G02X4646488Y1450037I-42879J42879*
G01*
X4428052*
G75*
G02X4385173Y1467798J60640*
G01*
X4327072Y1525899*
G75*
G02X4111875Y1559615I-104957J33716*
G01*
G75*
G02X4200711Y1667757I110240*
G01*
G75*
G02X4199787Y1678302I59716J10546*
G01*
Y3283622*
X3952071Y3531338*
G75*
G02X3827039Y3576375I-32706J105277*
G01*
X2878191*
G75*
G02X2846105Y3544289I-92326J60240*
G01*
Y2975115*
G75*
G02X2828461Y2932519I-60240*
G01*
X2686836Y2790894*
G75*
G02X2644240Y2773250I-42596J42596*
G01*
X1480754*
X1470792Y2763288*
Y2620479*
G75*
G02X1515792Y2575240I-240J-45239*
G01*
Y2425240*
G75*
G02X1470552Y2380000I-45240*
G01*
X1350552*
G75*
G02X1305312Y2425240J45240*
G01*
Y2575240*
G75*
G02X1350312Y2620479I45240*
G01*
Y2788240*
G75*
G02X1367956Y2830836I60240*
G01*
X1395562Y2858442*
Y3041871*
G75*
G02X1385562Y3070240I35240J28369*
G01*
Y3260240*
G75*
G02X1395562Y3288609I45240*
G01*
Y3351063*
X520927*
G75*
G02X478331Y3368707J60240*
G01*
X339644Y3507394*
G75*
G02X322000Y3549990I42596J42596*
G01*
Y3626140*
G75*
G02Y3645840I60240J9850*
G01*
Y4672289*
G75*
G02X272000Y4764615I60240J92326*
G01*
G75*
G02X492480I110240*
G01*
G75*
G02X442480Y4672289I-110240*
G01*
Y3696855*
X468539*
G75*
G02X485284Y3716867I92325J-60241*
G01*
G75*
G02X450562Y3797178I75518J80311*
G01*
G75*
G02X652865Y3857818I110240*
G01*
X1579780*
G75*
G02X1763601Y3858155I92022J-60703*
G01*
X1773143*
G75*
G02X1790587I8722J-61040*
G01*
X2100990*
G75*
G02X2144152Y3840277J-61040*
G01*
X2225839Y3758590*
G75*
G02X2243717Y3715428I-43162J-43162*
G01*
Y3061087*
X2303711Y3001093*
X2375957*
G75*
G02X2291125Y3108365I25408J107272*
G01*
G75*
G02X2511605I110240*
G01*
G75*
G02X2426773Y3001093I-110240*
G01*
X2491331*
X2544200Y3053962*
Y3745740*
G75*
G02X2562078Y3788902I61040*
G01*
X2613453Y3840277*
G75*
G02X2656615Y3858155I43162J-43162*
G01*
X2694066*
G75*
G02X2878191Y3857355I91799J-61040*
G01*
X3827039*
G75*
G02X4027343Y3774895I92326J-60240*
G01*
X4319912Y3482326*
Y3750753*
G75*
G02X4337673Y3793632I60640*
G01*
X4787912Y4243871*
Y4944305*
X4420617Y5311600*
X4362697*
G75*
G02X4258802Y5251943I-103895J60640*
G01*
G75*
G02Y5492537J120297*
G01*
G75*
G02X4362697Y5432880J-120297*
G01*
X4445735*
G75*
G02X4488614Y5415119J-60640*
G01*
X4848318Y5055415*
X4848322Y8537760*
X2611552*
Y6884443*
X263437Y1779740D02*
G75*
G02X633917I185240D01*
G01*
G75*
G02X263437I-185240*
G01*
X485017Y4388803D02*
G75*
G02X450625Y4468803I75848J80000D01*
G01*
G75*
G02X653191Y4529043I110240*
G01*
X1356036*
G75*
G02X1398632Y4511399J-60240*
G01*
X1567008Y4343023*
G75*
G02X1595954Y4388803I104795J-34219*
G01*
G75*
G02X1611562Y4561129I75848J80000*
G01*
Y5053344*
G75*
G02X1593437Y5118240I107115J64896*
G01*
G75*
G02X1843917I125240*
G01*
G75*
G02X1732042Y4993715I-125240*
G01*
Y4561129*
G75*
G02X1764128Y4529043I-60240J-92326*
G01*
X1771577*
G75*
G02X1791277I9850J-60240*
G01*
X2693539*
G75*
G02X2878191I92326J-60240*
G01*
X3827039*
G75*
G02X4011691I92326J-60240*
G01*
X4232225*
X4534672Y4831490*
G75*
G02X4532312Y4854178I107880J22688*
G01*
G75*
G02X4752792I110240*
G01*
G75*
G02X4619864Y4746298I-110240*
G01*
X4299773Y4426207*
G75*
G02X4257177Y4408563I-42596J42596*
G01*
X4011691*
G75*
G02X3827039I-92326J60240*
G01*
X2878191*
G75*
G02X2693539I-92326J60240*
G01*
X1842248*
Y4263375*
G75*
G02X1824604Y4220779I-60240*
G01*
X1759844Y4156019*
G75*
G02X1717248Y4138375I-42596J42596*
G01*
X1709160*
G75*
G02X1777605Y4036365I-41795J-102010*
G01*
G75*
G02X1557125I-110240*
G01*
G75*
G02X1625579Y4138378I110240*
G01*
G75*
G02X1583628Y4156019I646J60237*
G01*
X1331084Y4408563*
X653191*
G75*
G02X636713Y4388803I-92326J60240*
G01*
G75*
G02X671105Y4308803I-75848J-80000*
G01*
G75*
G02X450625I-110240*
G01*
G75*
G02X485017Y4388803I110240*
G01*
X485802Y2281250D02*
G75*
G02X440562Y2326490J45240D01*
G01*
Y2446490*
G75*
G02X485802Y2491730I45240*
G01*
X635802*
G75*
G02X681042Y2446490J-45240*
G01*
Y2326490*
G75*
G02X635802Y2281250I-45240*
G01*
X485802*
X517802Y3052750D02*
G75*
G02X472562Y3097990J45240D01*
G01*
Y3217990*
G75*
G02X517802Y3263230I45240*
G01*
X667802*
G75*
G02X713042Y3217990J-45240*
G01*
Y3097990*
G75*
G02X667802Y3052750I-45240*
G01*
X517802*
X771437Y1779740D02*
G75*
G02X1141917I185240D01*
G01*
G75*
G02X771437I-185240*
G01*
X961562Y2804428D02*
G75*
G02X1182042I110240D01*
G01*
G75*
G02X961562I-110240*
G01*
X1018042Y3070240D02*
G75*
G02X972802Y3025000I-45240D01*
G01*
X922802*
G75*
G02X877562Y3070240J45240*
G01*
Y3260240*
G75*
G02X922802Y3305480I45240*
G01*
X972802*
G75*
G02X1018042Y3260240J-45240*
G01*
Y3070240*
X1131562Y2250240D02*
G75*
G02X1176802Y2295480I45240D01*
G01*
X1226802*
G75*
G02X1272042Y2250240J-45240*
G01*
Y2060240*
G75*
G02X1226802Y2015000I-45240*
G01*
X1176802*
G75*
G02X1131562Y2060240J45240*
G01*
Y2250240*
X1272042Y3070240D02*
G75*
G02X1226802Y3025000I-45240D01*
G01*
X1176802*
G75*
G02X1131562Y3070240J45240*
G01*
Y3260240*
G75*
G02X1176802Y3305480I45240*
G01*
X1226802*
G75*
G02X1272042Y3260240J-45240*
G01*
Y3070240*
X1279437Y1779740D02*
G75*
G02X1649917I185240D01*
G01*
G75*
G02X1279437I-185240*
G01*
X1385562Y2250240D02*
G75*
G02X1430802Y2295480I45240D01*
G01*
X1480802*
G75*
G02X1526042Y2250240J-45240*
G01*
Y2060240*
G75*
G02X1480802Y2015000I-45240*
G01*
X1430802*
G75*
G02X1385562Y2060240J45240*
G01*
Y2250240*
X1464677Y4993000D02*
G75*
G02Y5243480J125240D01*
G01*
G75*
G02Y4993000J-125240*
G01*
X1639562Y2250240D02*
G75*
G02X1684802Y2295480I45240D01*
G01*
X1734802*
G75*
G02X1780042Y2250240J-45240*
G01*
Y2060240*
G75*
G02X1734802Y2015000I-45240*
G01*
X1684802*
G75*
G02X1639562Y2060240J45240*
G01*
Y2250240*
X1787437Y1779740D02*
G75*
G02X2157917I185240D01*
G01*
G75*
G02X1787437I-185240*
G01*
X2295437D02*
G75*
G02X2665917I185240D01*
G01*
G75*
G02X2295437I-185240*
G01*
X2480677Y5497480D02*
G75*
G02Y5247000J-125240D01*
G01*
G75*
G02Y5497480J125240*
G01*
X2698187Y7573428D02*
G75*
G02X2918667I110240D01*
G01*
G75*
G02X2698187I-110240*
G01*
X2734802Y5497480D02*
G75*
G02Y5247000J-125240D01*
G01*
G75*
G02Y5497480J125240*
G01*
X2800625Y6471990D02*
G75*
G02X3021105I110240D01*
G01*
G75*
G02X2800625I-110240*
G01*
X2803437Y1779740D02*
G75*
G02X3173917I185240D01*
G01*
G75*
G02X2803437I-185240*
G01*
X2988802Y5497480D02*
G75*
G02Y5247000J-125240D01*
G01*
G75*
G02Y5497480J125240*
G01*
X3173917Y6931240D02*
G75*
G02X2803437I-185240D01*
G01*
G75*
G02X3173917I185240*
G01*
X3242802Y5497480D02*
G75*
G02Y5247000J-125240D01*
G01*
G75*
G02Y5497480J125240*
G01*
X3256750Y6236240D02*
G75*
G02X3477230I110240D01*
G01*
G75*
G02X3256750I-110240*
G01*
X3311437Y1778417D02*
G75*
G02X3681917I185240D01*
G01*
G75*
G02X3311437I-185240*
G01*
X3496802Y5497480D02*
G75*
G02Y5247000J-125240D01*
G01*
G75*
G02Y5497480J125240*
G01*
X3681917Y6931240D02*
G75*
G02X3311437I-185240D01*
G01*
G75*
G02X3681917I185240*
G01*
X3750802Y5492537D02*
G75*
G02Y5251943J-120297D01*
G01*
G75*
G02Y5492537J120297*
G01*
X3819437Y1778417D02*
G75*
G02X4189917I185240D01*
G01*
G75*
G02X3819437I-185240*
G01*
X4004802Y5492537D02*
G75*
G02Y5251943J-120297D01*
G01*
G75*
G02Y5492537J120297*
G01*
X4189917Y6931240D02*
G75*
G02X3819437I-185240D01*
G01*
G75*
G02X4189917I185240*
G01*
X4697917D02*
G75*
G02X4327437I-185240D01*
G01*
G75*
G02X4697917I185240*
G01*
X172720Y1779740D02*
G36*
Y172720D01*
X4848312*
X4848314Y1626746*
X4689367Y1467798*
G75*
G02X4646488Y1450037I-42879J42879*
G01*
X4428052*
G75*
G02X4385173Y1467798J60640*
G01*
X4327072Y1525899*
G75*
G02X4111875Y1559615I-104957J33716*
G01*
G75*
G02X4200711Y1667757I110240*
G01*
G75*
G02X4199787Y1678302I59716J10546*
G01*
Y1779740*
X4189912*
G75*
G02X4189917Y1778417I-185233J-1362*
G01*
G75*
G02X3819437I-185240*
G01*
G75*
G02X3819442Y1779740I185238J-39*
G01*
X3681912*
G75*
G02X3681917Y1778417I-185233J-1362*
G01*
G75*
G02X3311437I-185240*
G01*
G75*
G02X3311442Y1779740I185238J-39*
G01*
X3173917*
G75*
G02X2803437I-185240*
G01*
X2665917*
G75*
G02X2295437I-185240*
G01*
X2157917*
G75*
G02X1787437I-185240*
G01*
X1649917*
G75*
G02X1279437I-185240*
G01*
X1141917*
G75*
G02X771437I-185240*
G01*
X633917*
G75*
G02X263437I-185240*
G01*
X172720*
G37*
G36*
Y172720*
X4848312*
X4848314Y1626746*
X4689367Y1467798*
G75*
G02X4646488Y1450037I-42879J42879*
G01*
X4428052*
G75*
G02X4385173Y1467798J60640*
G01*
X4327072Y1525899*
G75*
G02X4111875Y1559615I-104957J33716*
G01*
G75*
G02X4200711Y1667757I110240*
G01*
G75*
G02X4199787Y1678302I59716J10546*
G01*
Y1779740*
X4189912*
G75*
G02X4189917Y1778417I-185233J-1362*
G01*
G75*
G02X3819437I-185240*
G01*
G75*
G02X3819442Y1779740I185238J-39*
G01*
X3681912*
G75*
G02X3681917Y1778417I-185233J-1362*
G01*
G75*
G02X3311437I-185240*
G01*
G75*
G02X3311442Y1779740I185238J-39*
G01*
X3173917*
G75*
G02X2803437I-185240*
G01*
X2665917*
G75*
G02X2295437I-185240*
G01*
X2157917*
G75*
G02X1787437I-185240*
G01*
X1649917*
G75*
G02X1279437I-185240*
G01*
X1141917*
G75*
G02X771437I-185240*
G01*
X633917*
G75*
G02X263437I-185240*
G01*
X172720*
G37*
X263437D02*
G36*
G75*
G02X633917I185240D01*
G01*
X771437*
G75*
G02X1141917I185240*
G01*
X1279437*
G75*
G02X1649917I185240*
G01*
X1787437*
G75*
G02X2157917I185240*
G01*
X2295437*
G75*
G02X2665917I185240*
G01*
X2803437*
G75*
G02X3173917I185240*
G01*
X3311442*
G75*
G02X3681912I185235J-1323*
G01*
X3819442*
G75*
G02X4189912I185235J-1323*
G01*
X4199787*
Y2155240*
X1780042*
Y2060240*
G75*
G02X1734802Y2015000I-45240*
G01*
X1684802*
G75*
G02X1639562Y2060240J45240*
G01*
Y2155240*
X1526042*
Y2060240*
G75*
G02X1480802Y2015000I-45240*
G01*
X1430802*
G75*
G02X1385562Y2060240J45240*
G01*
Y2155240*
X1272042*
Y2060240*
G75*
G02X1226802Y2015000I-45240*
G01*
X1176802*
G75*
G02X1131562Y2060240J45240*
G01*
Y2155240*
X1018042*
Y2060240*
G75*
G02X972802Y2015000I-45240*
G01*
X922802*
G75*
G02X877562Y2060240J45240*
G01*
Y2095000*
X448168*
G75*
G02X405572Y2112644J60240*
G01*
X172720Y2345496*
Y1779740*
X263437*
G37*
G36*
G75*
G02X633917I185240*
G01*
X771437*
G75*
G02X1141917I185240*
G01*
X1279437*
G75*
G02X1649917I185240*
G01*
X1787437*
G75*
G02X2157917I185240*
G01*
X2295437*
G75*
G02X2665917I185240*
G01*
X2803437*
G75*
G02X3173917I185240*
G01*
X3311442*
G75*
G02X3681912I185235J-1323*
G01*
X3819442*
G75*
G02X4189912I185235J-1323*
G01*
X4199787*
Y2155240*
X1780042*
Y2060240*
G75*
G02X1734802Y2015000I-45240*
G01*
X1684802*
G75*
G02X1639562Y2060240J45240*
G01*
Y2155240*
X1526042*
Y2060240*
G75*
G02X1480802Y2015000I-45240*
G01*
X1430802*
G75*
G02X1385562Y2060240J45240*
G01*
Y2155240*
X1272042*
Y2060240*
G75*
G02X1226802Y2015000I-45240*
G01*
X1176802*
G75*
G02X1131562Y2060240J45240*
G01*
Y2155240*
X1018042*
Y2060240*
G75*
G02X972802Y2015000I-45240*
G01*
X922802*
G75*
G02X877562Y2060240J45240*
G01*
Y2095000*
X448168*
G75*
G02X405572Y2112644J60240*
G01*
X172720Y2345496*
Y1779740*
X263437*
G37*
X442480Y4584802D02*
G36*
Y3696855D01*
X468539*
G75*
G02X485284Y3716867I92325J-60241*
G01*
G75*
G02X450562Y3797178I75518J80311*
G01*
G75*
G02X652865Y3857818I110240*
G01*
X1579780*
G75*
G02X1763601Y3858155I92022J-60703*
G01*
X1773143*
G75*
G02X1790587I8722J-61040*
G01*
X2100990*
G75*
G02X2144152Y3840277J-61040*
G01*
X2225839Y3758590*
G75*
G02X2243717Y3715428I-43162J-43162*
G01*
Y3061087*
X2303711Y3001093*
X2375957*
G75*
G02X2291125Y3108365I25408J107272*
G01*
G75*
G02X2511605I110240*
G01*
G75*
G02X2426773Y3001093I-110240*
G01*
X2491331*
X2544200Y3053962*
Y3745740*
G75*
G02X2562078Y3788902I61040*
G01*
X2613453Y3840277*
G75*
G02X2656615Y3858155I43162J-43162*
G01*
X2694066*
G75*
G02X2878191Y3857355I91799J-61040*
G01*
X3827039*
G75*
G02X4027343Y3774895I92326J-60240*
G01*
X4319912Y3482326*
Y3750753*
G75*
G02X4337673Y3793632I60640*
G01*
X4787912Y4243871*
Y4584802*
X4458368*
X4299773Y4426207*
G75*
G02X4257177Y4408563I-42596J42596*
G01*
X4011691*
G75*
G02X3827039I-92326J60240*
G01*
X2878191*
G75*
G02X2693539I-92326J60240*
G01*
X1842248*
Y4263375*
G75*
G02X1824604Y4220779I-60240*
G01*
X1759844Y4156019*
G75*
G02X1717248Y4138375I-42596J42596*
G01*
X1709160*
G75*
G02X1777605Y4036365I-41795J-102010*
G01*
G75*
G02X1557125I-110240*
G01*
G75*
G02X1625579Y4138378I110240*
G01*
G75*
G02X1583628Y4156019I646J60237*
G01*
X1331084Y4408563*
X653191*
G75*
G02X636713Y4388803I-92326J60240*
G01*
G75*
G02X671105Y4308803I-75848J-80000*
G01*
G75*
G02X450625I-110240*
G01*
G75*
G02X485017Y4388803I110240*
G01*
G75*
G02X450625Y4468803I75848J80000*
G01*
G75*
G02X653191Y4529043I110240*
G01*
X1356036*
G75*
G02X1398632Y4511399J-60240*
G01*
X1567008Y4343023*
G75*
G02X1595954Y4388803I104795J-34219*
G01*
G75*
G02X1611562Y4561129I75848J80000*
G01*
Y4584802*
X442480*
G37*
G36*
Y3696855*
X468539*
G75*
G02X485284Y3716867I92325J-60241*
G01*
G75*
G02X450562Y3797178I75518J80311*
G01*
G75*
G02X652865Y3857818I110240*
G01*
X1579780*
G75*
G02X1763601Y3858155I92022J-60703*
G01*
X1773143*
G75*
G02X1790587I8722J-61040*
G01*
X2100990*
G75*
G02X2144152Y3840277J-61040*
G01*
X2225839Y3758590*
G75*
G02X2243717Y3715428I-43162J-43162*
G01*
Y3061087*
X2303711Y3001093*
X2375957*
G75*
G02X2291125Y3108365I25408J107272*
G01*
G75*
G02X2511605I110240*
G01*
G75*
G02X2426773Y3001093I-110240*
G01*
X2491331*
X2544200Y3053962*
Y3745740*
G75*
G02X2562078Y3788902I61040*
G01*
X2613453Y3840277*
G75*
G02X2656615Y3858155I43162J-43162*
G01*
X2694066*
G75*
G02X2878191Y3857355I91799J-61040*
G01*
X3827039*
G75*
G02X4027343Y3774895I92326J-60240*
G01*
X4319912Y3482326*
Y3750753*
G75*
G02X4337673Y3793632I60640*
G01*
X4787912Y4243871*
Y4584802*
X4458368*
X4299773Y4426207*
G75*
G02X4257177Y4408563I-42596J42596*
G01*
X4011691*
G75*
G02X3827039I-92326J60240*
G01*
X2878191*
G75*
G02X2693539I-92326J60240*
G01*
X1842248*
Y4263375*
G75*
G02X1824604Y4220779I-60240*
G01*
X1759844Y4156019*
G75*
G02X1717248Y4138375I-42596J42596*
G01*
X1709160*
G75*
G02X1777605Y4036365I-41795J-102010*
G01*
G75*
G02X1557125I-110240*
G01*
G75*
G02X1625579Y4138378I110240*
G01*
G75*
G02X1583628Y4156019I646J60237*
G01*
X1331084Y4408563*
X653191*
G75*
G02X636713Y4388803I-92326J60240*
G01*
G75*
G02X671105Y4308803I-75848J-80000*
G01*
G75*
G02X450625I-110240*
G01*
G75*
G02X485017Y4388803I110240*
G01*
G75*
G02X450625Y4468803I75848J80000*
G01*
G75*
G02X653191Y4529043I110240*
G01*
X1356036*
G75*
G02X1398632Y4511399J-60240*
G01*
X1567008Y4343023*
G75*
G02X1595954Y4388803I104795J-34219*
G01*
G75*
G02X1611562Y4561129I75848J80000*
G01*
Y4584802*
X442480*
G37*
X1611562D02*
G36*
Y5053344D01*
G75*
G02X1593437Y5118240I107115J64896*
G01*
X1589917*
G75*
G02X1464677Y4993000I-125240*
G01*
G75*
G02X1339437Y5118240J125240*
G01*
X1335917*
G75*
G02X1176071Y4997876I-125240*
G01*
X1111869Y4933674*
G75*
G02X1068990Y4915913I-42879J42879*
G01*
X313005*
X233120Y4836026*
Y3323681*
G75*
G02X255683Y3329709I22563J-39212*
G01*
X415683*
G75*
G02X460923Y3284469J-45240*
G01*
Y3157990*
X472562*
Y3217990*
G75*
G02X517802Y3263230I45240*
G01*
X667802*
G75*
G02X713042Y3217990J-45240*
G01*
Y3157990*
X877562*
Y3260240*
G75*
G02X922802Y3305480I45240*
G01*
X972802*
G75*
G02X1018042Y3260240J-45240*
G01*
Y3157990*
X1131562*
Y3260240*
G75*
G02X1176802Y3305480I45240*
G01*
X1226802*
G75*
G02X1272042Y3260240J-45240*
G01*
Y3157990*
X1385562*
Y3260240*
G75*
G02X1395562Y3288609I45240*
G01*
Y3351063*
X520927*
G75*
G02X478331Y3368707J60240*
G01*
X339644Y3507394*
G75*
G02X322000Y3549990I42596J42596*
G01*
Y3626140*
G75*
G02Y3645840I60240J9850*
G01*
Y4672289*
G75*
G02X272000Y4764615I60240J92326*
G01*
G75*
G02X492480I110240*
G01*
G75*
G02X442480Y4672289I-110240*
G01*
Y4584802*
X1611562*
G37*
G36*
Y5053344*
G75*
G02X1593437Y5118240I107115J64896*
G01*
X1589917*
G75*
G02X1464677Y4993000I-125240*
G01*
G75*
G02X1339437Y5118240J125240*
G01*
X1335917*
G75*
G02X1176071Y4997876I-125240*
G01*
X1111869Y4933674*
G75*
G02X1068990Y4915913I-42879J42879*
G01*
X313005*
X233120Y4836026*
Y3323681*
G75*
G02X255683Y3329709I22563J-39212*
G01*
X415683*
G75*
G02X460923Y3284469J-45240*
G01*
Y3157990*
X472562*
Y3217990*
G75*
G02X517802Y3263230I45240*
G01*
X667802*
G75*
G02X713042Y3217990J-45240*
G01*
Y3157990*
X877562*
Y3260240*
G75*
G02X922802Y3305480I45240*
G01*
X972802*
G75*
G02X1018042Y3260240J-45240*
G01*
Y3157990*
X1131562*
Y3260240*
G75*
G02X1176802Y3305480I45240*
G01*
X1226802*
G75*
G02X1272042Y3260240J-45240*
G01*
Y3157990*
X1385562*
Y3260240*
G75*
G02X1395562Y3288609I45240*
G01*
Y3351063*
X520927*
G75*
G02X478331Y3368707J60240*
G01*
X339644Y3507394*
G75*
G02X322000Y3549990I42596J42596*
G01*
Y3626140*
G75*
G02Y3645840I60240J9850*
G01*
Y4672289*
G75*
G02X272000Y4764615I60240J92326*
G01*
G75*
G02X492480I110240*
G01*
G75*
G02X442480Y4672289I-110240*
G01*
Y4584802*
X1611562*
G37*
X4787912D02*
G36*
Y4944305D01*
X4613977Y5118240*
X1843917*
G75*
G02X1732042Y4993715I-125240*
G01*
Y4561129*
G75*
G02X1764128Y4529043I-60240J-92326*
G01*
X1771577*
G75*
G02X1791277I9850J-60240*
G01*
X2693539*
G75*
G02X2878191I92326J-60240*
G01*
X3827039*
G75*
G02X4011691I92326J-60240*
G01*
X4232225*
X4534672Y4831490*
G75*
G02X4532312Y4854178I107880J22688*
G01*
G75*
G02X4752792I110240*
G01*
G75*
G02X4619864Y4746298I-110240*
G01*
X4458368Y4584802*
X4787912*
G37*
G36*
Y4944305*
X4613977Y5118240*
X1843917*
G75*
G02X1732042Y4993715I-125240*
G01*
Y4561129*
G75*
G02X1764128Y4529043I-60240J-92326*
G01*
X1771577*
G75*
G02X1791277I9850J-60240*
G01*
X2693539*
G75*
G02X2878191I92326J-60240*
G01*
X3827039*
G75*
G02X4011691I92326J-60240*
G01*
X4232225*
X4534672Y4831490*
G75*
G02X4532312Y4854178I107880J22688*
G01*
G75*
G02X4752792I110240*
G01*
G75*
G02X4619864Y4746298I-110240*
G01*
X4458368Y4584802*
X4787912*
G37*
X302110Y2386490D02*
G36*
X473120Y2215480D01*
X877562*
Y2250240*
G75*
G02X887562Y2278609I45240*
G01*
Y2386490*
X681042*
Y2326490*
G75*
G02X635802Y2281250I-45240*
G01*
X485802*
G75*
G02X440562Y2326490J45240*
G01*
Y2386490*
X302110*
G37*
G36*
X473120Y2215480*
X877562*
Y2250240*
G75*
G02X887562Y2278609I45240*
G01*
Y2386490*
X681042*
Y2326490*
G75*
G02X635802Y2281250I-45240*
G01*
X485802*
G75*
G02X440562Y2326490J45240*
G01*
Y2386490*
X302110*
G37*
X440562D02*
G36*
Y2446490D01*
G75*
G02X485802Y2491730I45240*
G01*
X635802*
G75*
G02X681042Y2446490J-45240*
G01*
Y2386490*
X887562*
Y2407552*
G75*
G02X905206Y2450148I60240*
G01*
X997894Y2542836*
G75*
G02X1040490Y2560480I42596J-42596*
G01*
X1077812*
Y2575240*
G75*
G02X1123052Y2620480I45240*
G01*
X1243052*
G75*
G02X1288292Y2575240J-45240*
G01*
Y2425240*
G75*
G02X1243052Y2380000I-45240*
G01*
X1123052*
G75*
G02X1077812Y2425240J45240*
G01*
Y2440000*
X1065442*
X1008042Y2382600*
Y2278609*
G75*
G02X1018042Y2250240I-35240J-28369*
G01*
Y2155240*
X1131562*
Y2250240*
G75*
G02X1176802Y2295480I45240*
G01*
X1226802*
G75*
G02X1272042Y2250240J-45240*
G01*
Y2155240*
X1385562*
Y2250240*
G75*
G02X1430802Y2295480I45240*
G01*
X1480802*
G75*
G02X1526042Y2250240J-45240*
G01*
Y2155240*
X1639562*
Y2250240*
G75*
G02X1684802Y2295480I45240*
G01*
X1734802*
G75*
G02X1780042Y2250240J-45240*
G01*
Y2155240*
X4199787*
Y3283622*
X3952071Y3531338*
G75*
G02X3827039Y3576375I-32706J105277*
G01*
X2878191*
G75*
G02X2846105Y3544289I-92326J60240*
G01*
Y2975115*
G75*
G02X2828461Y2932519I-60240*
G01*
X2686836Y2790894*
G75*
G02X2644240Y2773250I-42596J42596*
G01*
X1480754*
X1470792Y2763288*
Y2620479*
G75*
G02X1515792Y2575240I-240J-45239*
G01*
Y2425240*
G75*
G02X1470552Y2380000I-45240*
G01*
X1350552*
G75*
G02X1305312Y2425240J45240*
G01*
Y2575240*
G75*
G02X1350312Y2620479I45240*
G01*
Y2788240*
G75*
G02X1352528Y2804428I60240J-1*
G01*
X1182042*
G75*
G02X961562I-110240*
G01*
X462163*
Y2803000*
G75*
G02X416923Y2757760I-45240*
G01*
X256923*
G75*
G02X232720Y2764779I1J45240*
G01*
Y2634074*
G75*
G02X433441Y2674230I108395J-20084*
G01*
X440563*
G75*
G02X485802Y2719230I45239J-240*
G01*
X635802*
G75*
G02X681042Y2673990J-45240*
G01*
Y2553990*
G75*
G02X635802Y2508750I-45240*
G01*
X485802*
G75*
G02X440563Y2553750J45240*
G01*
X433441*
G75*
G02X232720Y2593906I-92326J60240*
G01*
Y2455880*
X302110Y2386490*
X440562*
G37*
G36*
Y2446490*
G75*
G02X485802Y2491730I45240*
G01*
X635802*
G75*
G02X681042Y2446490J-45240*
G01*
Y2386490*
X887562*
Y2407552*
G75*
G02X905206Y2450148I60240*
G01*
X997894Y2542836*
G75*
G02X1040490Y2560480I42596J-42596*
G01*
X1077812*
Y2575240*
G75*
G02X1123052Y2620480I45240*
G01*
X1243052*
G75*
G02X1288292Y2575240J-45240*
G01*
Y2425240*
G75*
G02X1243052Y2380000I-45240*
G01*
X1123052*
G75*
G02X1077812Y2425240J45240*
G01*
Y2440000*
X1065442*
X1008042Y2382600*
Y2278609*
G75*
G02X1018042Y2250240I-35240J-28369*
G01*
Y2155240*
X1131562*
Y2250240*
G75*
G02X1176802Y2295480I45240*
G01*
X1226802*
G75*
G02X1272042Y2250240J-45240*
G01*
Y2155240*
X1385562*
Y2250240*
G75*
G02X1430802Y2295480I45240*
G01*
X1480802*
G75*
G02X1526042Y2250240J-45240*
G01*
Y2155240*
X1639562*
Y2250240*
G75*
G02X1684802Y2295480I45240*
G01*
X1734802*
G75*
G02X1780042Y2250240J-45240*
G01*
Y2155240*
X4199787*
Y3283622*
X3952071Y3531338*
G75*
G02X3827039Y3576375I-32706J105277*
G01*
X2878191*
G75*
G02X2846105Y3544289I-92326J60240*
G01*
Y2975115*
G75*
G02X2828461Y2932519I-60240*
G01*
X2686836Y2790894*
G75*
G02X2644240Y2773250I-42596J42596*
G01*
X1480754*
X1470792Y2763288*
Y2620479*
G75*
G02X1515792Y2575240I-240J-45239*
G01*
Y2425240*
G75*
G02X1470552Y2380000I-45240*
G01*
X1350552*
G75*
G02X1305312Y2425240J45240*
G01*
Y2575240*
G75*
G02X1350312Y2620479I45240*
G01*
Y2788240*
G75*
G02X1352528Y2804428I60240J-1*
G01*
X1182042*
G75*
G02X961562I-110240*
G01*
X462163*
Y2803000*
G75*
G02X416923Y2757760I-45240*
G01*
X256923*
G75*
G02X232720Y2764779I1J45240*
G01*
Y2634074*
G75*
G02X433441Y2674230I108395J-20084*
G01*
X440563*
G75*
G02X485802Y2719230I45239J-240*
G01*
X635802*
G75*
G02X681042Y2673990J-45240*
G01*
Y2553990*
G75*
G02X635802Y2508750I-45240*
G01*
X485802*
G75*
G02X440563Y2553750J45240*
G01*
X433441*
G75*
G02X232720Y2593906I-92326J60240*
G01*
Y2455880*
X302110Y2386490*
X440562*
G37*
X460923Y3157990D02*
G36*
Y3124469D01*
G75*
G02X415683Y3079229I-45240*
G01*
X255683*
G75*
G02X233120Y3085257J45240*
G01*
Y3001472*
G75*
G02X256923Y3008240I23803J-38472*
G01*
X416923*
G75*
G02X452668Y2990730J-45240*
G01*
X472563*
G75*
G02X517802Y3035730I45239J-240*
G01*
X667802*
G75*
G02X713042Y2990490J-45240*
G01*
Y2870490*
G75*
G02X667802Y2825250I-45240*
G01*
X517802*
G75*
G02X472563Y2870250J45240*
G01*
X462163*
Y2804428*
X961562*
G75*
G02X1182042I110240*
G01*
X1352528*
G75*
G02X1367956Y2830836I58024J-16188*
G01*
X1395562Y2858442*
Y3041871*
G75*
G02X1385562Y3070240I35240J28369*
G01*
Y3157990*
X1272042*
Y3070240*
G75*
G02X1226802Y3025000I-45240*
G01*
X1176802*
G75*
G02X1131562Y3070240J45240*
G01*
Y3157990*
X1018042*
Y3070240*
G75*
G02X972802Y3025000I-45240*
G01*
X922802*
G75*
G02X877562Y3070240J45240*
G01*
Y3157990*
X713042*
Y3097990*
G75*
G02X667802Y3052750I-45240*
G01*
X517802*
G75*
G02X472562Y3097990J45240*
G01*
Y3157990*
X460923*
G37*
G36*
Y3124469*
G75*
G02X415683Y3079229I-45240*
G01*
X255683*
G75*
G02X233120Y3085257J45240*
G01*
Y3001472*
G75*
G02X256923Y3008240I23803J-38472*
G01*
X416923*
G75*
G02X452668Y2990730J-45240*
G01*
X472563*
G75*
G02X517802Y3035730I45239J-240*
G01*
X667802*
G75*
G02X713042Y2990490J-45240*
G01*
Y2870490*
G75*
G02X667802Y2825250I-45240*
G01*
X517802*
G75*
G02X472563Y2870250J45240*
G01*
X462163*
Y2804428*
X961562*
G75*
G02X1182042I110240*
G01*
X1352528*
G75*
G02X1367956Y2830836I58024J-16188*
G01*
X1395562Y2858442*
Y3041871*
G75*
G02X1385562Y3070240I35240J28369*
G01*
Y3157990*
X1272042*
Y3070240*
G75*
G02X1226802Y3025000I-45240*
G01*
X1176802*
G75*
G02X1131562Y3070240J45240*
G01*
Y3157990*
X1018042*
Y3070240*
G75*
G02X972802Y3025000I-45240*
G01*
X922802*
G75*
G02X877562Y3070240J45240*
G01*
Y3157990*
X713042*
Y3097990*
G75*
G02X667802Y3052750I-45240*
G01*
X517802*
G75*
G02X472562Y3097990J45240*
G01*
Y3157990*
X460923*
G37*
X1339437Y5118240D02*
G36*
G75*
G02X1464677Y5243480I125240D01*
G01*
G75*
G02X1589917Y5118240J-125240*
G01*
X1593437*
G75*
G02X1843917I125240*
G01*
X4613977*
X4420617Y5311600*
X4362697*
G75*
G02X4138505Y5372240I-103895J60640*
G01*
X4125099*
G75*
G02X4004802Y5251943I-120297*
G01*
G75*
G02X3884505Y5372240J120297*
G01*
X3871099*
G75*
G02X3750802Y5251943I-120297*
G01*
G75*
G02X3630505Y5372240J120297*
G01*
X3622042*
G75*
G02X3496802Y5247000I-125240*
G01*
G75*
G02X3371562Y5372240J125240*
G01*
X3368042*
G75*
G02X3242802Y5247000I-125240*
G01*
G75*
G02X3117562Y5372240J125240*
G01*
X3114042*
G75*
G02X2988802Y5247000I-125240*
G01*
G75*
G02X2863562Y5372240J125240*
G01*
X2860042*
G75*
G02X2734802Y5247000I-125240*
G01*
G75*
G02X2609562Y5372240J125240*
G01*
X2605917*
G75*
G02X2480677Y5247000I-125240*
G01*
G75*
G02X2355437Y5372240J125240*
G01*
X2351918*
G75*
G02X2226677Y5247000I-125241*
G01*
G75*
G02X2119784Y5437500J125240*
G01*
X2079570*
G75*
G02X1972677Y5247000I-106893J-65260*
G01*
G75*
G02X1865784Y5437500J125240*
G01*
X1825570*
G75*
G02X1718677Y5247000I-106893J-65260*
G01*
G75*
G02X1611784Y5437500J125240*
G01*
X1571570*
G75*
G02X1464677Y5247000I-106893J-65260*
G01*
G75*
G02X1357784Y5437500J125240*
G01*
X1317570*
G75*
G02X1143542Y5266514I-106893J-65260*
G01*
Y5244865*
G75*
G02X1138405Y5220523I-60240*
G01*
G75*
G02X1335917Y5118240I72272J-102283*
G01*
X1339437*
G37*
G36*
G75*
G02X1464677Y5243480I125240*
G01*
G75*
G02X1589917Y5118240J-125240*
G01*
X1593437*
G75*
G02X1843917I125240*
G01*
X4613977*
X4420617Y5311600*
X4362697*
G75*
G02X4138505Y5372240I-103895J60640*
G01*
X4125099*
G75*
G02X4004802Y5251943I-120297*
G01*
G75*
G02X3884505Y5372240J120297*
G01*
X3871099*
G75*
G02X3750802Y5251943I-120297*
G01*
G75*
G02X3630505Y5372240J120297*
G01*
X3622042*
G75*
G02X3496802Y5247000I-125240*
G01*
G75*
G02X3371562Y5372240J125240*
G01*
X3368042*
G75*
G02X3242802Y5247000I-125240*
G01*
G75*
G02X3117562Y5372240J125240*
G01*
X3114042*
G75*
G02X2988802Y5247000I-125240*
G01*
G75*
G02X2863562Y5372240J125240*
G01*
X2860042*
G75*
G02X2734802Y5247000I-125240*
G01*
G75*
G02X2609562Y5372240J125240*
G01*
X2605917*
G75*
G02X2480677Y5247000I-125240*
G01*
G75*
G02X2355437Y5372240J125240*
G01*
X2351918*
G75*
G02X2226677Y5247000I-125241*
G01*
G75*
G02X2119784Y5437500J125240*
G01*
X2079570*
G75*
G02X1972677Y5247000I-106893J-65260*
G01*
G75*
G02X1865784Y5437500J125240*
G01*
X1825570*
G75*
G02X1718677Y5247000I-106893J-65260*
G01*
G75*
G02X1611784Y5437500J125240*
G01*
X1571570*
G75*
G02X1464677Y5247000I-106893J-65260*
G01*
G75*
G02X1357784Y5437500J125240*
G01*
X1317570*
G75*
G02X1143542Y5266514I-106893J-65260*
G01*
Y5244865*
G75*
G02X1138405Y5220523I-60240*
G01*
G75*
G02X1335917Y5118240I72272J-102283*
G01*
X1339437*
G37*
X2355437Y5372240D02*
G36*
G75*
G02X2480677Y5497480I125240D01*
G01*
G75*
G02X2605917Y5372240J-125240*
G01*
X2609562*
G75*
G02X2734802Y5497480I125240*
G01*
G75*
G02X2860042Y5372240J-125240*
G01*
X2863562*
G75*
G02X2988802Y5497480I125240*
G01*
G75*
G02X3114042Y5372240J-125240*
G01*
X3117562*
G75*
G02X3242802Y5497480I125240*
G01*
G75*
G02X3368042Y5372240J-125240*
G01*
X3371562*
G75*
G02X3496802Y5497480I125240*
G01*
G75*
G02X3622042Y5372240J-125240*
G01*
X3630505*
G75*
G02X3750802Y5492537I120297*
G01*
G75*
G02X3871099Y5372240J-120297*
G01*
X3884505*
G75*
G02X4004802Y5492537I120297*
G01*
G75*
G02X4125099Y5372240J-120297*
G01*
X4138505*
G75*
G02X4362697Y5432880I120297*
G01*
X4445735*
G75*
G02X4488614Y5415119J-60640*
G01*
X4848318Y5055415*
X4848319Y6236240*
X3477230*
G75*
G02X3256750I-110240*
G01*
X2622886*
Y5710584*
G75*
G02X2605242Y5667988I-60240*
G01*
X2543680Y5606426*
G75*
G02X2501084Y5588782I-42596J42596*
G01*
X2395254*
X2287944Y5481472*
G75*
G02X2351918Y5372240I-61267J-109232*
G01*
X2355437*
G37*
G36*
G75*
G02X2480677Y5497480I125240*
G01*
G75*
G02X2605917Y5372240J-125240*
G01*
X2609562*
G75*
G02X2734802Y5497480I125240*
G01*
G75*
G02X2860042Y5372240J-125240*
G01*
X2863562*
G75*
G02X2988802Y5497480I125240*
G01*
G75*
G02X3114042Y5372240J-125240*
G01*
X3117562*
G75*
G02X3242802Y5497480I125240*
G01*
G75*
G02X3368042Y5372240J-125240*
G01*
X3371562*
G75*
G02X3496802Y5497480I125240*
G01*
G75*
G02X3622042Y5372240J-125240*
G01*
X3630505*
G75*
G02X3750802Y5492537I120297*
G01*
G75*
G02X3871099Y5372240J-120297*
G01*
X3884505*
G75*
G02X4004802Y5492537I120297*
G01*
G75*
G02X4125099Y5372240J-120297*
G01*
X4138505*
G75*
G02X4362697Y5432880I120297*
G01*
X4445735*
G75*
G02X4488614Y5415119J-60640*
G01*
X4848318Y5055415*
X4848319Y6236240*
X3477230*
G75*
G02X3256750I-110240*
G01*
X2622886*
Y5710584*
G75*
G02X2605242Y5667988I-60240*
G01*
X2543680Y5606426*
G75*
G02X2501084Y5588782I-42596J42596*
G01*
X2395254*
X2287944Y5481472*
G75*
G02X2351918Y5372240I-61267J-109232*
G01*
X2355437*
G37*
X2611552Y7573428D02*
G36*
Y6931240D01*
X2803437*
G75*
G02X3173917I185240*
G01*
X3311437*
G75*
G02X3681917I185240*
G01*
X3819437*
G75*
G02X4189917I185240*
G01*
X4327437*
G75*
G02X4697917I185240*
G01*
X4848320*
X4848321Y7573428*
X2918667*
G75*
G02X2698187I-110240*
G01*
X2611552*
G37*
G36*
Y6931240*
X2803437*
G75*
G02X3173917I185240*
G01*
X3311437*
G75*
G02X3681917I185240*
G01*
X3819437*
G75*
G02X4189917I185240*
G01*
X4327437*
G75*
G02X4697917I185240*
G01*
X4848320*
X4848321Y7573428*
X2918667*
G75*
G02X2698187I-110240*
G01*
X2611552*
G37*
X2698187D02*
G36*
G75*
G02X2918667I110240D01*
G01*
X4848321*
X4848322Y8537760*
X2611552*
Y7573428*
X2698187*
G37*
G36*
G75*
G02X2918667I110240*
G01*
X4848321*
X4848322Y8537760*
X2611552*
Y7573428*
X2698187*
G37*
X2622886Y6471990D02*
G36*
Y6236240D01*
X3256750*
G75*
G02X3477230I110240*
G01*
X4848319*
X4848320Y6471990*
X3021105*
G75*
G02X2800625I-110240*
G01*
X2622886*
G37*
G36*
Y6236240*
X3256750*
G75*
G02X3477230I110240*
G01*
X4848319*
X4848320Y6471990*
X3021105*
G75*
G02X2800625I-110240*
G01*
X2622886*
G37*
X2800625D02*
G36*
G75*
G02X3021105I110240D01*
G01*
X4848320*
Y6931240*
X4697917*
G75*
G02X4327437I-185240*
G01*
X4189917*
G75*
G02X3819437I-185240*
G01*
X3681917*
G75*
G02X3311437I-185240*
G01*
X3173917*
G75*
G02X2803437I-185240*
G01*
X2611552*
Y6884443*
G75*
G02X2622886Y6849271I-48906J-35172*
G01*
Y6471990*
X2800625*
G37*
G36*
G75*
G02X3021105I110240*
G01*
X4848320*
Y6931240*
X4697917*
G75*
G02X4327437I-185240*
G01*
X4189917*
G75*
G02X3819437I-185240*
G01*
X3681917*
G75*
G02X3311437I-185240*
G01*
X3173917*
G75*
G02X2803437I-185240*
G01*
X2611552*
Y6884443*
G75*
G02X2622886Y6849271I-48906J-35172*
G01*
Y6471990*
X2800625*
G37*
X4321067Y2785904D02*
Y1703420D01*
X4338869Y1685619*
G75*
G02X4346180Y1678308I-39224J-46535*
G01*
X4453170Y1571317*
X4621370*
X4787912Y1737861*
Y2805329*
G75*
G02X4599000Y2882553I-78672J77224*
G01*
G75*
G02X4787912Y2959777I110240*
G01*
Y3059632*
G75*
G02X4683062Y3169740I5390J110108*
G01*
G75*
G02X4848316Y3265272I110240*
G01*
X4848317Y3914287*
G75*
G02X4775520Y3904263I-50577J97953*
G01*
X4551942Y3680685*
Y3104803*
G75*
G02X4525962Y2908090I-60640J-92063*
G01*
X4683681Y2750371*
G75*
G02X4701442Y2707492I-42879J-42879*
G01*
Y2575230*
X4715802*
G75*
G02X4761042Y2529990J-45240*
G01*
Y2409990*
G75*
G02X4715802Y2364750I-45240*
G01*
X4565802*
G75*
G02X4520562Y2409990J45240*
G01*
Y2529990*
G75*
G02X4565802Y2575230I45240*
G01*
X4580162*
Y2636184*
G75*
G02X4383324Y2723647I-88860J65244*
G01*
X4321067Y2785904*
X4520562Y2240939D02*
Y2302490D01*
G75*
G02X4565802Y2347730I45240*
G01*
X4715802*
G75*
G02X4761042Y2302490J-45240*
G01*
Y2182490*
G75*
G02X4715802Y2137250I-45240*
G01*
X4701042*
Y1906542*
G75*
G02X4683398Y1863946I-60240*
G01*
X4679138Y1859686*
G75*
G02X4697917Y1778417I-166461J-81269*
G01*
G75*
G02X4327437I-185240*
G01*
G75*
G02X4580562Y1950770I185240*
G01*
Y2137250*
X4565802*
G75*
G02X4538610Y2146334J45240*
G01*
G75*
G02X4321937Y2175053I-106433J28719*
G01*
G75*
G02X4520562Y2240939I110240*
G01*
X4321067Y1970453D02*
G36*
Y1703420D01*
X4338869Y1685619*
G75*
G02X4346180Y1678308I-39224J-46535*
G01*
X4453170Y1571317*
X4621370*
X4787912Y1737861*
Y1970453*
X4701042*
Y1906542*
G75*
G02X4683398Y1863946I-60240*
G01*
X4679138Y1859686*
G75*
G02X4697917Y1778417I-166461J-81269*
G01*
G75*
G02X4327437I-185240*
G01*
G75*
G02X4580562Y1950770I185240*
G01*
Y1970453*
X4321067*
G37*
G36*
Y1703420*
X4338869Y1685619*
G75*
G02X4346180Y1678308I-39224J-46535*
G01*
X4453170Y1571317*
X4621370*
X4787912Y1737861*
Y1970453*
X4701042*
Y1906542*
G75*
G02X4683398Y1863946I-60240*
G01*
X4679138Y1859686*
G75*
G02X4697917Y1778417I-166461J-81269*
G01*
G75*
G02X4327437I-185240*
G01*
G75*
G02X4580562Y1950770I185240*
G01*
Y1970453*
X4321067*
G37*
X4580562D02*
G36*
Y2137250D01*
X4565802*
G75*
G02X4538610Y2146334J45240*
G01*
G75*
G02X4321937Y2175053I-106433J28719*
G01*
G75*
G02X4520562Y2240939I110240*
G01*
Y2302490*
G75*
G02X4565802Y2347730I45240*
G01*
X4715802*
G75*
G02X4761042Y2302490J-45240*
G01*
Y2182490*
G75*
G02X4715802Y2137250I-45240*
G01*
X4701042*
Y1970453*
X4787912*
Y2805329*
G75*
G02X4599000Y2882553I-78672J77224*
G01*
G75*
G02X4787912Y2959777I110240*
G01*
Y3059632*
G75*
G02X4683062Y3169740I5390J110108*
G01*
G75*
G02X4848316Y3265272I110240*
G01*
X4848317Y3914287*
G75*
G02X4775520Y3904263I-50577J97953*
G01*
X4551942Y3680685*
Y3104803*
G75*
G02X4525962Y2908090I-60640J-92063*
G01*
X4683681Y2750371*
G75*
G02X4701442Y2707492I-42879J-42879*
G01*
Y2575230*
X4715802*
G75*
G02X4761042Y2529990J-45240*
G01*
Y2409990*
G75*
G02X4715802Y2364750I-45240*
G01*
X4565802*
G75*
G02X4520562Y2409990J45240*
G01*
Y2529990*
G75*
G02X4565802Y2575230I45240*
G01*
X4580162*
Y2636184*
G75*
G02X4383324Y2723647I-88860J65244*
G01*
X4321067Y2785904*
Y1970453*
X4580562*
G37*
G36*
Y2137250*
X4565802*
G75*
G02X4538610Y2146334J45240*
G01*
G75*
G02X4321937Y2175053I-106433J28719*
G01*
G75*
G02X4520562Y2240939I110240*
G01*
Y2302490*
G75*
G02X4565802Y2347730I45240*
G01*
X4715802*
G75*
G02X4761042Y2302490J-45240*
G01*
Y2182490*
G75*
G02X4715802Y2137250I-45240*
G01*
X4701042*
Y1970453*
X4787912*
Y2805329*
G75*
G02X4599000Y2882553I-78672J77224*
G01*
G75*
G02X4787912Y2959777I110240*
G01*
Y3059632*
G75*
G02X4683062Y3169740I5390J110108*
G01*
G75*
G02X4848316Y3265272I110240*
G01*
X4848317Y3914287*
G75*
G02X4775520Y3904263I-50577J97953*
G01*
X4551942Y3680685*
Y3104803*
G75*
G02X4525962Y2908090I-60640J-92063*
G01*
X4683681Y2750371*
G75*
G02X4701442Y2707492I-42879J-42879*
G01*
Y2575230*
X4715802*
G75*
G02X4761042Y2529990J-45240*
G01*
Y2409990*
G75*
G02X4715802Y2364750I-45240*
G01*
X4565802*
G75*
G02X4520562Y2409990J45240*
G01*
Y2529990*
G75*
G02X4565802Y2575230I45240*
G01*
X4580162*
Y2636184*
G75*
G02X4383324Y2723647I-88860J65244*
G01*
X4321067Y2785904*
Y1970453*
X4580562*
G37*
D02*
D20*
X172480Y2911865D02*
Y2430928D01*
X448168Y2155240*
X947802*
X172480Y2911865D02*
X274365D01*
X303230Y2883000*
X336923*
X335683Y3204469D02*
Y3325740D01*
X232480Y3428943*
Y4836293*
X312740Y4916553*
X1334114*
X336923Y2883000D02*
X384413Y2930490D01*
X592802*
X373552Y6090865D02*
X394114Y6070303D01*
X771615*
X373552Y6634365D02*
X214052D01*
X172490Y6592803*
Y5964490*
X236615Y5900365*
X1817905*
X2070552Y6153011*
X2070553Y6561022*
Y6561090*
X2120636Y6611173*
Y7081887*
X2311115Y7272366*
Y7359243*
Y8348930*
X2175555Y8484490*
X1377552*
X373552Y6634365D02*
X541927D01*
X597738Y6690177*
Y6835115*
X682988Y6920365*
X981552*
X373552Y7498865D02*
Y7351428D01*
X422115Y7302865*
X584489*
X373552Y7498865D02*
Y7823365D01*
X382240Y3635990D02*
Y4714615D01*
Y3635990D02*
X382865Y3636615D01*
X510865*
X560802Y2386490D02*
X674677D01*
X800427Y2512242*
Y2806490*
X560802Y2613990D02*
X391115D01*
X592802Y3157990D02*
X800427D01*
X592802D02*
X382162D01*
X335683Y3204469*
X606802Y8389240D02*
X379177D01*
X373552Y8394865*
X610802Y3797178D02*
X1621802D01*
X800427Y2806490D02*
Y3157990D01*
X867552Y7322052D02*
X885364Y7304240D01*
X1299927*
X867552Y7322052D02*
Y7219302D01*
X603615Y6955365*
X373552*
X867552Y7322052D02*
Y7786865D01*
X947802Y3165240D02*
X940552Y3157990D01*
X800427*
X956677Y5437240D02*
Y5470615D01*
X1038802Y5552740*
X2196238*
X2241520Y5598022*
X2397613Y5754115*
X2407552*
X981552Y6285365D02*
X981615Y6285302D01*
Y6120365*
X1002639Y5164202D02*
X1083302Y5244865D01*
Y5421865*
X1159177Y5497740*
X2219020*
X2371020Y5649740*
X2371738Y5649022*
X2501084*
X2562646Y5710584*
Y6849271*
X2526639Y6885278*
X1021802Y2804428D02*
X802489D01*
X800427Y2806490*
X1164715Y5072278D02*
X1068990Y4976553D01*
X287887*
X172480Y4861144*
Y2911865*
X1183052Y2500240D02*
X1040490D01*
X947802Y2407552*
Y2155240*
X1334114Y4916553D02*
X1337052Y4913615D01*
Y4643553*
X1636447Y4344158*
X1361240Y6070365D02*
X1489927D01*
X1410552Y2500240D02*
Y2788240D01*
X1455802Y2833490*
X1454365*
X1455802Y2834927*
Y3165240*
Y3413178*
Y3420613*
X1636447Y3601260*
X1455802Y3413178D02*
X1453927Y3411303D01*
X520927*
X382240Y3549990*
Y3635990*
X1464677Y5053240D02*
Y5047116D01*
X1334114Y4916553*
X1563634Y7027760D02*
X1376740Y6840866D01*
X1376739Y6393677*
X1268427Y6285365*
X981552*
X1589927Y6070365D02*
X1740989D01*
X1781552Y6110928*
Y6285365*
X1634344Y7098470D02*
X1711177Y7175303D01*
X1973302*
X2105447Y7307448*
X1671802Y4518803D02*
Y5071365D01*
X1672715Y5072278*
X1717365Y4036365D02*
X2271928D01*
X2401365Y3906928*
Y3158365*
X1781427Y4468803D02*
X1782008Y4468222D01*
Y4263375*
X1717248Y4198615*
X1626224*
X1356036Y4468803*
X610865*
X1781427D02*
X2735865D01*
X1781427D02*
X1721802D01*
X1781552Y6920365D02*
X2010427D01*
X2010552Y6920490*
X1781865Y3797115D02*
Y3796894D01*
X1781802Y3796831*
Y3590973*
X1709802Y3518973*
Y3165240*
X1781865Y3797115D02*
X1721802D01*
X2010552Y6606678D02*
Y6177864D01*
X1793052Y5960365*
X1251615*
X1177032Y6034948*
X2010552Y6706678D02*
Y6920490D01*
Y7056677*
X2173303Y7219428*
X2251112Y7297237*
Y7725368*
X2189615Y7786865*
X1927552*
X2085072Y5677635D02*
X2070177Y5662740D01*
X908239*
X702677Y5457178*
Y5437240*
X2434715Y7139278D02*
X2359302Y7063865D01*
Y5793586*
X2173456Y5607740*
X931094*
X829302Y5505949*
Y5244865*
X748639Y5164202*
X2735865Y3797115D02*
X2656615D01*
X2605240Y3745740*
Y3028678*
X2516615Y2940053*
X2278427*
X2182677Y3035803*
Y3715428*
X2100990Y3797115*
X1781865*
X2785865Y3586615D02*
Y2975115D01*
X2644240Y2833490*
X1455802*
X2835865Y4468803D02*
X3869365D01*
X2858427Y7573428D02*
X2981802D01*
X3231990Y7323240*
Y6472490*
X3231490Y6471990*
X2960865D02*
X3231490D01*
X3366990Y6286240D02*
Y6435302D01*
X3330302Y6471990*
X3231490*
X3869365Y3636615D02*
X2835865D01*
X3869365Y3797115D02*
X2835865D01*
X3954720Y3761760D02*
X4320430Y3396050D01*
Y2872298*
X4455946Y2736783*
X3969365Y4468803D02*
X4257177D01*
X4607197Y4818823*
X4299646Y1639084D02*
X4260427Y1678302D01*
Y3308740*
X3960693Y3608474*
X4299646Y1639084D02*
X4292802Y1632240D01*
Y1630304*
X4257470Y1594971*
X4491302Y3062740D02*
Y3705803D01*
X4762385Y3976885*
X4640802Y2242490D02*
Y1906542D01*
X4576317Y1842057*
X4640802Y2469990D02*
Y2707492D01*
X4380552Y2967741*
Y3750753*
X4848552Y4218753*
Y4969423*
X4445735Y5372240*
X4318802*
X4828657Y3134384D02*
X4848552Y3114489D01*
X4848554Y1712743*
X4646488Y1510677*
X4428052*
X4299646Y1639084*
D02*
D24*
X335683Y3204469D03*
X336923Y2883000D03*
D02*
D25*
X560802Y2386490D03*
Y2613990D03*
X592802Y2930490D03*
Y3157990D03*
X4640802Y2242490D03*
Y2469990D03*
D02*
D26*
X1183052Y2500240D03*
X1410552D03*
D02*
D29*
X373552Y6090865D03*
Y6634365D03*
Y6955365D03*
Y7498865D03*
Y7823365D03*
Y8394865D03*
D02*
D86*
X947802Y2155240D03*
Y3165240D03*
X1201802Y2155240D03*
Y3165240D03*
X1455802Y2155240D03*
Y3165240D03*
X1709802Y2155240D03*
Y3165240D03*
D02*
D132*
X335683Y3154469D02*
Y3064469D01*
Y3254469D02*
Y3344469D01*
X515802Y2386490D02*
X425802D01*
X560802Y2356490D02*
Y2266490D01*
X560865Y4251140D02*
Y4198563D01*
X592802Y3187990D02*
Y3277990D01*
X605802Y2386490D02*
X695802D01*
X618528Y4308803D02*
X671105D01*
X637802Y3157990D02*
X727802D01*
X942802Y3165240D02*
X1032802D01*
X947802Y3100240D02*
Y3010240D01*
Y3230240D02*
Y3320240D01*
X952802Y3165240D02*
X862802D01*
X1014139Y2804428D02*
X961562D01*
X1071802Y2746765D02*
Y2694188D01*
Y2862091D02*
Y2914668D01*
X1129465Y2804428D02*
X1182042D01*
X1609702Y4036365D02*
X1557125D01*
X1667365Y3978702D02*
Y3926125D01*
X1725028Y4036365D02*
X1777605D01*
X2343702Y3108365D02*
X2291125D01*
X2401365Y3166028D02*
Y3218605D01*
X2459028Y3108365D02*
X2511605D01*
X2750764Y7573428D02*
X2698187D01*
X2808427Y7515765D02*
Y7463188D01*
Y7631091D02*
Y7683668D01*
X2853202Y6471990D02*
X2800625D01*
X2866090Y7573428D02*
X2918667D01*
X2910865Y6414327D02*
Y6361750D01*
Y6529653D02*
Y6582230D01*
X2968528Y6471990D02*
X3021105D01*
X3309327Y6236240D02*
X3256750D01*
X3366990Y6178577D02*
Y6126000D01*
Y6293903D02*
Y6346480D01*
X3424653Y6236240D02*
X3477230D01*
X4432177Y2117390D02*
Y2064813D01*
Y2232716D02*
Y2285293D01*
X4651577Y2882553D02*
X4599000D01*
X4709240Y2824890D02*
Y2772313D01*
Y2940216D02*
Y2992793D01*
D02*
D146*
X341115Y2613990D03*
X382240Y4764615D03*
X560802Y3797178D03*
X560865Y3636615D03*
Y4308803D03*
Y4468803D03*
X634489Y7302865D03*
X656802Y8389240D03*
X821615Y6070303D03*
X981615Y6070365D03*
X1071802Y2804428D03*
X1141677Y6070303D03*
X1311240Y6070365D03*
X1327552Y8484490D03*
X1349927Y7304240D03*
X1539927Y6070365D03*
X1598989Y7063115D03*
X1667365Y4036365D03*
X1671802Y3636615D03*
Y3797115D03*
Y4308803D03*
Y4468803D03*
X2010552Y6656678D03*
X2120427Y5712990D03*
X2140802Y7342803D03*
X2401365Y3108365D03*
X2457552Y5754115D03*
X2785865Y3636615D03*
Y3797115D03*
Y4468803D03*
X2808427Y7573428D03*
X2910865Y6471990D03*
X3366990Y6236240D03*
X3919365Y3636615D03*
Y3797115D03*
Y4468803D03*
X4222115Y1559615D03*
X4432177Y2175053D03*
X4491302Y2701428D03*
Y3012740D03*
X4642552Y4854178D03*
X4709240Y2882553D03*
X4793302Y3169740D03*
X4797740Y4012240D03*
D02*
D150*
X702677Y5118240D03*
Y5372240D03*
X956677Y5118240D03*
Y5372240D03*
X1210677Y5118240D03*
Y5372240D03*
X1464677Y5118240D03*
Y5372240D03*
X1718677D03*
X1972677D03*
X2226677D03*
X2480677D03*
X2734802D03*
X2988802D03*
X3242802D03*
X3496802D03*
D02*
D151*
X1718677Y5118240D03*
X2480677Y6931240D03*
Y7185240D03*
D02*
D204*
X3750802Y5372240D03*
X4004802D03*
X4258802D03*
D02*
D251*
X448677Y1779740D03*
X956677D03*
X1464677D03*
X1972677D03*
X2480677D03*
X2988677D03*
Y6931240D03*
X3496677Y1778417D03*
Y6931240D03*
X4004677Y1778417D03*
Y6931240D03*
X4512677Y1778417D03*
Y6931240D03*
D02*
D263*
X981552Y6285365D03*
Y6920365D03*
X1781552Y6285365D03*
Y6920365D03*
D02*
D265*
X867552Y7786865D03*
X1927552D03*
X0Y0D02*
M02*
